M48
; DRILL file {KiCad (5.1.6)-1} date 09/09/20 15:30:04
; FORMAT={-:-/ absolute / inch / decimal}
; #@! TF.CreationDate,2020-09-09T15:30:04+02:00
; #@! TF.GenerationSoftware,Kicad,Pcbnew,(5.1.6)-1
; #@! TF.FileFunction,Plated,1,2,PTH
FMAT,2
INCH
T1C0.0118
T2C0.0197
T3C0.0394
T4C0.0591
T5C0.1260
%
G90
G05
T1
X4.1494Y-2.8556
X4.1494Y-2.8856
X4.1494Y-2.9156
X4.1494Y-2.9456
X4.1494Y-3.2556
X4.1494Y-3.2856
X4.1494Y-3.3156
X4.1494Y-3.3456
X4.3469Y-2.9231
X4.3469Y-3.2756
X4.4019Y-2.9231
X4.4019Y-3.2756
X4.7094Y-2.9806
X4.7644Y-2.9806
X4.7669Y-2.5156
X4.7894Y-2.6206
X5.0199Y-2.6961
X5.0519Y-2.2231
X5.0519Y-2.3181
X5.0994Y-2.2231
X5.0994Y-2.3181
X5.1469Y-2.2231
X5.1469Y-2.3181
X5.1944Y-2.2231
X5.1944Y-2.3181
X5.2419Y-2.2231
X5.2419Y-2.3181
X5.3244Y-2.8556
X5.3244Y-2.8856
X5.3244Y-2.9156
X5.3244Y-2.9456
X5.3244Y-3.2556
X5.3244Y-3.2856
X5.3244Y-3.3156
X5.3244Y-3.3456
X5.5219Y-2.9231
X5.5219Y-3.2756
X5.5769Y-2.9231
X5.5769Y-3.2756
X5.714Y-2.236
X5.714Y-2.3075
X5.8594Y-2.3081
X5.8594Y-2.3826
X5.9199Y-2.2517
X5.9599Y-2.2917
X6.0344Y-2.3156
X6.1544Y-2.3081
X6.1569Y-2.2431
X6.1694Y-2.7181
X6.2069Y-2.7556
X6.2094Y-3.0456
X6.2269Y-2.4281
X6.2554Y-2.3106
X6.2719Y-2.6981
X6.2719Y-2.7756
X6.3244Y-2.4206
X6.3244Y-2.4706
X6.3494Y-2.4456
X6.3744Y-2.4206
X6.3744Y-2.4706
X6.3794Y-2.1856
X6.5044Y-2.8556
X6.5044Y-2.8856
X6.5044Y-2.9156
X6.5044Y-2.9456
X6.5044Y-3.2556
X6.5044Y-3.2856
X6.5044Y-3.3156
X6.5044Y-3.3456
X6.5794Y-2.5406
X6.5994Y-2.6456
X6.6094Y-2.4306
X6.6369Y-2.6081
X6.6969Y-2.9231
X6.6969Y-3.2756
X6.7519Y-2.9231
X6.7519Y-3.2756
X7.0994Y-2.2756
X7.1319Y-2.3106
X7.1544Y-3.4506
X7.1544Y-3.4806
X7.1544Y-3.5106
X7.1544Y-3.5406
X7.2294Y-2.2756
X7.2644Y-2.3106
X7.3744Y-2.9356
X7.4794Y-2.2756
X7.4844Y-2.4956
X7.4844Y-3.9256
X7.4894Y-2.4106
X7.5219Y-3.9256
X7.5569Y-3.9256
X7.5944Y-3.9256
X7.6294Y-3.9256
X7.6644Y-3.9256
X7.6994Y-3.9256
X7.7319Y-3.9256
X7.8744Y-2.1356
X7.8744Y-2.3106
X7.8819Y-3.8381
X7.8844Y-3.6206
X7.8844Y-3.6506
X7.8844Y-3.6806
X7.8844Y-3.7106
X7.8844Y-3.7406
X7.8844Y-3.7706
X7.8844Y-3.8006
X7.9169Y-3.8006
X7.9494Y-3.8006
X8.0244Y-2.2506
X8.0244Y-2.2856
X8.0469Y-3.6006
X8.0469Y-3.6331
X8.0469Y-3.6656
X8.0469Y-3.6956
X8.0469Y-3.7256
X8.0475Y-3.535
X8.0475Y-3.5675
X8.0644Y-2.9056
X8.1044Y-2.2506
X8.1044Y-2.2856
X8.1419Y-3.3531
X8.1944Y-3.0356
X8.1969Y-3.3531
X8.563Y-3.3957
X8.5744Y-3.2356
T2
X3.7539Y-3.9862
X3.7816Y-3.9194
X3.7816Y-4.053
X3.8484Y-3.8917
X3.8484Y-4.0807
X3.9152Y-3.9194
X3.9152Y-4.053
X3.9429Y-3.9862
X8.5571Y-3.9862
X8.5848Y-3.9194
X8.5848Y-4.053
X8.6516Y-3.8917
X8.6516Y-4.0807
X8.7184Y-3.9194
X8.7184Y-4.053
X8.7461Y-3.9862
X8.5571Y-2.2146
X8.5848Y-2.1478
X8.5848Y-2.2814
X8.6516Y-2.1201
X8.6516Y-2.3091
X8.7184Y-2.1478
X8.7184Y-2.2814
X8.7461Y-2.2146
X3.7539Y-2.2146
X3.7816Y-2.1478
X3.7816Y-2.2814
X3.8484Y-2.1201
X3.8484Y-2.3091
X3.9152Y-2.1478
X3.9152Y-2.2814
X3.9429Y-2.2146
T3
X7.1094Y-3.0506
X7.1094Y-3.1506
X7.6944Y-2.3506
X7.6944Y-2.4506
X7.6944Y-2.5506
X7.6944Y-2.6506
X7.6944Y-2.7506
X7.6944Y-2.8506
X7.6944Y-2.9506
X7.6944Y-3.0506
X7.6944Y-3.1506
X7.6944Y-3.2506
X7.6944Y-3.3506
X7.6944Y-3.4506
X7.6944Y-3.5506
X7.6944Y-3.6506
X7.6944Y-3.7506
X8.2944Y-2.3506
X8.2944Y-2.4506
X8.2944Y-2.5506
X8.2944Y-2.6506
X8.2944Y-2.7506
X8.2944Y-2.8506
X8.2944Y-2.9506
X8.2944Y-3.0506
X8.2944Y-3.1506
X8.2944Y-3.2506
X8.2944Y-3.3506
X8.2944Y-3.4506
X8.2944Y-3.5506
X8.2944Y-3.6506
X8.2944Y-3.7506
X7.5944Y-2.3506
X7.5944Y-2.4506
X7.5944Y-2.5506
X7.5944Y-2.6506
X7.5944Y-2.7506
X7.5944Y-2.8506
X7.5944Y-2.9506
X7.5944Y-3.0506
X7.5944Y-3.1506
X7.5944Y-3.2506
X7.5944Y-3.3506
X7.5944Y-3.4506
X8.3944Y-2.3506
X8.3944Y-2.4506
X8.3944Y-2.5506
X8.3944Y-2.6506
X8.3944Y-2.7506
X8.3944Y-2.8506
X8.3944Y-2.9506
X8.3944Y-3.0506
X8.3944Y-3.1506
X8.3944Y-3.2506
X8.3944Y-3.3506
X8.3944Y-3.4506
X8.3944Y-3.5506
X8.3944Y-3.6506
X8.3944Y-3.7506
X8.3944Y-3.8506
X6.0544Y-2.9981
X6.0544Y-3.0981
X6.0544Y-3.1981
T4
X5.3444Y-3.7006
X5.5444Y-3.7006
X4.6944Y-3.7006
X4.8944Y-3.7006
X6.7794Y-2.5006
X6.9794Y-2.5006
X7.0444Y-3.7006
X7.2444Y-3.7006
X4.4294Y-2.5006
X4.6294Y-2.5006
X5.8694Y-3.7006
X6.0694Y-3.7006
X6.5194Y-3.7006
X6.7194Y-3.7006
X5.6044Y-2.5006
X5.8044Y-2.5006
X4.1694Y-3.7006
X4.3694Y-3.7006
T5
X8.6516Y-3.9862
X8.6516Y-2.2146
X3.8484Y-2.2146
X3.8484Y-3.9862
T0
M30
