%TF.GenerationSoftware,KiCad,Pcbnew,(5.1.6)-1*%
%TF.CreationDate,2020-09-09T14:21:18+02:00*%
%TF.ProjectId,TougherPowerMeter-FeatherWing,546f7567-6865-4725-906f-7765724d6574,rev?*%
%TF.SameCoordinates,Original*%
%TF.FileFunction,Paste,Bot*%
%TF.FilePolarity,Positive*%
%FSLAX46Y46*%
G04 Gerber Fmt 4.6, Leading zero omitted, Abs format (unit mm)*
G04 Created by KiCad (PCBNEW (5.1.6)-1) date 2020-09-09 14:21:18*
%MOMM*%
%LPD*%
G01*
G04 APERTURE LIST*
%ADD10R,2.300000X2.500000*%
%ADD11R,1.220000X0.650000*%
%ADD12R,0.880000X1.050000*%
%ADD13R,1.050000X0.450000*%
%ADD14R,1.980000X4.200000*%
%ADD15R,2.500000X2.300000*%
G04 APERTURE END LIST*
%TO.C,C23*%
G36*
G01*
X204983500Y-90626250D02*
X204983500Y-89713750D01*
G75*
G02*
X205227250Y-89470000I243750J0D01*
G01*
X205714750Y-89470000D01*
G75*
G02*
X205958500Y-89713750I0J-243750D01*
G01*
X205958500Y-90626250D01*
G75*
G02*
X205714750Y-90870000I-243750J0D01*
G01*
X205227250Y-90870000D01*
G75*
G02*
X204983500Y-90626250I0J243750D01*
G01*
G37*
G36*
G01*
X203108500Y-90626250D02*
X203108500Y-89713750D01*
G75*
G02*
X203352250Y-89470000I243750J0D01*
G01*
X203839750Y-89470000D01*
G75*
G02*
X204083500Y-89713750I0J-243750D01*
G01*
X204083500Y-90626250D01*
G75*
G02*
X203839750Y-90870000I-243750J0D01*
G01*
X203352250Y-90870000D01*
G75*
G02*
X203108500Y-90626250I0J243750D01*
G01*
G37*
%TD*%
%TO.C,C22*%
G36*
G01*
X199107000Y-92037500D02*
X199107000Y-93287500D01*
G75*
G02*
X198857000Y-93537500I-250000J0D01*
G01*
X198107000Y-93537500D01*
G75*
G02*
X197857000Y-93287500I0J250000D01*
G01*
X197857000Y-92037500D01*
G75*
G02*
X198107000Y-91787500I250000J0D01*
G01*
X198857000Y-91787500D01*
G75*
G02*
X199107000Y-92037500I0J-250000D01*
G01*
G37*
G36*
G01*
X201907000Y-92037500D02*
X201907000Y-93287500D01*
G75*
G02*
X201657000Y-93537500I-250000J0D01*
G01*
X200907000Y-93537500D01*
G75*
G02*
X200657000Y-93287500I0J250000D01*
G01*
X200657000Y-92037500D01*
G75*
G02*
X200907000Y-91787500I250000J0D01*
G01*
X201657000Y-91787500D01*
G75*
G02*
X201907000Y-92037500I0J-250000D01*
G01*
G37*
%TD*%
%TO.C,C21*%
G36*
G01*
X192511500Y-98682000D02*
X190361500Y-98682000D01*
G75*
G02*
X190111500Y-98432000I0J250000D01*
G01*
X190111500Y-97682000D01*
G75*
G02*
X190361500Y-97432000I250000J0D01*
G01*
X192511500Y-97432000D01*
G75*
G02*
X192761500Y-97682000I0J-250000D01*
G01*
X192761500Y-98432000D01*
G75*
G02*
X192511500Y-98682000I-250000J0D01*
G01*
G37*
G36*
G01*
X192511500Y-101482000D02*
X190361500Y-101482000D01*
G75*
G02*
X190111500Y-101232000I0J250000D01*
G01*
X190111500Y-100482000D01*
G75*
G02*
X190361500Y-100232000I250000J0D01*
G01*
X192511500Y-100232000D01*
G75*
G02*
X192761500Y-100482000I0J-250000D01*
G01*
X192761500Y-101232000D01*
G75*
G02*
X192511500Y-101482000I-250000J0D01*
G01*
G37*
%TD*%
%TO.C,C2*%
G36*
G01*
X196194500Y-98682000D02*
X194044500Y-98682000D01*
G75*
G02*
X193794500Y-98432000I0J250000D01*
G01*
X193794500Y-97682000D01*
G75*
G02*
X194044500Y-97432000I250000J0D01*
G01*
X196194500Y-97432000D01*
G75*
G02*
X196444500Y-97682000I0J-250000D01*
G01*
X196444500Y-98432000D01*
G75*
G02*
X196194500Y-98682000I-250000J0D01*
G01*
G37*
G36*
G01*
X196194500Y-101482000D02*
X194044500Y-101482000D01*
G75*
G02*
X193794500Y-101232000I0J250000D01*
G01*
X193794500Y-100482000D01*
G75*
G02*
X194044500Y-100232000I250000J0D01*
G01*
X196194500Y-100232000D01*
G75*
G02*
X196444500Y-100482000I0J-250000D01*
G01*
X196444500Y-101232000D01*
G75*
G02*
X196194500Y-101482000I-250000J0D01*
G01*
G37*
%TD*%
D10*
%TO.C,D8*%
X189214000Y-90957000D03*
X189214000Y-95257000D03*
%TD*%
%TO.C,R1*%
G36*
G01*
X187721000Y-60973750D02*
X187721000Y-61486250D01*
G75*
G02*
X187502250Y-61705000I-218750J0D01*
G01*
X187064750Y-61705000D01*
G75*
G02*
X186846000Y-61486250I0J218750D01*
G01*
X186846000Y-60973750D01*
G75*
G02*
X187064750Y-60755000I218750J0D01*
G01*
X187502250Y-60755000D01*
G75*
G02*
X187721000Y-60973750I0J-218750D01*
G01*
G37*
G36*
G01*
X189296000Y-60973750D02*
X189296000Y-61486250D01*
G75*
G02*
X189077250Y-61705000I-218750J0D01*
G01*
X188639750Y-61705000D01*
G75*
G02*
X188421000Y-61486250I0J218750D01*
G01*
X188421000Y-60973750D01*
G75*
G02*
X188639750Y-60755000I218750J0D01*
G01*
X189077250Y-60755000D01*
G75*
G02*
X189296000Y-60973750I0J-218750D01*
G01*
G37*
%TD*%
%TO.C,R26*%
G36*
G01*
X125683000Y-66820250D02*
X125683000Y-66307750D01*
G75*
G02*
X125901750Y-66089000I218750J0D01*
G01*
X126339250Y-66089000D01*
G75*
G02*
X126558000Y-66307750I0J-218750D01*
G01*
X126558000Y-66820250D01*
G75*
G02*
X126339250Y-67039000I-218750J0D01*
G01*
X125901750Y-67039000D01*
G75*
G02*
X125683000Y-66820250I0J218750D01*
G01*
G37*
G36*
G01*
X124108000Y-66820250D02*
X124108000Y-66307750D01*
G75*
G02*
X124326750Y-66089000I218750J0D01*
G01*
X124764250Y-66089000D01*
G75*
G02*
X124983000Y-66307750I0J-218750D01*
G01*
X124983000Y-66820250D01*
G75*
G02*
X124764250Y-67039000I-218750J0D01*
G01*
X124326750Y-67039000D01*
G75*
G02*
X124108000Y-66820250I0J218750D01*
G01*
G37*
%TD*%
%TO.C,R25*%
G36*
G01*
X125683000Y-64915250D02*
X125683000Y-64402750D01*
G75*
G02*
X125901750Y-64184000I218750J0D01*
G01*
X126339250Y-64184000D01*
G75*
G02*
X126558000Y-64402750I0J-218750D01*
G01*
X126558000Y-64915250D01*
G75*
G02*
X126339250Y-65134000I-218750J0D01*
G01*
X125901750Y-65134000D01*
G75*
G02*
X125683000Y-64915250I0J218750D01*
G01*
G37*
G36*
G01*
X124108000Y-64915250D02*
X124108000Y-64402750D01*
G75*
G02*
X124326750Y-64184000I218750J0D01*
G01*
X124764250Y-64184000D01*
G75*
G02*
X124983000Y-64402750I0J-218750D01*
G01*
X124983000Y-64915250D01*
G75*
G02*
X124764250Y-65134000I-218750J0D01*
G01*
X124326750Y-65134000D01*
G75*
G02*
X124108000Y-64915250I0J218750D01*
G01*
G37*
%TD*%
%TO.C,F1*%
G36*
G01*
X202241999Y-85411000D02*
X205142001Y-85411000D01*
G75*
G02*
X205392000Y-85660999I0J-249999D01*
G01*
X205392000Y-86286001D01*
G75*
G02*
X205142001Y-86536000I-249999J0D01*
G01*
X202241999Y-86536000D01*
G75*
G02*
X201992000Y-86286001I0J249999D01*
G01*
X201992000Y-85660999D01*
G75*
G02*
X202241999Y-85411000I249999J0D01*
G01*
G37*
G36*
G01*
X202241999Y-81136000D02*
X205142001Y-81136000D01*
G75*
G02*
X205392000Y-81385999I0J-249999D01*
G01*
X205392000Y-82011001D01*
G75*
G02*
X205142001Y-82261000I-249999J0D01*
G01*
X202241999Y-82261000D01*
G75*
G02*
X201992000Y-82011001I0J249999D01*
G01*
X201992000Y-81385999D01*
G75*
G02*
X202241999Y-81136000I249999J0D01*
G01*
G37*
%TD*%
%TO.C,C20*%
G36*
G01*
X120060250Y-75867500D02*
X120572750Y-75867500D01*
G75*
G02*
X120791500Y-76086250I0J-218750D01*
G01*
X120791500Y-76523750D01*
G75*
G02*
X120572750Y-76742500I-218750J0D01*
G01*
X120060250Y-76742500D01*
G75*
G02*
X119841500Y-76523750I0J218750D01*
G01*
X119841500Y-76086250D01*
G75*
G02*
X120060250Y-75867500I218750J0D01*
G01*
G37*
G36*
G01*
X120060250Y-74292500D02*
X120572750Y-74292500D01*
G75*
G02*
X120791500Y-74511250I0J-218750D01*
G01*
X120791500Y-74948750D01*
G75*
G02*
X120572750Y-75167500I-218750J0D01*
G01*
X120060250Y-75167500D01*
G75*
G02*
X119841500Y-74948750I0J218750D01*
G01*
X119841500Y-74511250D01*
G75*
G02*
X120060250Y-74292500I218750J0D01*
G01*
G37*
%TD*%
%TO.C,C19*%
G36*
G01*
X218012000Y-83330250D02*
X218012000Y-82817750D01*
G75*
G02*
X218230750Y-82599000I218750J0D01*
G01*
X218668250Y-82599000D01*
G75*
G02*
X218887000Y-82817750I0J-218750D01*
G01*
X218887000Y-83330250D01*
G75*
G02*
X218668250Y-83549000I-218750J0D01*
G01*
X218230750Y-83549000D01*
G75*
G02*
X218012000Y-83330250I0J218750D01*
G01*
G37*
G36*
G01*
X216437000Y-83330250D02*
X216437000Y-82817750D01*
G75*
G02*
X216655750Y-82599000I218750J0D01*
G01*
X217093250Y-82599000D01*
G75*
G02*
X217312000Y-82817750I0J-218750D01*
G01*
X217312000Y-83330250D01*
G75*
G02*
X217093250Y-83549000I-218750J0D01*
G01*
X216655750Y-83549000D01*
G75*
G02*
X216437000Y-83330250I0J218750D01*
G01*
G37*
%TD*%
%TO.C,C7*%
G36*
G01*
X120636250Y-63674000D02*
X120123750Y-63674000D01*
G75*
G02*
X119905000Y-63455250I0J218750D01*
G01*
X119905000Y-63017750D01*
G75*
G02*
X120123750Y-62799000I218750J0D01*
G01*
X120636250Y-62799000D01*
G75*
G02*
X120855000Y-63017750I0J-218750D01*
G01*
X120855000Y-63455250D01*
G75*
G02*
X120636250Y-63674000I-218750J0D01*
G01*
G37*
G36*
G01*
X120636250Y-65249000D02*
X120123750Y-65249000D01*
G75*
G02*
X119905000Y-65030250I0J218750D01*
G01*
X119905000Y-64592750D01*
G75*
G02*
X120123750Y-64374000I218750J0D01*
G01*
X120636250Y-64374000D01*
G75*
G02*
X120855000Y-64592750I0J-218750D01*
G01*
X120855000Y-65030250D01*
G75*
G02*
X120636250Y-65249000I-218750J0D01*
G01*
G37*
%TD*%
%TO.C,C6*%
G36*
G01*
X204967500Y-94769750D02*
X204967500Y-93857250D01*
G75*
G02*
X205211250Y-93613500I243750J0D01*
G01*
X205698750Y-93613500D01*
G75*
G02*
X205942500Y-93857250I0J-243750D01*
G01*
X205942500Y-94769750D01*
G75*
G02*
X205698750Y-95013500I-243750J0D01*
G01*
X205211250Y-95013500D01*
G75*
G02*
X204967500Y-94769750I0J243750D01*
G01*
G37*
G36*
G01*
X203092500Y-94769750D02*
X203092500Y-93857250D01*
G75*
G02*
X203336250Y-93613500I243750J0D01*
G01*
X203823750Y-93613500D01*
G75*
G02*
X204067500Y-93857250I0J-243750D01*
G01*
X204067500Y-94769750D01*
G75*
G02*
X203823750Y-95013500I-243750J0D01*
G01*
X203336250Y-95013500D01*
G75*
G02*
X203092500Y-94769750I0J243750D01*
G01*
G37*
%TD*%
%TO.C,C3*%
G36*
G01*
X199107000Y-94514000D02*
X199107000Y-95764000D01*
G75*
G02*
X198857000Y-96014000I-250000J0D01*
G01*
X198107000Y-96014000D01*
G75*
G02*
X197857000Y-95764000I0J250000D01*
G01*
X197857000Y-94514000D01*
G75*
G02*
X198107000Y-94264000I250000J0D01*
G01*
X198857000Y-94264000D01*
G75*
G02*
X199107000Y-94514000I0J-250000D01*
G01*
G37*
G36*
G01*
X201907000Y-94514000D02*
X201907000Y-95764000D01*
G75*
G02*
X201657000Y-96014000I-250000J0D01*
G01*
X200907000Y-96014000D01*
G75*
G02*
X200657000Y-95764000I0J250000D01*
G01*
X200657000Y-94514000D01*
G75*
G02*
X200907000Y-94264000I250000J0D01*
G01*
X201657000Y-94264000D01*
G75*
G02*
X201907000Y-94514000I0J-250000D01*
G01*
G37*
%TD*%
%TO.C,C1*%
G36*
G01*
X207758250Y-85010000D02*
X207245750Y-85010000D01*
G75*
G02*
X207027000Y-84791250I0J218750D01*
G01*
X207027000Y-84353750D01*
G75*
G02*
X207245750Y-84135000I218750J0D01*
G01*
X207758250Y-84135000D01*
G75*
G02*
X207977000Y-84353750I0J-218750D01*
G01*
X207977000Y-84791250D01*
G75*
G02*
X207758250Y-85010000I-218750J0D01*
G01*
G37*
G36*
G01*
X207758250Y-86585000D02*
X207245750Y-86585000D01*
G75*
G02*
X207027000Y-86366250I0J218750D01*
G01*
X207027000Y-85928750D01*
G75*
G02*
X207245750Y-85710000I218750J0D01*
G01*
X207758250Y-85710000D01*
G75*
G02*
X207977000Y-85928750I0J-218750D01*
G01*
X207977000Y-86366250D01*
G75*
G02*
X207758250Y-86585000I-218750J0D01*
G01*
G37*
%TD*%
D11*
%TO.C,U1*%
X201153900Y-99352900D03*
X201153900Y-98402900D03*
X201153900Y-97452900D03*
X198533900Y-97452900D03*
X198533900Y-98402900D03*
X198533900Y-99352900D03*
%TD*%
D12*
%TO.C,U2*%
X118719400Y-70979000D03*
X117586000Y-70979000D03*
X116452600Y-70979000D03*
X118719400Y-69729000D03*
X117586000Y-69729000D03*
X116452600Y-69729000D03*
X118719400Y-68479000D03*
X117586000Y-68479000D03*
X116452600Y-68479000D03*
X116452600Y-67229000D03*
X117586000Y-67229000D03*
X118719400Y-67229000D03*
D13*
X114811000Y-66829000D03*
X114811000Y-67479000D03*
X114811000Y-68129000D03*
X114811000Y-68779000D03*
X114811000Y-69429000D03*
X114811000Y-70079000D03*
X114811000Y-70729000D03*
X114811000Y-71379000D03*
X120361000Y-71379000D03*
X120361000Y-70729000D03*
X120361000Y-70079000D03*
X120361000Y-69429000D03*
X120361000Y-68779000D03*
X120361000Y-68129000D03*
X120361000Y-67479000D03*
X120361000Y-66829000D03*
%TD*%
%TO.C,R7*%
G36*
G01*
X125683000Y-60470250D02*
X125683000Y-59957750D01*
G75*
G02*
X125901750Y-59739000I218750J0D01*
G01*
X126339250Y-59739000D01*
G75*
G02*
X126558000Y-59957750I0J-218750D01*
G01*
X126558000Y-60470250D01*
G75*
G02*
X126339250Y-60689000I-218750J0D01*
G01*
X125901750Y-60689000D01*
G75*
G02*
X125683000Y-60470250I0J218750D01*
G01*
G37*
G36*
G01*
X124108000Y-60470250D02*
X124108000Y-59957750D01*
G75*
G02*
X124326750Y-59739000I218750J0D01*
G01*
X124764250Y-59739000D01*
G75*
G02*
X124983000Y-59957750I0J-218750D01*
G01*
X124983000Y-60470250D01*
G75*
G02*
X124764250Y-60689000I-218750J0D01*
G01*
X124326750Y-60689000D01*
G75*
G02*
X124108000Y-60470250I0J218750D01*
G01*
G37*
%TD*%
%TO.C,R6*%
G36*
G01*
X125683000Y-62375250D02*
X125683000Y-61862750D01*
G75*
G02*
X125901750Y-61644000I218750J0D01*
G01*
X126339250Y-61644000D01*
G75*
G02*
X126558000Y-61862750I0J-218750D01*
G01*
X126558000Y-62375250D01*
G75*
G02*
X126339250Y-62594000I-218750J0D01*
G01*
X125901750Y-62594000D01*
G75*
G02*
X125683000Y-62375250I0J218750D01*
G01*
G37*
G36*
G01*
X124108000Y-62375250D02*
X124108000Y-61862750D01*
G75*
G02*
X124326750Y-61644000I218750J0D01*
G01*
X124764250Y-61644000D01*
G75*
G02*
X124983000Y-61862750I0J-218750D01*
G01*
X124983000Y-62375250D01*
G75*
G02*
X124764250Y-62594000I-218750J0D01*
G01*
X124326750Y-62594000D01*
G75*
G02*
X124108000Y-62375250I0J218750D01*
G01*
G37*
%TD*%
%TO.C,R5*%
G36*
G01*
X218012000Y-85362250D02*
X218012000Y-84849750D01*
G75*
G02*
X218230750Y-84631000I218750J0D01*
G01*
X218668250Y-84631000D01*
G75*
G02*
X218887000Y-84849750I0J-218750D01*
G01*
X218887000Y-85362250D01*
G75*
G02*
X218668250Y-85581000I-218750J0D01*
G01*
X218230750Y-85581000D01*
G75*
G02*
X218012000Y-85362250I0J218750D01*
G01*
G37*
G36*
G01*
X216437000Y-85362250D02*
X216437000Y-84849750D01*
G75*
G02*
X216655750Y-84631000I218750J0D01*
G01*
X217093250Y-84631000D01*
G75*
G02*
X217312000Y-84849750I0J-218750D01*
G01*
X217312000Y-85362250D01*
G75*
G02*
X217093250Y-85581000I-218750J0D01*
G01*
X216655750Y-85581000D01*
G75*
G02*
X216437000Y-85362250I0J218750D01*
G01*
G37*
%TD*%
%TO.C,R4*%
G36*
G01*
X125683000Y-68725250D02*
X125683000Y-68212750D01*
G75*
G02*
X125901750Y-67994000I218750J0D01*
G01*
X126339250Y-67994000D01*
G75*
G02*
X126558000Y-68212750I0J-218750D01*
G01*
X126558000Y-68725250D01*
G75*
G02*
X126339250Y-68944000I-218750J0D01*
G01*
X125901750Y-68944000D01*
G75*
G02*
X125683000Y-68725250I0J218750D01*
G01*
G37*
G36*
G01*
X124108000Y-68725250D02*
X124108000Y-68212750D01*
G75*
G02*
X124326750Y-67994000I218750J0D01*
G01*
X124764250Y-67994000D01*
G75*
G02*
X124983000Y-68212750I0J-218750D01*
G01*
X124983000Y-68725250D01*
G75*
G02*
X124764250Y-68944000I-218750J0D01*
G01*
X124326750Y-68944000D01*
G75*
G02*
X124108000Y-68725250I0J218750D01*
G01*
G37*
%TD*%
%TO.C,R3*%
G36*
G01*
X218012000Y-87394250D02*
X218012000Y-86881750D01*
G75*
G02*
X218230750Y-86663000I218750J0D01*
G01*
X218668250Y-86663000D01*
G75*
G02*
X218887000Y-86881750I0J-218750D01*
G01*
X218887000Y-87394250D01*
G75*
G02*
X218668250Y-87613000I-218750J0D01*
G01*
X218230750Y-87613000D01*
G75*
G02*
X218012000Y-87394250I0J218750D01*
G01*
G37*
G36*
G01*
X216437000Y-87394250D02*
X216437000Y-86881750D01*
G75*
G02*
X216655750Y-86663000I218750J0D01*
G01*
X217093250Y-86663000D01*
G75*
G02*
X217312000Y-86881750I0J-218750D01*
G01*
X217312000Y-87394250D01*
G75*
G02*
X217093250Y-87613000I-218750J0D01*
G01*
X216655750Y-87613000D01*
G75*
G02*
X216437000Y-87394250I0J218750D01*
G01*
G37*
%TD*%
%TO.C,R2*%
G36*
G01*
X187721000Y-58814750D02*
X187721000Y-59327250D01*
G75*
G02*
X187502250Y-59546000I-218750J0D01*
G01*
X187064750Y-59546000D01*
G75*
G02*
X186846000Y-59327250I0J218750D01*
G01*
X186846000Y-58814750D01*
G75*
G02*
X187064750Y-58596000I218750J0D01*
G01*
X187502250Y-58596000D01*
G75*
G02*
X187721000Y-58814750I0J-218750D01*
G01*
G37*
G36*
G01*
X189296000Y-58814750D02*
X189296000Y-59327250D01*
G75*
G02*
X189077250Y-59546000I-218750J0D01*
G01*
X188639750Y-59546000D01*
G75*
G02*
X188421000Y-59327250I0J218750D01*
G01*
X188421000Y-58814750D01*
G75*
G02*
X188639750Y-58596000I218750J0D01*
G01*
X189077250Y-58596000D01*
G75*
G02*
X189296000Y-58814750I0J-218750D01*
G01*
G37*
%TD*%
D14*
%TO.C,L1*%
X207133900Y-98402900D03*
X203983900Y-98402900D03*
%TD*%
D15*
%TO.C,D1*%
X183553500Y-88725500D03*
X179253500Y-88725500D03*
%TD*%
%TO.C,C5*%
G36*
G01*
X204967500Y-92674250D02*
X204967500Y-91761750D01*
G75*
G02*
X205211250Y-91518000I243750J0D01*
G01*
X205698750Y-91518000D01*
G75*
G02*
X205942500Y-91761750I0J-243750D01*
G01*
X205942500Y-92674250D01*
G75*
G02*
X205698750Y-92918000I-243750J0D01*
G01*
X205211250Y-92918000D01*
G75*
G02*
X204967500Y-92674250I0J243750D01*
G01*
G37*
G36*
G01*
X203092500Y-92674250D02*
X203092500Y-91761750D01*
G75*
G02*
X203336250Y-91518000I243750J0D01*
G01*
X203823750Y-91518000D01*
G75*
G02*
X204067500Y-91761750I0J-243750D01*
G01*
X204067500Y-92674250D01*
G75*
G02*
X203823750Y-92918000I-243750J0D01*
G01*
X203336250Y-92918000D01*
G75*
G02*
X203092500Y-92674250I0J243750D01*
G01*
G37*
%TD*%
%TO.C,C4*%
G36*
G01*
X200192400Y-101207350D02*
X200192400Y-101719850D01*
G75*
G02*
X199973650Y-101938600I-218750J0D01*
G01*
X199536150Y-101938600D01*
G75*
G02*
X199317400Y-101719850I0J218750D01*
G01*
X199317400Y-101207350D01*
G75*
G02*
X199536150Y-100988600I218750J0D01*
G01*
X199973650Y-100988600D01*
G75*
G02*
X200192400Y-101207350I0J-218750D01*
G01*
G37*
G36*
G01*
X201767400Y-101207350D02*
X201767400Y-101719850D01*
G75*
G02*
X201548650Y-101938600I-218750J0D01*
G01*
X201111150Y-101938600D01*
G75*
G02*
X200892400Y-101719850I0J218750D01*
G01*
X200892400Y-101207350D01*
G75*
G02*
X201111150Y-100988600I218750J0D01*
G01*
X201548650Y-100988600D01*
G75*
G02*
X201767400Y-101207350I0J-218750D01*
G01*
G37*
%TD*%
%TO.C,C18*%
G36*
G01*
X156301200Y-57493950D02*
X156301200Y-58006450D01*
G75*
G02*
X156082450Y-58225200I-218750J0D01*
G01*
X155644950Y-58225200D01*
G75*
G02*
X155426200Y-58006450I0J218750D01*
G01*
X155426200Y-57493950D01*
G75*
G02*
X155644950Y-57275200I218750J0D01*
G01*
X156082450Y-57275200D01*
G75*
G02*
X156301200Y-57493950I0J-218750D01*
G01*
G37*
G36*
G01*
X157876200Y-57493950D02*
X157876200Y-58006450D01*
G75*
G02*
X157657450Y-58225200I-218750J0D01*
G01*
X157219950Y-58225200D01*
G75*
G02*
X157001200Y-58006450I0J218750D01*
G01*
X157001200Y-57493950D01*
G75*
G02*
X157219950Y-57275200I218750J0D01*
G01*
X157657450Y-57275200D01*
G75*
G02*
X157876200Y-57493950I0J-218750D01*
G01*
G37*
%TD*%
%TO.C,R17*%
G36*
G01*
X113366999Y-80981000D02*
X116217001Y-80981000D01*
G75*
G02*
X116467000Y-81230999I0J-249999D01*
G01*
X116467000Y-82081001D01*
G75*
G02*
X116217001Y-82331000I-249999J0D01*
G01*
X113366999Y-82331000D01*
G75*
G02*
X113117000Y-82081001I0J249999D01*
G01*
X113117000Y-81230999D01*
G75*
G02*
X113366999Y-80981000I249999J0D01*
G01*
G37*
G36*
G01*
X113366999Y-75181000D02*
X116217001Y-75181000D01*
G75*
G02*
X116467000Y-75430999I0J-249999D01*
G01*
X116467000Y-76281001D01*
G75*
G02*
X116217001Y-76531000I-249999J0D01*
G01*
X113366999Y-76531000D01*
G75*
G02*
X113117000Y-76281001I0J249999D01*
G01*
X113117000Y-75430999D01*
G75*
G02*
X113366999Y-75181000I249999J0D01*
G01*
G37*
%TD*%
%TO.C,U4*%
G36*
G01*
X161374000Y-61806500D02*
X161374000Y-61381500D01*
G75*
G02*
X161586500Y-61169000I212500J0D01*
G01*
X162011500Y-61169000D01*
G75*
G02*
X162224000Y-61381500I0J-212500D01*
G01*
X162224000Y-61806500D01*
G75*
G02*
X162011500Y-62019000I-212500J0D01*
G01*
X161586500Y-62019000D01*
G75*
G02*
X161374000Y-61806500I0J212500D01*
G01*
G37*
G36*
G01*
X161374000Y-62856500D02*
X161374000Y-62431500D01*
G75*
G02*
X161586500Y-62219000I212500J0D01*
G01*
X162011500Y-62219000D01*
G75*
G02*
X162224000Y-62431500I0J-212500D01*
G01*
X162224000Y-62856500D01*
G75*
G02*
X162011500Y-63069000I-212500J0D01*
G01*
X161586500Y-63069000D01*
G75*
G02*
X161374000Y-62856500I0J212500D01*
G01*
G37*
G36*
G01*
X160324000Y-61806500D02*
X160324000Y-61381500D01*
G75*
G02*
X160536500Y-61169000I212500J0D01*
G01*
X160961500Y-61169000D01*
G75*
G02*
X161174000Y-61381500I0J-212500D01*
G01*
X161174000Y-61806500D01*
G75*
G02*
X160961500Y-62019000I-212500J0D01*
G01*
X160536500Y-62019000D01*
G75*
G02*
X160324000Y-61806500I0J212500D01*
G01*
G37*
G36*
G01*
X160324000Y-62856500D02*
X160324000Y-62431500D01*
G75*
G02*
X160536500Y-62219000I212500J0D01*
G01*
X160961500Y-62219000D01*
G75*
G02*
X161174000Y-62431500I0J-212500D01*
G01*
X161174000Y-62856500D01*
G75*
G02*
X160961500Y-63069000I-212500J0D01*
G01*
X160536500Y-63069000D01*
G75*
G02*
X160324000Y-62856500I0J212500D01*
G01*
G37*
G36*
G01*
X160124000Y-64406500D02*
X160124000Y-63556500D01*
G75*
G02*
X160211500Y-63469000I87500J0D01*
G01*
X160386500Y-63469000D01*
G75*
G02*
X160474000Y-63556500I0J-87500D01*
G01*
X160474000Y-64406500D01*
G75*
G02*
X160386500Y-64494000I-87500J0D01*
G01*
X160211500Y-64494000D01*
G75*
G02*
X160124000Y-64406500I0J87500D01*
G01*
G37*
G36*
G01*
X160774000Y-64406500D02*
X160774000Y-63556500D01*
G75*
G02*
X160861500Y-63469000I87500J0D01*
G01*
X161036500Y-63469000D01*
G75*
G02*
X161124000Y-63556500I0J-87500D01*
G01*
X161124000Y-64406500D01*
G75*
G02*
X161036500Y-64494000I-87500J0D01*
G01*
X160861500Y-64494000D01*
G75*
G02*
X160774000Y-64406500I0J87500D01*
G01*
G37*
G36*
G01*
X161424000Y-64406500D02*
X161424000Y-63556500D01*
G75*
G02*
X161511500Y-63469000I87500J0D01*
G01*
X161686500Y-63469000D01*
G75*
G02*
X161774000Y-63556500I0J-87500D01*
G01*
X161774000Y-64406500D01*
G75*
G02*
X161686500Y-64494000I-87500J0D01*
G01*
X161511500Y-64494000D01*
G75*
G02*
X161424000Y-64406500I0J87500D01*
G01*
G37*
G36*
G01*
X162074000Y-64406500D02*
X162074000Y-63556500D01*
G75*
G02*
X162161500Y-63469000I87500J0D01*
G01*
X162336500Y-63469000D01*
G75*
G02*
X162424000Y-63556500I0J-87500D01*
G01*
X162424000Y-64406500D01*
G75*
G02*
X162336500Y-64494000I-87500J0D01*
G01*
X162161500Y-64494000D01*
G75*
G02*
X162074000Y-64406500I0J87500D01*
G01*
G37*
G36*
G01*
X162624000Y-63181500D02*
X162624000Y-63006500D01*
G75*
G02*
X162711500Y-62919000I87500J0D01*
G01*
X163561500Y-62919000D01*
G75*
G02*
X163649000Y-63006500I0J-87500D01*
G01*
X163649000Y-63181500D01*
G75*
G02*
X163561500Y-63269000I-87500J0D01*
G01*
X162711500Y-63269000D01*
G75*
G02*
X162624000Y-63181500I0J87500D01*
G01*
G37*
G36*
G01*
X162624000Y-62531500D02*
X162624000Y-62356500D01*
G75*
G02*
X162711500Y-62269000I87500J0D01*
G01*
X163561500Y-62269000D01*
G75*
G02*
X163649000Y-62356500I0J-87500D01*
G01*
X163649000Y-62531500D01*
G75*
G02*
X163561500Y-62619000I-87500J0D01*
G01*
X162711500Y-62619000D01*
G75*
G02*
X162624000Y-62531500I0J87500D01*
G01*
G37*
G36*
G01*
X162624000Y-61881500D02*
X162624000Y-61706500D01*
G75*
G02*
X162711500Y-61619000I87500J0D01*
G01*
X163561500Y-61619000D01*
G75*
G02*
X163649000Y-61706500I0J-87500D01*
G01*
X163649000Y-61881500D01*
G75*
G02*
X163561500Y-61969000I-87500J0D01*
G01*
X162711500Y-61969000D01*
G75*
G02*
X162624000Y-61881500I0J87500D01*
G01*
G37*
G36*
G01*
X162624000Y-61231500D02*
X162624000Y-61056500D01*
G75*
G02*
X162711500Y-60969000I87500J0D01*
G01*
X163561500Y-60969000D01*
G75*
G02*
X163649000Y-61056500I0J-87500D01*
G01*
X163649000Y-61231500D01*
G75*
G02*
X163561500Y-61319000I-87500J0D01*
G01*
X162711500Y-61319000D01*
G75*
G02*
X162624000Y-61231500I0J87500D01*
G01*
G37*
G36*
G01*
X162074000Y-60681500D02*
X162074000Y-59831500D01*
G75*
G02*
X162161500Y-59744000I87500J0D01*
G01*
X162336500Y-59744000D01*
G75*
G02*
X162424000Y-59831500I0J-87500D01*
G01*
X162424000Y-60681500D01*
G75*
G02*
X162336500Y-60769000I-87500J0D01*
G01*
X162161500Y-60769000D01*
G75*
G02*
X162074000Y-60681500I0J87500D01*
G01*
G37*
G36*
G01*
X161424000Y-60681500D02*
X161424000Y-59831500D01*
G75*
G02*
X161511500Y-59744000I87500J0D01*
G01*
X161686500Y-59744000D01*
G75*
G02*
X161774000Y-59831500I0J-87500D01*
G01*
X161774000Y-60681500D01*
G75*
G02*
X161686500Y-60769000I-87500J0D01*
G01*
X161511500Y-60769000D01*
G75*
G02*
X161424000Y-60681500I0J87500D01*
G01*
G37*
G36*
G01*
X160774000Y-60681500D02*
X160774000Y-59831500D01*
G75*
G02*
X160861500Y-59744000I87500J0D01*
G01*
X161036500Y-59744000D01*
G75*
G02*
X161124000Y-59831500I0J-87500D01*
G01*
X161124000Y-60681500D01*
G75*
G02*
X161036500Y-60769000I-87500J0D01*
G01*
X160861500Y-60769000D01*
G75*
G02*
X160774000Y-60681500I0J87500D01*
G01*
G37*
G36*
G01*
X160124000Y-60681500D02*
X160124000Y-59831500D01*
G75*
G02*
X160211500Y-59744000I87500J0D01*
G01*
X160386500Y-59744000D01*
G75*
G02*
X160474000Y-59831500I0J-87500D01*
G01*
X160474000Y-60681500D01*
G75*
G02*
X160386500Y-60769000I-87500J0D01*
G01*
X160211500Y-60769000D01*
G75*
G02*
X160124000Y-60681500I0J87500D01*
G01*
G37*
G36*
G01*
X158899000Y-61231500D02*
X158899000Y-61056500D01*
G75*
G02*
X158986500Y-60969000I87500J0D01*
G01*
X159836500Y-60969000D01*
G75*
G02*
X159924000Y-61056500I0J-87500D01*
G01*
X159924000Y-61231500D01*
G75*
G02*
X159836500Y-61319000I-87500J0D01*
G01*
X158986500Y-61319000D01*
G75*
G02*
X158899000Y-61231500I0J87500D01*
G01*
G37*
G36*
G01*
X158899000Y-61881500D02*
X158899000Y-61706500D01*
G75*
G02*
X158986500Y-61619000I87500J0D01*
G01*
X159836500Y-61619000D01*
G75*
G02*
X159924000Y-61706500I0J-87500D01*
G01*
X159924000Y-61881500D01*
G75*
G02*
X159836500Y-61969000I-87500J0D01*
G01*
X158986500Y-61969000D01*
G75*
G02*
X158899000Y-61881500I0J87500D01*
G01*
G37*
G36*
G01*
X158899000Y-62531500D02*
X158899000Y-62356500D01*
G75*
G02*
X158986500Y-62269000I87500J0D01*
G01*
X159836500Y-62269000D01*
G75*
G02*
X159924000Y-62356500I0J-87500D01*
G01*
X159924000Y-62531500D01*
G75*
G02*
X159836500Y-62619000I-87500J0D01*
G01*
X158986500Y-62619000D01*
G75*
G02*
X158899000Y-62531500I0J87500D01*
G01*
G37*
G36*
G01*
X158899000Y-63181500D02*
X158899000Y-63006500D01*
G75*
G02*
X158986500Y-62919000I87500J0D01*
G01*
X159836500Y-62919000D01*
G75*
G02*
X159924000Y-63006500I0J-87500D01*
G01*
X159924000Y-63181500D01*
G75*
G02*
X159836500Y-63269000I-87500J0D01*
G01*
X158986500Y-63269000D01*
G75*
G02*
X158899000Y-63181500I0J87500D01*
G01*
G37*
%TD*%
%TO.C,R24*%
G36*
G01*
X169687000Y-79515750D02*
X169687000Y-80028250D01*
G75*
G02*
X169468250Y-80247000I-218750J0D01*
G01*
X169030750Y-80247000D01*
G75*
G02*
X168812000Y-80028250I0J218750D01*
G01*
X168812000Y-79515750D01*
G75*
G02*
X169030750Y-79297000I218750J0D01*
G01*
X169468250Y-79297000D01*
G75*
G02*
X169687000Y-79515750I0J-218750D01*
G01*
G37*
G36*
G01*
X171262000Y-79515750D02*
X171262000Y-80028250D01*
G75*
G02*
X171043250Y-80247000I-218750J0D01*
G01*
X170605750Y-80247000D01*
G75*
G02*
X170387000Y-80028250I0J218750D01*
G01*
X170387000Y-79515750D01*
G75*
G02*
X170605750Y-79297000I218750J0D01*
G01*
X171043250Y-79297000D01*
G75*
G02*
X171262000Y-79515750I0J-218750D01*
G01*
G37*
%TD*%
%TO.C,R23*%
G36*
G01*
X173056999Y-80981000D02*
X175907001Y-80981000D01*
G75*
G02*
X176157000Y-81230999I0J-249999D01*
G01*
X176157000Y-82081001D01*
G75*
G02*
X175907001Y-82331000I-249999J0D01*
G01*
X173056999Y-82331000D01*
G75*
G02*
X172807000Y-82081001I0J249999D01*
G01*
X172807000Y-81230999D01*
G75*
G02*
X173056999Y-80981000I249999J0D01*
G01*
G37*
G36*
G01*
X173056999Y-75181000D02*
X175907001Y-75181000D01*
G75*
G02*
X176157000Y-75430999I0J-249999D01*
G01*
X176157000Y-76281001D01*
G75*
G02*
X175907001Y-76531000I-249999J0D01*
G01*
X173056999Y-76531000D01*
G75*
G02*
X172807000Y-76281001I0J249999D01*
G01*
X172807000Y-75430999D01*
G75*
G02*
X173056999Y-75181000I249999J0D01*
G01*
G37*
%TD*%
%TO.C,R22*%
G36*
G01*
X169687000Y-77483750D02*
X169687000Y-77996250D01*
G75*
G02*
X169468250Y-78215000I-218750J0D01*
G01*
X169030750Y-78215000D01*
G75*
G02*
X168812000Y-77996250I0J218750D01*
G01*
X168812000Y-77483750D01*
G75*
G02*
X169030750Y-77265000I218750J0D01*
G01*
X169468250Y-77265000D01*
G75*
G02*
X169687000Y-77483750I0J-218750D01*
G01*
G37*
G36*
G01*
X171262000Y-77483750D02*
X171262000Y-77996250D01*
G75*
G02*
X171043250Y-78215000I-218750J0D01*
G01*
X170605750Y-78215000D01*
G75*
G02*
X170387000Y-77996250I0J218750D01*
G01*
X170387000Y-77483750D01*
G75*
G02*
X170605750Y-77265000I218750J0D01*
G01*
X171043250Y-77265000D01*
G75*
G02*
X171262000Y-77483750I0J-218750D01*
G01*
G37*
%TD*%
%TO.C,R21*%
G36*
G01*
X139842000Y-79515750D02*
X139842000Y-80028250D01*
G75*
G02*
X139623250Y-80247000I-218750J0D01*
G01*
X139185750Y-80247000D01*
G75*
G02*
X138967000Y-80028250I0J218750D01*
G01*
X138967000Y-79515750D01*
G75*
G02*
X139185750Y-79297000I218750J0D01*
G01*
X139623250Y-79297000D01*
G75*
G02*
X139842000Y-79515750I0J-218750D01*
G01*
G37*
G36*
G01*
X141417000Y-79515750D02*
X141417000Y-80028250D01*
G75*
G02*
X141198250Y-80247000I-218750J0D01*
G01*
X140760750Y-80247000D01*
G75*
G02*
X140542000Y-80028250I0J218750D01*
G01*
X140542000Y-79515750D01*
G75*
G02*
X140760750Y-79297000I218750J0D01*
G01*
X141198250Y-79297000D01*
G75*
G02*
X141417000Y-79515750I0J-218750D01*
G01*
G37*
%TD*%
%TO.C,R20*%
G36*
G01*
X143211999Y-80981000D02*
X146062001Y-80981000D01*
G75*
G02*
X146312000Y-81230999I0J-249999D01*
G01*
X146312000Y-82081001D01*
G75*
G02*
X146062001Y-82331000I-249999J0D01*
G01*
X143211999Y-82331000D01*
G75*
G02*
X142962000Y-82081001I0J249999D01*
G01*
X142962000Y-81230999D01*
G75*
G02*
X143211999Y-80981000I249999J0D01*
G01*
G37*
G36*
G01*
X143211999Y-75181000D02*
X146062001Y-75181000D01*
G75*
G02*
X146312000Y-75430999I0J-249999D01*
G01*
X146312000Y-76281001D01*
G75*
G02*
X146062001Y-76531000I-249999J0D01*
G01*
X143211999Y-76531000D01*
G75*
G02*
X142962000Y-76281001I0J249999D01*
G01*
X142962000Y-75430999D01*
G75*
G02*
X143211999Y-75181000I249999J0D01*
G01*
G37*
%TD*%
%TO.C,R19*%
G36*
G01*
X139842000Y-77483750D02*
X139842000Y-77996250D01*
G75*
G02*
X139623250Y-78215000I-218750J0D01*
G01*
X139185750Y-78215000D01*
G75*
G02*
X138967000Y-77996250I0J218750D01*
G01*
X138967000Y-77483750D01*
G75*
G02*
X139185750Y-77265000I218750J0D01*
G01*
X139623250Y-77265000D01*
G75*
G02*
X139842000Y-77483750I0J-218750D01*
G01*
G37*
G36*
G01*
X141417000Y-77483750D02*
X141417000Y-77996250D01*
G75*
G02*
X141198250Y-78215000I-218750J0D01*
G01*
X140760750Y-78215000D01*
G75*
G02*
X140542000Y-77996250I0J218750D01*
G01*
X140542000Y-77483750D01*
G75*
G02*
X140760750Y-77265000I218750J0D01*
G01*
X141198250Y-77265000D01*
G75*
G02*
X141417000Y-77483750I0J-218750D01*
G01*
G37*
%TD*%
%TO.C,R16*%
G36*
G01*
X109997000Y-77483750D02*
X109997000Y-77996250D01*
G75*
G02*
X109778250Y-78215000I-218750J0D01*
G01*
X109340750Y-78215000D01*
G75*
G02*
X109122000Y-77996250I0J218750D01*
G01*
X109122000Y-77483750D01*
G75*
G02*
X109340750Y-77265000I218750J0D01*
G01*
X109778250Y-77265000D01*
G75*
G02*
X109997000Y-77483750I0J-218750D01*
G01*
G37*
G36*
G01*
X111572000Y-77483750D02*
X111572000Y-77996250D01*
G75*
G02*
X111353250Y-78215000I-218750J0D01*
G01*
X110915750Y-78215000D01*
G75*
G02*
X110697000Y-77996250I0J218750D01*
G01*
X110697000Y-77483750D01*
G75*
G02*
X110915750Y-77265000I218750J0D01*
G01*
X111353250Y-77265000D01*
G75*
G02*
X111572000Y-77483750I0J-218750D01*
G01*
G37*
%TD*%
%TO.C,R13*%
G36*
G01*
X156606000Y-81039750D02*
X156606000Y-81552250D01*
G75*
G02*
X156387250Y-81771000I-218750J0D01*
G01*
X155949750Y-81771000D01*
G75*
G02*
X155731000Y-81552250I0J218750D01*
G01*
X155731000Y-81039750D01*
G75*
G02*
X155949750Y-80821000I218750J0D01*
G01*
X156387250Y-80821000D01*
G75*
G02*
X156606000Y-81039750I0J-218750D01*
G01*
G37*
G36*
G01*
X158181000Y-81039750D02*
X158181000Y-81552250D01*
G75*
G02*
X157962250Y-81771000I-218750J0D01*
G01*
X157524750Y-81771000D01*
G75*
G02*
X157306000Y-81552250I0J218750D01*
G01*
X157306000Y-81039750D01*
G75*
G02*
X157524750Y-80821000I218750J0D01*
G01*
X157962250Y-80821000D01*
G75*
G02*
X158181000Y-81039750I0J-218750D01*
G01*
G37*
%TD*%
%TO.C,D7*%
X163442000Y-83836000D03*
X167742000Y-83836000D03*
%TD*%
%TO.C,R18*%
G36*
G01*
X109997000Y-79515750D02*
X109997000Y-80028250D01*
G75*
G02*
X109778250Y-80247000I-218750J0D01*
G01*
X109340750Y-80247000D01*
G75*
G02*
X109122000Y-80028250I0J218750D01*
G01*
X109122000Y-79515750D01*
G75*
G02*
X109340750Y-79297000I218750J0D01*
G01*
X109778250Y-79297000D01*
G75*
G02*
X109997000Y-79515750I0J-218750D01*
G01*
G37*
G36*
G01*
X111572000Y-79515750D02*
X111572000Y-80028250D01*
G75*
G02*
X111353250Y-80247000I-218750J0D01*
G01*
X110915750Y-80247000D01*
G75*
G02*
X110697000Y-80028250I0J218750D01*
G01*
X110697000Y-79515750D01*
G75*
G02*
X110915750Y-79297000I218750J0D01*
G01*
X111353250Y-79297000D01*
G75*
G02*
X111572000Y-79515750I0J-218750D01*
G01*
G37*
%TD*%
%TO.C,R15*%
G36*
G01*
X200167000Y-67831750D02*
X200167000Y-68344250D01*
G75*
G02*
X199948250Y-68563000I-218750J0D01*
G01*
X199510750Y-68563000D01*
G75*
G02*
X199292000Y-68344250I0J218750D01*
G01*
X199292000Y-67831750D01*
G75*
G02*
X199510750Y-67613000I218750J0D01*
G01*
X199948250Y-67613000D01*
G75*
G02*
X200167000Y-67831750I0J-218750D01*
G01*
G37*
G36*
G01*
X201742000Y-67831750D02*
X201742000Y-68344250D01*
G75*
G02*
X201523250Y-68563000I-218750J0D01*
G01*
X201085750Y-68563000D01*
G75*
G02*
X200867000Y-68344250I0J218750D01*
G01*
X200867000Y-67831750D01*
G75*
G02*
X201085750Y-67613000I218750J0D01*
G01*
X201523250Y-67613000D01*
G75*
G02*
X201742000Y-67831750I0J-218750D01*
G01*
G37*
%TD*%
%TO.C,R14*%
G36*
G01*
X157306000Y-76472250D02*
X157306000Y-75959750D01*
G75*
G02*
X157524750Y-75741000I218750J0D01*
G01*
X157962250Y-75741000D01*
G75*
G02*
X158181000Y-75959750I0J-218750D01*
G01*
X158181000Y-76472250D01*
G75*
G02*
X157962250Y-76691000I-218750J0D01*
G01*
X157524750Y-76691000D01*
G75*
G02*
X157306000Y-76472250I0J218750D01*
G01*
G37*
G36*
G01*
X155731000Y-76472250D02*
X155731000Y-75959750D01*
G75*
G02*
X155949750Y-75741000I218750J0D01*
G01*
X156387250Y-75741000D01*
G75*
G02*
X156606000Y-75959750I0J-218750D01*
G01*
X156606000Y-76472250D01*
G75*
G02*
X156387250Y-76691000I-218750J0D01*
G01*
X155949750Y-76691000D01*
G75*
G02*
X155731000Y-76472250I0J218750D01*
G01*
G37*
%TD*%
%TO.C,R12*%
G36*
G01*
X200167000Y-69736750D02*
X200167000Y-70249250D01*
G75*
G02*
X199948250Y-70468000I-218750J0D01*
G01*
X199510750Y-70468000D01*
G75*
G02*
X199292000Y-70249250I0J218750D01*
G01*
X199292000Y-69736750D01*
G75*
G02*
X199510750Y-69518000I218750J0D01*
G01*
X199948250Y-69518000D01*
G75*
G02*
X200167000Y-69736750I0J-218750D01*
G01*
G37*
G36*
G01*
X201742000Y-69736750D02*
X201742000Y-70249250D01*
G75*
G02*
X201523250Y-70468000I-218750J0D01*
G01*
X201085750Y-70468000D01*
G75*
G02*
X200867000Y-70249250I0J218750D01*
G01*
X200867000Y-69736750D01*
G75*
G02*
X201085750Y-69518000I218750J0D01*
G01*
X201523250Y-69518000D01*
G75*
G02*
X201742000Y-69736750I0J-218750D01*
G01*
G37*
%TD*%
%TO.C,R11*%
G36*
G01*
X200167000Y-71641750D02*
X200167000Y-72154250D01*
G75*
G02*
X199948250Y-72373000I-218750J0D01*
G01*
X199510750Y-72373000D01*
G75*
G02*
X199292000Y-72154250I0J218750D01*
G01*
X199292000Y-71641750D01*
G75*
G02*
X199510750Y-71423000I218750J0D01*
G01*
X199948250Y-71423000D01*
G75*
G02*
X200167000Y-71641750I0J-218750D01*
G01*
G37*
G36*
G01*
X201742000Y-71641750D02*
X201742000Y-72154250D01*
G75*
G02*
X201523250Y-72373000I-218750J0D01*
G01*
X201085750Y-72373000D01*
G75*
G02*
X200867000Y-72154250I0J218750D01*
G01*
X200867000Y-71641750D01*
G75*
G02*
X201085750Y-71423000I218750J0D01*
G01*
X201523250Y-71423000D01*
G75*
G02*
X201742000Y-71641750I0J-218750D01*
G01*
G37*
%TD*%
%TO.C,R10*%
G36*
G01*
X187721000Y-56655750D02*
X187721000Y-57168250D01*
G75*
G02*
X187502250Y-57387000I-218750J0D01*
G01*
X187064750Y-57387000D01*
G75*
G02*
X186846000Y-57168250I0J218750D01*
G01*
X186846000Y-56655750D01*
G75*
G02*
X187064750Y-56437000I218750J0D01*
G01*
X187502250Y-56437000D01*
G75*
G02*
X187721000Y-56655750I0J-218750D01*
G01*
G37*
G36*
G01*
X189296000Y-56655750D02*
X189296000Y-57168250D01*
G75*
G02*
X189077250Y-57387000I-218750J0D01*
G01*
X188639750Y-57387000D01*
G75*
G02*
X188421000Y-57168250I0J218750D01*
G01*
X188421000Y-56655750D01*
G75*
G02*
X188639750Y-56437000I218750J0D01*
G01*
X189077250Y-56437000D01*
G75*
G02*
X189296000Y-56655750I0J-218750D01*
G01*
G37*
%TD*%
%TO.C,R9*%
G36*
G01*
X187721000Y-63132750D02*
X187721000Y-63645250D01*
G75*
G02*
X187502250Y-63864000I-218750J0D01*
G01*
X187064750Y-63864000D01*
G75*
G02*
X186846000Y-63645250I0J218750D01*
G01*
X186846000Y-63132750D01*
G75*
G02*
X187064750Y-62914000I218750J0D01*
G01*
X187502250Y-62914000D01*
G75*
G02*
X187721000Y-63132750I0J-218750D01*
G01*
G37*
G36*
G01*
X189296000Y-63132750D02*
X189296000Y-63645250D01*
G75*
G02*
X189077250Y-63864000I-218750J0D01*
G01*
X188639750Y-63864000D01*
G75*
G02*
X188421000Y-63645250I0J218750D01*
G01*
X188421000Y-63132750D01*
G75*
G02*
X188639750Y-62914000I218750J0D01*
G01*
X189077250Y-62914000D01*
G75*
G02*
X189296000Y-63132750I0J-218750D01*
G01*
G37*
%TD*%
%TO.C,R8*%
G36*
G01*
X200167000Y-73546750D02*
X200167000Y-74059250D01*
G75*
G02*
X199948250Y-74278000I-218750J0D01*
G01*
X199510750Y-74278000D01*
G75*
G02*
X199292000Y-74059250I0J218750D01*
G01*
X199292000Y-73546750D01*
G75*
G02*
X199510750Y-73328000I218750J0D01*
G01*
X199948250Y-73328000D01*
G75*
G02*
X200167000Y-73546750I0J-218750D01*
G01*
G37*
G36*
G01*
X201742000Y-73546750D02*
X201742000Y-74059250D01*
G75*
G02*
X201523250Y-74278000I-218750J0D01*
G01*
X201085750Y-74278000D01*
G75*
G02*
X200867000Y-74059250I0J218750D01*
G01*
X200867000Y-73546750D01*
G75*
G02*
X201085750Y-73328000I218750J0D01*
G01*
X201523250Y-73328000D01*
G75*
G02*
X201742000Y-73546750I0J-218750D01*
G01*
G37*
%TD*%
%TO.C,D6*%
X163442000Y-73676000D03*
X167742000Y-73676000D03*
%TD*%
%TO.C,D5*%
X133470000Y-83836000D03*
X137770000Y-83836000D03*
%TD*%
%TO.C,D4*%
X133470000Y-73676000D03*
X137770000Y-73676000D03*
%TD*%
%TO.C,D3*%
X103625000Y-83836000D03*
X107925000Y-83836000D03*
%TD*%
%TO.C,D2*%
X103625000Y-73676000D03*
X107925000Y-73676000D03*
%TD*%
%TO.C,C17*%
G36*
G01*
X171055250Y-82724000D02*
X170542750Y-82724000D01*
G75*
G02*
X170324000Y-82505250I0J218750D01*
G01*
X170324000Y-82067750D01*
G75*
G02*
X170542750Y-81849000I218750J0D01*
G01*
X171055250Y-81849000D01*
G75*
G02*
X171274000Y-82067750I0J-218750D01*
G01*
X171274000Y-82505250D01*
G75*
G02*
X171055250Y-82724000I-218750J0D01*
G01*
G37*
G36*
G01*
X171055250Y-84299000D02*
X170542750Y-84299000D01*
G75*
G02*
X170324000Y-84080250I0J218750D01*
G01*
X170324000Y-83642750D01*
G75*
G02*
X170542750Y-83424000I218750J0D01*
G01*
X171055250Y-83424000D01*
G75*
G02*
X171274000Y-83642750I0J-218750D01*
G01*
X171274000Y-84080250D01*
G75*
G02*
X171055250Y-84299000I-218750J0D01*
G01*
G37*
%TD*%
%TO.C,C16*%
G36*
G01*
X165843750Y-63104000D02*
X166356250Y-63104000D01*
G75*
G02*
X166575000Y-63322750I0J-218750D01*
G01*
X166575000Y-63760250D01*
G75*
G02*
X166356250Y-63979000I-218750J0D01*
G01*
X165843750Y-63979000D01*
G75*
G02*
X165625000Y-63760250I0J218750D01*
G01*
X165625000Y-63322750D01*
G75*
G02*
X165843750Y-63104000I218750J0D01*
G01*
G37*
G36*
G01*
X165843750Y-61529000D02*
X166356250Y-61529000D01*
G75*
G02*
X166575000Y-61747750I0J-218750D01*
G01*
X166575000Y-62185250D01*
G75*
G02*
X166356250Y-62404000I-218750J0D01*
G01*
X165843750Y-62404000D01*
G75*
G02*
X165625000Y-62185250I0J218750D01*
G01*
X165625000Y-61747750D01*
G75*
G02*
X165843750Y-61529000I218750J0D01*
G01*
G37*
%TD*%
%TO.C,C15*%
G36*
G01*
X170542750Y-74788000D02*
X171055250Y-74788000D01*
G75*
G02*
X171274000Y-75006750I0J-218750D01*
G01*
X171274000Y-75444250D01*
G75*
G02*
X171055250Y-75663000I-218750J0D01*
G01*
X170542750Y-75663000D01*
G75*
G02*
X170324000Y-75444250I0J218750D01*
G01*
X170324000Y-75006750D01*
G75*
G02*
X170542750Y-74788000I218750J0D01*
G01*
G37*
G36*
G01*
X170542750Y-73213000D02*
X171055250Y-73213000D01*
G75*
G02*
X171274000Y-73431750I0J-218750D01*
G01*
X171274000Y-73869250D01*
G75*
G02*
X171055250Y-74088000I-218750J0D01*
G01*
X170542750Y-74088000D01*
G75*
G02*
X170324000Y-73869250I0J218750D01*
G01*
X170324000Y-73431750D01*
G75*
G02*
X170542750Y-73213000I218750J0D01*
G01*
G37*
%TD*%
%TO.C,C14*%
G36*
G01*
X141210250Y-82724000D02*
X140697750Y-82724000D01*
G75*
G02*
X140479000Y-82505250I0J218750D01*
G01*
X140479000Y-82067750D01*
G75*
G02*
X140697750Y-81849000I218750J0D01*
G01*
X141210250Y-81849000D01*
G75*
G02*
X141429000Y-82067750I0J-218750D01*
G01*
X141429000Y-82505250D01*
G75*
G02*
X141210250Y-82724000I-218750J0D01*
G01*
G37*
G36*
G01*
X141210250Y-84299000D02*
X140697750Y-84299000D01*
G75*
G02*
X140479000Y-84080250I0J218750D01*
G01*
X140479000Y-83642750D01*
G75*
G02*
X140697750Y-83424000I218750J0D01*
G01*
X141210250Y-83424000D01*
G75*
G02*
X141429000Y-83642750I0J-218750D01*
G01*
X141429000Y-84080250D01*
G75*
G02*
X141210250Y-84299000I-218750J0D01*
G01*
G37*
%TD*%
%TO.C,C13*%
G36*
G01*
X160924000Y-66688750D02*
X160924000Y-67201250D01*
G75*
G02*
X160705250Y-67420000I-218750J0D01*
G01*
X160267750Y-67420000D01*
G75*
G02*
X160049000Y-67201250I0J218750D01*
G01*
X160049000Y-66688750D01*
G75*
G02*
X160267750Y-66470000I218750J0D01*
G01*
X160705250Y-66470000D01*
G75*
G02*
X160924000Y-66688750I0J-218750D01*
G01*
G37*
G36*
G01*
X162499000Y-66688750D02*
X162499000Y-67201250D01*
G75*
G02*
X162280250Y-67420000I-218750J0D01*
G01*
X161842750Y-67420000D01*
G75*
G02*
X161624000Y-67201250I0J218750D01*
G01*
X161624000Y-66688750D01*
G75*
G02*
X161842750Y-66470000I218750J0D01*
G01*
X162280250Y-66470000D01*
G75*
G02*
X162499000Y-66688750I0J-218750D01*
G01*
G37*
%TD*%
%TO.C,C12*%
G36*
G01*
X140697750Y-74788000D02*
X141210250Y-74788000D01*
G75*
G02*
X141429000Y-75006750I0J-218750D01*
G01*
X141429000Y-75444250D01*
G75*
G02*
X141210250Y-75663000I-218750J0D01*
G01*
X140697750Y-75663000D01*
G75*
G02*
X140479000Y-75444250I0J218750D01*
G01*
X140479000Y-75006750D01*
G75*
G02*
X140697750Y-74788000I218750J0D01*
G01*
G37*
G36*
G01*
X140697750Y-73213000D02*
X141210250Y-73213000D01*
G75*
G02*
X141429000Y-73431750I0J-218750D01*
G01*
X141429000Y-73869250D01*
G75*
G02*
X141210250Y-74088000I-218750J0D01*
G01*
X140697750Y-74088000D01*
G75*
G02*
X140479000Y-73869250I0J218750D01*
G01*
X140479000Y-73431750D01*
G75*
G02*
X140697750Y-73213000I218750J0D01*
G01*
G37*
%TD*%
%TO.C,C11*%
G36*
G01*
X111365250Y-82724000D02*
X110852750Y-82724000D01*
G75*
G02*
X110634000Y-82505250I0J218750D01*
G01*
X110634000Y-82067750D01*
G75*
G02*
X110852750Y-81849000I218750J0D01*
G01*
X111365250Y-81849000D01*
G75*
G02*
X111584000Y-82067750I0J-218750D01*
G01*
X111584000Y-82505250D01*
G75*
G02*
X111365250Y-82724000I-218750J0D01*
G01*
G37*
G36*
G01*
X111365250Y-84299000D02*
X110852750Y-84299000D01*
G75*
G02*
X110634000Y-84080250I0J218750D01*
G01*
X110634000Y-83642750D01*
G75*
G02*
X110852750Y-83424000I218750J0D01*
G01*
X111365250Y-83424000D01*
G75*
G02*
X111584000Y-83642750I0J-218750D01*
G01*
X111584000Y-84080250D01*
G75*
G02*
X111365250Y-84299000I-218750J0D01*
G01*
G37*
%TD*%
%TO.C,C10*%
G36*
G01*
X156704250Y-62404000D02*
X156191750Y-62404000D01*
G75*
G02*
X155973000Y-62185250I0J218750D01*
G01*
X155973000Y-61747750D01*
G75*
G02*
X156191750Y-61529000I218750J0D01*
G01*
X156704250Y-61529000D01*
G75*
G02*
X156923000Y-61747750I0J-218750D01*
G01*
X156923000Y-62185250D01*
G75*
G02*
X156704250Y-62404000I-218750J0D01*
G01*
G37*
G36*
G01*
X156704250Y-63979000D02*
X156191750Y-63979000D01*
G75*
G02*
X155973000Y-63760250I0J218750D01*
G01*
X155973000Y-63322750D01*
G75*
G02*
X156191750Y-63104000I218750J0D01*
G01*
X156704250Y-63104000D01*
G75*
G02*
X156923000Y-63322750I0J-218750D01*
G01*
X156923000Y-63760250D01*
G75*
G02*
X156704250Y-63979000I-218750J0D01*
G01*
G37*
%TD*%
%TO.C,C9*%
G36*
G01*
X110852750Y-74788000D02*
X111365250Y-74788000D01*
G75*
G02*
X111584000Y-75006750I0J-218750D01*
G01*
X111584000Y-75444250D01*
G75*
G02*
X111365250Y-75663000I-218750J0D01*
G01*
X110852750Y-75663000D01*
G75*
G02*
X110634000Y-75444250I0J218750D01*
G01*
X110634000Y-75006750D01*
G75*
G02*
X110852750Y-74788000I218750J0D01*
G01*
G37*
G36*
G01*
X110852750Y-73213000D02*
X111365250Y-73213000D01*
G75*
G02*
X111584000Y-73431750I0J-218750D01*
G01*
X111584000Y-73869250D01*
G75*
G02*
X111365250Y-74088000I-218750J0D01*
G01*
X110852750Y-74088000D01*
G75*
G02*
X110634000Y-73869250I0J218750D01*
G01*
X110634000Y-73431750D01*
G75*
G02*
X110852750Y-73213000I218750J0D01*
G01*
G37*
%TD*%
%TO.C,C8*%
G36*
G01*
X156301200Y-59322750D02*
X156301200Y-59835250D01*
G75*
G02*
X156082450Y-60054000I-218750J0D01*
G01*
X155644950Y-60054000D01*
G75*
G02*
X155426200Y-59835250I0J218750D01*
G01*
X155426200Y-59322750D01*
G75*
G02*
X155644950Y-59104000I218750J0D01*
G01*
X156082450Y-59104000D01*
G75*
G02*
X156301200Y-59322750I0J-218750D01*
G01*
G37*
G36*
G01*
X157876200Y-59322750D02*
X157876200Y-59835250D01*
G75*
G02*
X157657450Y-60054000I-218750J0D01*
G01*
X157219950Y-60054000D01*
G75*
G02*
X157001200Y-59835250I0J218750D01*
G01*
X157001200Y-59322750D01*
G75*
G02*
X157219950Y-59104000I218750J0D01*
G01*
X157657450Y-59104000D01*
G75*
G02*
X157876200Y-59322750I0J-218750D01*
G01*
G37*
%TD*%
M02*
