%TF.GenerationSoftware,KiCad,Pcbnew,(5.1.6)-1*%
%TF.CreationDate,2020-09-09T14:21:18+02:00*%
%TF.ProjectId,TougherPowerMeter-FeatherWing,546f7567-6865-4725-906f-7765724d6574,rev?*%
%TF.SameCoordinates,Original*%
%TF.FileFunction,Soldermask,Bot*%
%TF.FilePolarity,Negative*%
%FSLAX46Y46*%
G04 Gerber Fmt 4.6, Leading zero omitted, Abs format (unit mm)*
G04 Created by KiCad (PCBNEW (5.1.6)-1) date 2020-09-09 14:21:18*
%MOMM*%
%LPD*%
G01*
G04 APERTURE LIST*
%ADD10C,4.500000*%
%ADD11O,1.700000X1.700000*%
%ADD12R,1.700000X1.700000*%
%ADD13R,2.400000X2.600000*%
%ADD14O,1.800000X1.800000*%
%ADD15R,1.800000X1.800000*%
%ADD16R,1.320000X0.750000*%
%ADD17R,3.500000X5.100000*%
%ADD18R,1.150000X0.550000*%
%ADD19R,2.080000X4.300000*%
%ADD20R,2.600000X2.400000*%
%ADD21C,0.900000*%
%ADD22C,6.500000*%
%ADD23R,2.200000X2.200000*%
%ADD24O,3.100000X3.700000*%
G04 APERTURE END LIST*
D10*
%TO.C,FID6*%
X201000000Y-64000000D03*
%TD*%
%TO.C,FID5*%
X99000000Y-93000000D03*
%TD*%
%TO.C,FID4*%
X99000000Y-64000000D03*
%TD*%
%TO.C,C23*%
G36*
G01*
X204933500Y-90651250D02*
X204933500Y-89688750D01*
G75*
G02*
X205202250Y-89420000I268750J0D01*
G01*
X205739750Y-89420000D01*
G75*
G02*
X206008500Y-89688750I0J-268750D01*
G01*
X206008500Y-90651250D01*
G75*
G02*
X205739750Y-90920000I-268750J0D01*
G01*
X205202250Y-90920000D01*
G75*
G02*
X204933500Y-90651250I0J268750D01*
G01*
G37*
G36*
G01*
X203058500Y-90651250D02*
X203058500Y-89688750D01*
G75*
G02*
X203327250Y-89420000I268750J0D01*
G01*
X203864750Y-89420000D01*
G75*
G02*
X204133500Y-89688750I0J-268750D01*
G01*
X204133500Y-90651250D01*
G75*
G02*
X203864750Y-90920000I-268750J0D01*
G01*
X203327250Y-90920000D01*
G75*
G02*
X203058500Y-90651250I0J268750D01*
G01*
G37*
%TD*%
%TO.C,C22*%
G36*
G01*
X199157000Y-92007500D02*
X199157000Y-93317500D01*
G75*
G02*
X198887000Y-93587500I-270000J0D01*
G01*
X198077000Y-93587500D01*
G75*
G02*
X197807000Y-93317500I0J270000D01*
G01*
X197807000Y-92007500D01*
G75*
G02*
X198077000Y-91737500I270000J0D01*
G01*
X198887000Y-91737500D01*
G75*
G02*
X199157000Y-92007500I0J-270000D01*
G01*
G37*
G36*
G01*
X201957000Y-92007500D02*
X201957000Y-93317500D01*
G75*
G02*
X201687000Y-93587500I-270000J0D01*
G01*
X200877000Y-93587500D01*
G75*
G02*
X200607000Y-93317500I0J270000D01*
G01*
X200607000Y-92007500D01*
G75*
G02*
X200877000Y-91737500I270000J0D01*
G01*
X201687000Y-91737500D01*
G75*
G02*
X201957000Y-92007500I0J-270000D01*
G01*
G37*
%TD*%
%TO.C,C21*%
G36*
G01*
X192541500Y-98732000D02*
X190331500Y-98732000D01*
G75*
G02*
X190061500Y-98462000I0J270000D01*
G01*
X190061500Y-97652000D01*
G75*
G02*
X190331500Y-97382000I270000J0D01*
G01*
X192541500Y-97382000D01*
G75*
G02*
X192811500Y-97652000I0J-270000D01*
G01*
X192811500Y-98462000D01*
G75*
G02*
X192541500Y-98732000I-270000J0D01*
G01*
G37*
G36*
G01*
X192541500Y-101532000D02*
X190331500Y-101532000D01*
G75*
G02*
X190061500Y-101262000I0J270000D01*
G01*
X190061500Y-100452000D01*
G75*
G02*
X190331500Y-100182000I270000J0D01*
G01*
X192541500Y-100182000D01*
G75*
G02*
X192811500Y-100452000I0J-270000D01*
G01*
X192811500Y-101262000D01*
G75*
G02*
X192541500Y-101532000I-270000J0D01*
G01*
G37*
%TD*%
%TO.C,C2*%
G36*
G01*
X196224500Y-98732000D02*
X194014500Y-98732000D01*
G75*
G02*
X193744500Y-98462000I0J270000D01*
G01*
X193744500Y-97652000D01*
G75*
G02*
X194014500Y-97382000I270000J0D01*
G01*
X196224500Y-97382000D01*
G75*
G02*
X196494500Y-97652000I0J-270000D01*
G01*
X196494500Y-98462000D01*
G75*
G02*
X196224500Y-98732000I-270000J0D01*
G01*
G37*
G36*
G01*
X196224500Y-101532000D02*
X194014500Y-101532000D01*
G75*
G02*
X193744500Y-101262000I0J270000D01*
G01*
X193744500Y-100452000D01*
G75*
G02*
X194014500Y-100182000I270000J0D01*
G01*
X196224500Y-100182000D01*
G75*
G02*
X196494500Y-100452000I0J-270000D01*
G01*
X196494500Y-101262000D01*
G75*
G02*
X196224500Y-101532000I-270000J0D01*
G01*
G37*
%TD*%
D11*
%TO.C,U3*%
X213217000Y-95266000D03*
X213217000Y-97806000D03*
X213217000Y-92726000D03*
X213217000Y-90186000D03*
X213217000Y-87646000D03*
X213217000Y-85106000D03*
X213217000Y-82566000D03*
X213217000Y-80026000D03*
X213217000Y-77486000D03*
X213217000Y-74946000D03*
X213217000Y-72406000D03*
X213217000Y-69866000D03*
X213217000Y-67326000D03*
X213217000Y-64786000D03*
X213217000Y-62246000D03*
X213217000Y-59706000D03*
X192897000Y-74946000D03*
X192897000Y-77486000D03*
X192897000Y-80026000D03*
X192897000Y-85106000D03*
X192897000Y-82566000D03*
X192897000Y-59706000D03*
X192897000Y-62246000D03*
X192897000Y-64786000D03*
X192897000Y-67326000D03*
X192897000Y-69866000D03*
X192897000Y-72406000D03*
X192897000Y-87646000D03*
%TD*%
%TO.C,A1*%
X210677000Y-95266000D03*
X195437000Y-95266000D03*
X210677000Y-59706000D03*
X195437000Y-92726000D03*
X210677000Y-62246000D03*
X195437000Y-90186000D03*
X210677000Y-64786000D03*
X195437000Y-87646000D03*
X210677000Y-67326000D03*
X195437000Y-85106000D03*
X210677000Y-69866000D03*
X195437000Y-82566000D03*
X210677000Y-72406000D03*
X195437000Y-80026000D03*
X210677000Y-74946000D03*
X195437000Y-77486000D03*
X210677000Y-77486000D03*
X195437000Y-74946000D03*
X210677000Y-80026000D03*
X195437000Y-72406000D03*
X210677000Y-82566000D03*
X195437000Y-69866000D03*
X210677000Y-85106000D03*
X195437000Y-67326000D03*
X210677000Y-87646000D03*
X195437000Y-64786000D03*
X210677000Y-90186000D03*
X195437000Y-62246000D03*
X210677000Y-92726000D03*
D12*
X195437000Y-59706000D03*
%TD*%
D13*
%TO.C,D8*%
X189214000Y-90957000D03*
X189214000Y-95257000D03*
%TD*%
%TO.C,R1*%
G36*
G01*
X187771000Y-60948750D02*
X187771000Y-61511250D01*
G75*
G02*
X187527250Y-61755000I-243750J0D01*
G01*
X187039750Y-61755000D01*
G75*
G02*
X186796000Y-61511250I0J243750D01*
G01*
X186796000Y-60948750D01*
G75*
G02*
X187039750Y-60705000I243750J0D01*
G01*
X187527250Y-60705000D01*
G75*
G02*
X187771000Y-60948750I0J-243750D01*
G01*
G37*
G36*
G01*
X189346000Y-60948750D02*
X189346000Y-61511250D01*
G75*
G02*
X189102250Y-61755000I-243750J0D01*
G01*
X188614750Y-61755000D01*
G75*
G02*
X188371000Y-61511250I0J243750D01*
G01*
X188371000Y-60948750D01*
G75*
G02*
X188614750Y-60705000I243750J0D01*
G01*
X189102250Y-60705000D01*
G75*
G02*
X189346000Y-60948750I0J-243750D01*
G01*
G37*
%TD*%
%TO.C,R26*%
G36*
G01*
X125633000Y-66845250D02*
X125633000Y-66282750D01*
G75*
G02*
X125876750Y-66039000I243750J0D01*
G01*
X126364250Y-66039000D01*
G75*
G02*
X126608000Y-66282750I0J-243750D01*
G01*
X126608000Y-66845250D01*
G75*
G02*
X126364250Y-67089000I-243750J0D01*
G01*
X125876750Y-67089000D01*
G75*
G02*
X125633000Y-66845250I0J243750D01*
G01*
G37*
G36*
G01*
X124058000Y-66845250D02*
X124058000Y-66282750D01*
G75*
G02*
X124301750Y-66039000I243750J0D01*
G01*
X124789250Y-66039000D01*
G75*
G02*
X125033000Y-66282750I0J-243750D01*
G01*
X125033000Y-66845250D01*
G75*
G02*
X124789250Y-67089000I-243750J0D01*
G01*
X124301750Y-67089000D01*
G75*
G02*
X124058000Y-66845250I0J243750D01*
G01*
G37*
%TD*%
%TO.C,R25*%
G36*
G01*
X125633000Y-64940250D02*
X125633000Y-64377750D01*
G75*
G02*
X125876750Y-64134000I243750J0D01*
G01*
X126364250Y-64134000D01*
G75*
G02*
X126608000Y-64377750I0J-243750D01*
G01*
X126608000Y-64940250D01*
G75*
G02*
X126364250Y-65184000I-243750J0D01*
G01*
X125876750Y-65184000D01*
G75*
G02*
X125633000Y-64940250I0J243750D01*
G01*
G37*
G36*
G01*
X124058000Y-64940250D02*
X124058000Y-64377750D01*
G75*
G02*
X124301750Y-64134000I243750J0D01*
G01*
X124789250Y-64134000D01*
G75*
G02*
X125033000Y-64377750I0J-243750D01*
G01*
X125033000Y-64940250D01*
G75*
G02*
X124789250Y-65184000I-243750J0D01*
G01*
X124301750Y-65184000D01*
G75*
G02*
X124058000Y-64940250I0J243750D01*
G01*
G37*
%TD*%
%TO.C,F1*%
G36*
G01*
X202214221Y-85361000D02*
X205169779Y-85361000D01*
G75*
G02*
X205442000Y-85633221I0J-272221D01*
G01*
X205442000Y-86313779D01*
G75*
G02*
X205169779Y-86586000I-272221J0D01*
G01*
X202214221Y-86586000D01*
G75*
G02*
X201942000Y-86313779I0J272221D01*
G01*
X201942000Y-85633221D01*
G75*
G02*
X202214221Y-85361000I272221J0D01*
G01*
G37*
G36*
G01*
X202214221Y-81086000D02*
X205169779Y-81086000D01*
G75*
G02*
X205442000Y-81358221I0J-272221D01*
G01*
X205442000Y-82038779D01*
G75*
G02*
X205169779Y-82311000I-272221J0D01*
G01*
X202214221Y-82311000D01*
G75*
G02*
X201942000Y-82038779I0J272221D01*
G01*
X201942000Y-81358221D01*
G75*
G02*
X202214221Y-81086000I272221J0D01*
G01*
G37*
%TD*%
%TO.C,C20*%
G36*
G01*
X120035250Y-75817500D02*
X120597750Y-75817500D01*
G75*
G02*
X120841500Y-76061250I0J-243750D01*
G01*
X120841500Y-76548750D01*
G75*
G02*
X120597750Y-76792500I-243750J0D01*
G01*
X120035250Y-76792500D01*
G75*
G02*
X119791500Y-76548750I0J243750D01*
G01*
X119791500Y-76061250D01*
G75*
G02*
X120035250Y-75817500I243750J0D01*
G01*
G37*
G36*
G01*
X120035250Y-74242500D02*
X120597750Y-74242500D01*
G75*
G02*
X120841500Y-74486250I0J-243750D01*
G01*
X120841500Y-74973750D01*
G75*
G02*
X120597750Y-75217500I-243750J0D01*
G01*
X120035250Y-75217500D01*
G75*
G02*
X119791500Y-74973750I0J243750D01*
G01*
X119791500Y-74486250D01*
G75*
G02*
X120035250Y-74242500I243750J0D01*
G01*
G37*
%TD*%
%TO.C,C19*%
G36*
G01*
X217962000Y-83355250D02*
X217962000Y-82792750D01*
G75*
G02*
X218205750Y-82549000I243750J0D01*
G01*
X218693250Y-82549000D01*
G75*
G02*
X218937000Y-82792750I0J-243750D01*
G01*
X218937000Y-83355250D01*
G75*
G02*
X218693250Y-83599000I-243750J0D01*
G01*
X218205750Y-83599000D01*
G75*
G02*
X217962000Y-83355250I0J243750D01*
G01*
G37*
G36*
G01*
X216387000Y-83355250D02*
X216387000Y-82792750D01*
G75*
G02*
X216630750Y-82549000I243750J0D01*
G01*
X217118250Y-82549000D01*
G75*
G02*
X217362000Y-82792750I0J-243750D01*
G01*
X217362000Y-83355250D01*
G75*
G02*
X217118250Y-83599000I-243750J0D01*
G01*
X216630750Y-83599000D01*
G75*
G02*
X216387000Y-83355250I0J243750D01*
G01*
G37*
%TD*%
%TO.C,C7*%
G36*
G01*
X120661250Y-63724000D02*
X120098750Y-63724000D01*
G75*
G02*
X119855000Y-63480250I0J243750D01*
G01*
X119855000Y-62992750D01*
G75*
G02*
X120098750Y-62749000I243750J0D01*
G01*
X120661250Y-62749000D01*
G75*
G02*
X120905000Y-62992750I0J-243750D01*
G01*
X120905000Y-63480250D01*
G75*
G02*
X120661250Y-63724000I-243750J0D01*
G01*
G37*
G36*
G01*
X120661250Y-65299000D02*
X120098750Y-65299000D01*
G75*
G02*
X119855000Y-65055250I0J243750D01*
G01*
X119855000Y-64567750D01*
G75*
G02*
X120098750Y-64324000I243750J0D01*
G01*
X120661250Y-64324000D01*
G75*
G02*
X120905000Y-64567750I0J-243750D01*
G01*
X120905000Y-65055250D01*
G75*
G02*
X120661250Y-65299000I-243750J0D01*
G01*
G37*
%TD*%
%TO.C,C6*%
G36*
G01*
X204917500Y-94794750D02*
X204917500Y-93832250D01*
G75*
G02*
X205186250Y-93563500I268750J0D01*
G01*
X205723750Y-93563500D01*
G75*
G02*
X205992500Y-93832250I0J-268750D01*
G01*
X205992500Y-94794750D01*
G75*
G02*
X205723750Y-95063500I-268750J0D01*
G01*
X205186250Y-95063500D01*
G75*
G02*
X204917500Y-94794750I0J268750D01*
G01*
G37*
G36*
G01*
X203042500Y-94794750D02*
X203042500Y-93832250D01*
G75*
G02*
X203311250Y-93563500I268750J0D01*
G01*
X203848750Y-93563500D01*
G75*
G02*
X204117500Y-93832250I0J-268750D01*
G01*
X204117500Y-94794750D01*
G75*
G02*
X203848750Y-95063500I-268750J0D01*
G01*
X203311250Y-95063500D01*
G75*
G02*
X203042500Y-94794750I0J268750D01*
G01*
G37*
%TD*%
%TO.C,C3*%
G36*
G01*
X199157000Y-94484000D02*
X199157000Y-95794000D01*
G75*
G02*
X198887000Y-96064000I-270000J0D01*
G01*
X198077000Y-96064000D01*
G75*
G02*
X197807000Y-95794000I0J270000D01*
G01*
X197807000Y-94484000D01*
G75*
G02*
X198077000Y-94214000I270000J0D01*
G01*
X198887000Y-94214000D01*
G75*
G02*
X199157000Y-94484000I0J-270000D01*
G01*
G37*
G36*
G01*
X201957000Y-94484000D02*
X201957000Y-95794000D01*
G75*
G02*
X201687000Y-96064000I-270000J0D01*
G01*
X200877000Y-96064000D01*
G75*
G02*
X200607000Y-95794000I0J270000D01*
G01*
X200607000Y-94484000D01*
G75*
G02*
X200877000Y-94214000I270000J0D01*
G01*
X201687000Y-94214000D01*
G75*
G02*
X201957000Y-94484000I0J-270000D01*
G01*
G37*
%TD*%
%TO.C,C1*%
G36*
G01*
X207783250Y-85060000D02*
X207220750Y-85060000D01*
G75*
G02*
X206977000Y-84816250I0J243750D01*
G01*
X206977000Y-84328750D01*
G75*
G02*
X207220750Y-84085000I243750J0D01*
G01*
X207783250Y-84085000D01*
G75*
G02*
X208027000Y-84328750I0J-243750D01*
G01*
X208027000Y-84816250D01*
G75*
G02*
X207783250Y-85060000I-243750J0D01*
G01*
G37*
G36*
G01*
X207783250Y-86635000D02*
X207220750Y-86635000D01*
G75*
G02*
X206977000Y-86391250I0J243750D01*
G01*
X206977000Y-85903750D01*
G75*
G02*
X207220750Y-85660000I243750J0D01*
G01*
X207783250Y-85660000D01*
G75*
G02*
X208027000Y-85903750I0J-243750D01*
G01*
X208027000Y-86391250D01*
G75*
G02*
X207783250Y-86635000I-243750J0D01*
G01*
G37*
%TD*%
D14*
%TO.C,J1*%
X180578000Y-77486000D03*
D15*
X180578000Y-80026000D03*
%TD*%
D16*
%TO.C,U1*%
X201153900Y-99352900D03*
X201153900Y-98402900D03*
X201153900Y-97452900D03*
X198533900Y-97452900D03*
X198533900Y-98402900D03*
X198533900Y-99352900D03*
%TD*%
D17*
%TO.C,U2*%
X117586000Y-69104000D03*
D18*
X114811000Y-66829000D03*
X114811000Y-67479000D03*
X114811000Y-68129000D03*
X114811000Y-68779000D03*
X114811000Y-69429000D03*
X114811000Y-70079000D03*
X114811000Y-70729000D03*
X114811000Y-71379000D03*
X120361000Y-71379000D03*
X120361000Y-70729000D03*
X120361000Y-70079000D03*
X120361000Y-69429000D03*
X120361000Y-68779000D03*
X120361000Y-68129000D03*
X120361000Y-67479000D03*
X120361000Y-66829000D03*
%TD*%
%TO.C,R7*%
G36*
G01*
X125633000Y-60495250D02*
X125633000Y-59932750D01*
G75*
G02*
X125876750Y-59689000I243750J0D01*
G01*
X126364250Y-59689000D01*
G75*
G02*
X126608000Y-59932750I0J-243750D01*
G01*
X126608000Y-60495250D01*
G75*
G02*
X126364250Y-60739000I-243750J0D01*
G01*
X125876750Y-60739000D01*
G75*
G02*
X125633000Y-60495250I0J243750D01*
G01*
G37*
G36*
G01*
X124058000Y-60495250D02*
X124058000Y-59932750D01*
G75*
G02*
X124301750Y-59689000I243750J0D01*
G01*
X124789250Y-59689000D01*
G75*
G02*
X125033000Y-59932750I0J-243750D01*
G01*
X125033000Y-60495250D01*
G75*
G02*
X124789250Y-60739000I-243750J0D01*
G01*
X124301750Y-60739000D01*
G75*
G02*
X124058000Y-60495250I0J243750D01*
G01*
G37*
%TD*%
%TO.C,R6*%
G36*
G01*
X125633000Y-62400250D02*
X125633000Y-61837750D01*
G75*
G02*
X125876750Y-61594000I243750J0D01*
G01*
X126364250Y-61594000D01*
G75*
G02*
X126608000Y-61837750I0J-243750D01*
G01*
X126608000Y-62400250D01*
G75*
G02*
X126364250Y-62644000I-243750J0D01*
G01*
X125876750Y-62644000D01*
G75*
G02*
X125633000Y-62400250I0J243750D01*
G01*
G37*
G36*
G01*
X124058000Y-62400250D02*
X124058000Y-61837750D01*
G75*
G02*
X124301750Y-61594000I243750J0D01*
G01*
X124789250Y-61594000D01*
G75*
G02*
X125033000Y-61837750I0J-243750D01*
G01*
X125033000Y-62400250D01*
G75*
G02*
X124789250Y-62644000I-243750J0D01*
G01*
X124301750Y-62644000D01*
G75*
G02*
X124058000Y-62400250I0J243750D01*
G01*
G37*
%TD*%
%TO.C,R5*%
G36*
G01*
X217962000Y-85387250D02*
X217962000Y-84824750D01*
G75*
G02*
X218205750Y-84581000I243750J0D01*
G01*
X218693250Y-84581000D01*
G75*
G02*
X218937000Y-84824750I0J-243750D01*
G01*
X218937000Y-85387250D01*
G75*
G02*
X218693250Y-85631000I-243750J0D01*
G01*
X218205750Y-85631000D01*
G75*
G02*
X217962000Y-85387250I0J243750D01*
G01*
G37*
G36*
G01*
X216387000Y-85387250D02*
X216387000Y-84824750D01*
G75*
G02*
X216630750Y-84581000I243750J0D01*
G01*
X217118250Y-84581000D01*
G75*
G02*
X217362000Y-84824750I0J-243750D01*
G01*
X217362000Y-85387250D01*
G75*
G02*
X217118250Y-85631000I-243750J0D01*
G01*
X216630750Y-85631000D01*
G75*
G02*
X216387000Y-85387250I0J243750D01*
G01*
G37*
%TD*%
%TO.C,R4*%
G36*
G01*
X125633000Y-68750250D02*
X125633000Y-68187750D01*
G75*
G02*
X125876750Y-67944000I243750J0D01*
G01*
X126364250Y-67944000D01*
G75*
G02*
X126608000Y-68187750I0J-243750D01*
G01*
X126608000Y-68750250D01*
G75*
G02*
X126364250Y-68994000I-243750J0D01*
G01*
X125876750Y-68994000D01*
G75*
G02*
X125633000Y-68750250I0J243750D01*
G01*
G37*
G36*
G01*
X124058000Y-68750250D02*
X124058000Y-68187750D01*
G75*
G02*
X124301750Y-67944000I243750J0D01*
G01*
X124789250Y-67944000D01*
G75*
G02*
X125033000Y-68187750I0J-243750D01*
G01*
X125033000Y-68750250D01*
G75*
G02*
X124789250Y-68994000I-243750J0D01*
G01*
X124301750Y-68994000D01*
G75*
G02*
X124058000Y-68750250I0J243750D01*
G01*
G37*
%TD*%
%TO.C,R3*%
G36*
G01*
X217962000Y-87419250D02*
X217962000Y-86856750D01*
G75*
G02*
X218205750Y-86613000I243750J0D01*
G01*
X218693250Y-86613000D01*
G75*
G02*
X218937000Y-86856750I0J-243750D01*
G01*
X218937000Y-87419250D01*
G75*
G02*
X218693250Y-87663000I-243750J0D01*
G01*
X218205750Y-87663000D01*
G75*
G02*
X217962000Y-87419250I0J243750D01*
G01*
G37*
G36*
G01*
X216387000Y-87419250D02*
X216387000Y-86856750D01*
G75*
G02*
X216630750Y-86613000I243750J0D01*
G01*
X217118250Y-86613000D01*
G75*
G02*
X217362000Y-86856750I0J-243750D01*
G01*
X217362000Y-87419250D01*
G75*
G02*
X217118250Y-87663000I-243750J0D01*
G01*
X216630750Y-87663000D01*
G75*
G02*
X216387000Y-87419250I0J243750D01*
G01*
G37*
%TD*%
%TO.C,R2*%
G36*
G01*
X187771000Y-58789750D02*
X187771000Y-59352250D01*
G75*
G02*
X187527250Y-59596000I-243750J0D01*
G01*
X187039750Y-59596000D01*
G75*
G02*
X186796000Y-59352250I0J243750D01*
G01*
X186796000Y-58789750D01*
G75*
G02*
X187039750Y-58546000I243750J0D01*
G01*
X187527250Y-58546000D01*
G75*
G02*
X187771000Y-58789750I0J-243750D01*
G01*
G37*
G36*
G01*
X189346000Y-58789750D02*
X189346000Y-59352250D01*
G75*
G02*
X189102250Y-59596000I-243750J0D01*
G01*
X188614750Y-59596000D01*
G75*
G02*
X188371000Y-59352250I0J243750D01*
G01*
X188371000Y-58789750D01*
G75*
G02*
X188614750Y-58546000I243750J0D01*
G01*
X189102250Y-58546000D01*
G75*
G02*
X189346000Y-58789750I0J-243750D01*
G01*
G37*
%TD*%
D19*
%TO.C,L1*%
X207133900Y-98402900D03*
X203983900Y-98402900D03*
%TD*%
D20*
%TO.C,D1*%
X183553500Y-88725500D03*
X179253500Y-88725500D03*
%TD*%
%TO.C,C5*%
G36*
G01*
X204917500Y-92699250D02*
X204917500Y-91736750D01*
G75*
G02*
X205186250Y-91468000I268750J0D01*
G01*
X205723750Y-91468000D01*
G75*
G02*
X205992500Y-91736750I0J-268750D01*
G01*
X205992500Y-92699250D01*
G75*
G02*
X205723750Y-92968000I-268750J0D01*
G01*
X205186250Y-92968000D01*
G75*
G02*
X204917500Y-92699250I0J268750D01*
G01*
G37*
G36*
G01*
X203042500Y-92699250D02*
X203042500Y-91736750D01*
G75*
G02*
X203311250Y-91468000I268750J0D01*
G01*
X203848750Y-91468000D01*
G75*
G02*
X204117500Y-91736750I0J-268750D01*
G01*
X204117500Y-92699250D01*
G75*
G02*
X203848750Y-92968000I-268750J0D01*
G01*
X203311250Y-92968000D01*
G75*
G02*
X203042500Y-92699250I0J268750D01*
G01*
G37*
%TD*%
%TO.C,C4*%
G36*
G01*
X200242400Y-101182350D02*
X200242400Y-101744850D01*
G75*
G02*
X199998650Y-101988600I-243750J0D01*
G01*
X199511150Y-101988600D01*
G75*
G02*
X199267400Y-101744850I0J243750D01*
G01*
X199267400Y-101182350D01*
G75*
G02*
X199511150Y-100938600I243750J0D01*
G01*
X199998650Y-100938600D01*
G75*
G02*
X200242400Y-101182350I0J-243750D01*
G01*
G37*
G36*
G01*
X201817400Y-101182350D02*
X201817400Y-101744850D01*
G75*
G02*
X201573650Y-101988600I-243750J0D01*
G01*
X201086150Y-101988600D01*
G75*
G02*
X200842400Y-101744850I0J243750D01*
G01*
X200842400Y-101182350D01*
G75*
G02*
X201086150Y-100938600I243750J0D01*
G01*
X201573650Y-100938600D01*
G75*
G02*
X201817400Y-101182350I0J-243750D01*
G01*
G37*
%TD*%
%TO.C,C18*%
G36*
G01*
X156351200Y-57468950D02*
X156351200Y-58031450D01*
G75*
G02*
X156107450Y-58275200I-243750J0D01*
G01*
X155619950Y-58275200D01*
G75*
G02*
X155376200Y-58031450I0J243750D01*
G01*
X155376200Y-57468950D01*
G75*
G02*
X155619950Y-57225200I243750J0D01*
G01*
X156107450Y-57225200D01*
G75*
G02*
X156351200Y-57468950I0J-243750D01*
G01*
G37*
G36*
G01*
X157926200Y-57468950D02*
X157926200Y-58031450D01*
G75*
G02*
X157682450Y-58275200I-243750J0D01*
G01*
X157194950Y-58275200D01*
G75*
G02*
X156951200Y-58031450I0J243750D01*
G01*
X156951200Y-57468950D01*
G75*
G02*
X157194950Y-57225200I243750J0D01*
G01*
X157682450Y-57225200D01*
G75*
G02*
X157926200Y-57468950I0J-243750D01*
G01*
G37*
%TD*%
%TO.C,R17*%
G36*
G01*
X113335518Y-80931000D02*
X116248482Y-80931000D01*
G75*
G02*
X116517000Y-81199518I0J-268518D01*
G01*
X116517000Y-82112482D01*
G75*
G02*
X116248482Y-82381000I-268518J0D01*
G01*
X113335518Y-82381000D01*
G75*
G02*
X113067000Y-82112482I0J268518D01*
G01*
X113067000Y-81199518D01*
G75*
G02*
X113335518Y-80931000I268518J0D01*
G01*
G37*
G36*
G01*
X113335518Y-75131000D02*
X116248482Y-75131000D01*
G75*
G02*
X116517000Y-75399518I0J-268518D01*
G01*
X116517000Y-76312482D01*
G75*
G02*
X116248482Y-76581000I-268518J0D01*
G01*
X113335518Y-76581000D01*
G75*
G02*
X113067000Y-76312482I0J268518D01*
G01*
X113067000Y-75399518D01*
G75*
G02*
X113335518Y-75131000I268518J0D01*
G01*
G37*
%TD*%
D21*
%TO.C,H4*%
X221447056Y-102947056D03*
X222150000Y-101250000D03*
X221447056Y-99552944D03*
X219750000Y-98850000D03*
X218052944Y-99552944D03*
X217350000Y-101250000D03*
X218052944Y-102947056D03*
X219750000Y-103650000D03*
D22*
X219750000Y-101250000D03*
%TD*%
D21*
%TO.C,H3*%
X99447056Y-102947056D03*
X100150000Y-101250000D03*
X99447056Y-99552944D03*
X97750000Y-98850000D03*
X96052944Y-99552944D03*
X95350000Y-101250000D03*
X96052944Y-102947056D03*
X97750000Y-103650000D03*
D22*
X97750000Y-101250000D03*
%TD*%
D21*
%TO.C,H2*%
X221447056Y-57947056D03*
X222150000Y-56250000D03*
X221447056Y-54552944D03*
X219750000Y-53850000D03*
X218052944Y-54552944D03*
X217350000Y-56250000D03*
X218052944Y-57947056D03*
X219750000Y-58650000D03*
D22*
X219750000Y-56250000D03*
%TD*%
D21*
%TO.C,H1*%
X99447056Y-57947056D03*
X100150000Y-56250000D03*
X99447056Y-54552944D03*
X97750000Y-53850000D03*
X96052944Y-54552944D03*
X95350000Y-56250000D03*
X96052944Y-57947056D03*
X97750000Y-58650000D03*
D22*
X97750000Y-56250000D03*
%TD*%
D23*
%TO.C,U4*%
X161274000Y-62119000D03*
G36*
G01*
X160074000Y-64431500D02*
X160074000Y-63531500D01*
G75*
G02*
X160186500Y-63419000I112500J0D01*
G01*
X160411500Y-63419000D01*
G75*
G02*
X160524000Y-63531500I0J-112500D01*
G01*
X160524000Y-64431500D01*
G75*
G02*
X160411500Y-64544000I-112500J0D01*
G01*
X160186500Y-64544000D01*
G75*
G02*
X160074000Y-64431500I0J112500D01*
G01*
G37*
G36*
G01*
X160724000Y-64431500D02*
X160724000Y-63531500D01*
G75*
G02*
X160836500Y-63419000I112500J0D01*
G01*
X161061500Y-63419000D01*
G75*
G02*
X161174000Y-63531500I0J-112500D01*
G01*
X161174000Y-64431500D01*
G75*
G02*
X161061500Y-64544000I-112500J0D01*
G01*
X160836500Y-64544000D01*
G75*
G02*
X160724000Y-64431500I0J112500D01*
G01*
G37*
G36*
G01*
X161374000Y-64431500D02*
X161374000Y-63531500D01*
G75*
G02*
X161486500Y-63419000I112500J0D01*
G01*
X161711500Y-63419000D01*
G75*
G02*
X161824000Y-63531500I0J-112500D01*
G01*
X161824000Y-64431500D01*
G75*
G02*
X161711500Y-64544000I-112500J0D01*
G01*
X161486500Y-64544000D01*
G75*
G02*
X161374000Y-64431500I0J112500D01*
G01*
G37*
G36*
G01*
X162024000Y-64431500D02*
X162024000Y-63531500D01*
G75*
G02*
X162136500Y-63419000I112500J0D01*
G01*
X162361500Y-63419000D01*
G75*
G02*
X162474000Y-63531500I0J-112500D01*
G01*
X162474000Y-64431500D01*
G75*
G02*
X162361500Y-64544000I-112500J0D01*
G01*
X162136500Y-64544000D01*
G75*
G02*
X162024000Y-64431500I0J112500D01*
G01*
G37*
G36*
G01*
X162574000Y-63206500D02*
X162574000Y-62981500D01*
G75*
G02*
X162686500Y-62869000I112500J0D01*
G01*
X163586500Y-62869000D01*
G75*
G02*
X163699000Y-62981500I0J-112500D01*
G01*
X163699000Y-63206500D01*
G75*
G02*
X163586500Y-63319000I-112500J0D01*
G01*
X162686500Y-63319000D01*
G75*
G02*
X162574000Y-63206500I0J112500D01*
G01*
G37*
G36*
G01*
X162574000Y-62556500D02*
X162574000Y-62331500D01*
G75*
G02*
X162686500Y-62219000I112500J0D01*
G01*
X163586500Y-62219000D01*
G75*
G02*
X163699000Y-62331500I0J-112500D01*
G01*
X163699000Y-62556500D01*
G75*
G02*
X163586500Y-62669000I-112500J0D01*
G01*
X162686500Y-62669000D01*
G75*
G02*
X162574000Y-62556500I0J112500D01*
G01*
G37*
G36*
G01*
X162574000Y-61906500D02*
X162574000Y-61681500D01*
G75*
G02*
X162686500Y-61569000I112500J0D01*
G01*
X163586500Y-61569000D01*
G75*
G02*
X163699000Y-61681500I0J-112500D01*
G01*
X163699000Y-61906500D01*
G75*
G02*
X163586500Y-62019000I-112500J0D01*
G01*
X162686500Y-62019000D01*
G75*
G02*
X162574000Y-61906500I0J112500D01*
G01*
G37*
G36*
G01*
X162574000Y-61256500D02*
X162574000Y-61031500D01*
G75*
G02*
X162686500Y-60919000I112500J0D01*
G01*
X163586500Y-60919000D01*
G75*
G02*
X163699000Y-61031500I0J-112500D01*
G01*
X163699000Y-61256500D01*
G75*
G02*
X163586500Y-61369000I-112500J0D01*
G01*
X162686500Y-61369000D01*
G75*
G02*
X162574000Y-61256500I0J112500D01*
G01*
G37*
G36*
G01*
X162024000Y-60706500D02*
X162024000Y-59806500D01*
G75*
G02*
X162136500Y-59694000I112500J0D01*
G01*
X162361500Y-59694000D01*
G75*
G02*
X162474000Y-59806500I0J-112500D01*
G01*
X162474000Y-60706500D01*
G75*
G02*
X162361500Y-60819000I-112500J0D01*
G01*
X162136500Y-60819000D01*
G75*
G02*
X162024000Y-60706500I0J112500D01*
G01*
G37*
G36*
G01*
X161374000Y-60706500D02*
X161374000Y-59806500D01*
G75*
G02*
X161486500Y-59694000I112500J0D01*
G01*
X161711500Y-59694000D01*
G75*
G02*
X161824000Y-59806500I0J-112500D01*
G01*
X161824000Y-60706500D01*
G75*
G02*
X161711500Y-60819000I-112500J0D01*
G01*
X161486500Y-60819000D01*
G75*
G02*
X161374000Y-60706500I0J112500D01*
G01*
G37*
G36*
G01*
X160724000Y-60706500D02*
X160724000Y-59806500D01*
G75*
G02*
X160836500Y-59694000I112500J0D01*
G01*
X161061500Y-59694000D01*
G75*
G02*
X161174000Y-59806500I0J-112500D01*
G01*
X161174000Y-60706500D01*
G75*
G02*
X161061500Y-60819000I-112500J0D01*
G01*
X160836500Y-60819000D01*
G75*
G02*
X160724000Y-60706500I0J112500D01*
G01*
G37*
G36*
G01*
X160074000Y-60706500D02*
X160074000Y-59806500D01*
G75*
G02*
X160186500Y-59694000I112500J0D01*
G01*
X160411500Y-59694000D01*
G75*
G02*
X160524000Y-59806500I0J-112500D01*
G01*
X160524000Y-60706500D01*
G75*
G02*
X160411500Y-60819000I-112500J0D01*
G01*
X160186500Y-60819000D01*
G75*
G02*
X160074000Y-60706500I0J112500D01*
G01*
G37*
G36*
G01*
X158849000Y-61256500D02*
X158849000Y-61031500D01*
G75*
G02*
X158961500Y-60919000I112500J0D01*
G01*
X159861500Y-60919000D01*
G75*
G02*
X159974000Y-61031500I0J-112500D01*
G01*
X159974000Y-61256500D01*
G75*
G02*
X159861500Y-61369000I-112500J0D01*
G01*
X158961500Y-61369000D01*
G75*
G02*
X158849000Y-61256500I0J112500D01*
G01*
G37*
G36*
G01*
X158849000Y-61906500D02*
X158849000Y-61681500D01*
G75*
G02*
X158961500Y-61569000I112500J0D01*
G01*
X159861500Y-61569000D01*
G75*
G02*
X159974000Y-61681500I0J-112500D01*
G01*
X159974000Y-61906500D01*
G75*
G02*
X159861500Y-62019000I-112500J0D01*
G01*
X158961500Y-62019000D01*
G75*
G02*
X158849000Y-61906500I0J112500D01*
G01*
G37*
G36*
G01*
X158849000Y-62556500D02*
X158849000Y-62331500D01*
G75*
G02*
X158961500Y-62219000I112500J0D01*
G01*
X159861500Y-62219000D01*
G75*
G02*
X159974000Y-62331500I0J-112500D01*
G01*
X159974000Y-62556500D01*
G75*
G02*
X159861500Y-62669000I-112500J0D01*
G01*
X158961500Y-62669000D01*
G75*
G02*
X158849000Y-62556500I0J112500D01*
G01*
G37*
G36*
G01*
X158849000Y-63206500D02*
X158849000Y-62981500D01*
G75*
G02*
X158961500Y-62869000I112500J0D01*
G01*
X159861500Y-62869000D01*
G75*
G02*
X159974000Y-62981500I0J-112500D01*
G01*
X159974000Y-63206500D01*
G75*
G02*
X159861500Y-63319000I-112500J0D01*
G01*
X158961500Y-63319000D01*
G75*
G02*
X158849000Y-63206500I0J112500D01*
G01*
G37*
%TD*%
%TO.C,R24*%
G36*
G01*
X169737000Y-79490750D02*
X169737000Y-80053250D01*
G75*
G02*
X169493250Y-80297000I-243750J0D01*
G01*
X169005750Y-80297000D01*
G75*
G02*
X168762000Y-80053250I0J243750D01*
G01*
X168762000Y-79490750D01*
G75*
G02*
X169005750Y-79247000I243750J0D01*
G01*
X169493250Y-79247000D01*
G75*
G02*
X169737000Y-79490750I0J-243750D01*
G01*
G37*
G36*
G01*
X171312000Y-79490750D02*
X171312000Y-80053250D01*
G75*
G02*
X171068250Y-80297000I-243750J0D01*
G01*
X170580750Y-80297000D01*
G75*
G02*
X170337000Y-80053250I0J243750D01*
G01*
X170337000Y-79490750D01*
G75*
G02*
X170580750Y-79247000I243750J0D01*
G01*
X171068250Y-79247000D01*
G75*
G02*
X171312000Y-79490750I0J-243750D01*
G01*
G37*
%TD*%
%TO.C,R23*%
G36*
G01*
X173025518Y-80931000D02*
X175938482Y-80931000D01*
G75*
G02*
X176207000Y-81199518I0J-268518D01*
G01*
X176207000Y-82112482D01*
G75*
G02*
X175938482Y-82381000I-268518J0D01*
G01*
X173025518Y-82381000D01*
G75*
G02*
X172757000Y-82112482I0J268518D01*
G01*
X172757000Y-81199518D01*
G75*
G02*
X173025518Y-80931000I268518J0D01*
G01*
G37*
G36*
G01*
X173025518Y-75131000D02*
X175938482Y-75131000D01*
G75*
G02*
X176207000Y-75399518I0J-268518D01*
G01*
X176207000Y-76312482D01*
G75*
G02*
X175938482Y-76581000I-268518J0D01*
G01*
X173025518Y-76581000D01*
G75*
G02*
X172757000Y-76312482I0J268518D01*
G01*
X172757000Y-75399518D01*
G75*
G02*
X173025518Y-75131000I268518J0D01*
G01*
G37*
%TD*%
%TO.C,R22*%
G36*
G01*
X169737000Y-77458750D02*
X169737000Y-78021250D01*
G75*
G02*
X169493250Y-78265000I-243750J0D01*
G01*
X169005750Y-78265000D01*
G75*
G02*
X168762000Y-78021250I0J243750D01*
G01*
X168762000Y-77458750D01*
G75*
G02*
X169005750Y-77215000I243750J0D01*
G01*
X169493250Y-77215000D01*
G75*
G02*
X169737000Y-77458750I0J-243750D01*
G01*
G37*
G36*
G01*
X171312000Y-77458750D02*
X171312000Y-78021250D01*
G75*
G02*
X171068250Y-78265000I-243750J0D01*
G01*
X170580750Y-78265000D01*
G75*
G02*
X170337000Y-78021250I0J243750D01*
G01*
X170337000Y-77458750D01*
G75*
G02*
X170580750Y-77215000I243750J0D01*
G01*
X171068250Y-77215000D01*
G75*
G02*
X171312000Y-77458750I0J-243750D01*
G01*
G37*
%TD*%
%TO.C,R21*%
G36*
G01*
X139892000Y-79490750D02*
X139892000Y-80053250D01*
G75*
G02*
X139648250Y-80297000I-243750J0D01*
G01*
X139160750Y-80297000D01*
G75*
G02*
X138917000Y-80053250I0J243750D01*
G01*
X138917000Y-79490750D01*
G75*
G02*
X139160750Y-79247000I243750J0D01*
G01*
X139648250Y-79247000D01*
G75*
G02*
X139892000Y-79490750I0J-243750D01*
G01*
G37*
G36*
G01*
X141467000Y-79490750D02*
X141467000Y-80053250D01*
G75*
G02*
X141223250Y-80297000I-243750J0D01*
G01*
X140735750Y-80297000D01*
G75*
G02*
X140492000Y-80053250I0J243750D01*
G01*
X140492000Y-79490750D01*
G75*
G02*
X140735750Y-79247000I243750J0D01*
G01*
X141223250Y-79247000D01*
G75*
G02*
X141467000Y-79490750I0J-243750D01*
G01*
G37*
%TD*%
%TO.C,R20*%
G36*
G01*
X143180518Y-80931000D02*
X146093482Y-80931000D01*
G75*
G02*
X146362000Y-81199518I0J-268518D01*
G01*
X146362000Y-82112482D01*
G75*
G02*
X146093482Y-82381000I-268518J0D01*
G01*
X143180518Y-82381000D01*
G75*
G02*
X142912000Y-82112482I0J268518D01*
G01*
X142912000Y-81199518D01*
G75*
G02*
X143180518Y-80931000I268518J0D01*
G01*
G37*
G36*
G01*
X143180518Y-75131000D02*
X146093482Y-75131000D01*
G75*
G02*
X146362000Y-75399518I0J-268518D01*
G01*
X146362000Y-76312482D01*
G75*
G02*
X146093482Y-76581000I-268518J0D01*
G01*
X143180518Y-76581000D01*
G75*
G02*
X142912000Y-76312482I0J268518D01*
G01*
X142912000Y-75399518D01*
G75*
G02*
X143180518Y-75131000I268518J0D01*
G01*
G37*
%TD*%
%TO.C,R19*%
G36*
G01*
X139892000Y-77458750D02*
X139892000Y-78021250D01*
G75*
G02*
X139648250Y-78265000I-243750J0D01*
G01*
X139160750Y-78265000D01*
G75*
G02*
X138917000Y-78021250I0J243750D01*
G01*
X138917000Y-77458750D01*
G75*
G02*
X139160750Y-77215000I243750J0D01*
G01*
X139648250Y-77215000D01*
G75*
G02*
X139892000Y-77458750I0J-243750D01*
G01*
G37*
G36*
G01*
X141467000Y-77458750D02*
X141467000Y-78021250D01*
G75*
G02*
X141223250Y-78265000I-243750J0D01*
G01*
X140735750Y-78265000D01*
G75*
G02*
X140492000Y-78021250I0J243750D01*
G01*
X140492000Y-77458750D01*
G75*
G02*
X140735750Y-77215000I243750J0D01*
G01*
X141223250Y-77215000D01*
G75*
G02*
X141467000Y-77458750I0J-243750D01*
G01*
G37*
%TD*%
%TO.C,R16*%
G36*
G01*
X110047000Y-77458750D02*
X110047000Y-78021250D01*
G75*
G02*
X109803250Y-78265000I-243750J0D01*
G01*
X109315750Y-78265000D01*
G75*
G02*
X109072000Y-78021250I0J243750D01*
G01*
X109072000Y-77458750D01*
G75*
G02*
X109315750Y-77215000I243750J0D01*
G01*
X109803250Y-77215000D01*
G75*
G02*
X110047000Y-77458750I0J-243750D01*
G01*
G37*
G36*
G01*
X111622000Y-77458750D02*
X111622000Y-78021250D01*
G75*
G02*
X111378250Y-78265000I-243750J0D01*
G01*
X110890750Y-78265000D01*
G75*
G02*
X110647000Y-78021250I0J243750D01*
G01*
X110647000Y-77458750D01*
G75*
G02*
X110890750Y-77215000I243750J0D01*
G01*
X111378250Y-77215000D01*
G75*
G02*
X111622000Y-77458750I0J-243750D01*
G01*
G37*
%TD*%
%TO.C,R13*%
G36*
G01*
X156656000Y-81014750D02*
X156656000Y-81577250D01*
G75*
G02*
X156412250Y-81821000I-243750J0D01*
G01*
X155924750Y-81821000D01*
G75*
G02*
X155681000Y-81577250I0J243750D01*
G01*
X155681000Y-81014750D01*
G75*
G02*
X155924750Y-80771000I243750J0D01*
G01*
X156412250Y-80771000D01*
G75*
G02*
X156656000Y-81014750I0J-243750D01*
G01*
G37*
G36*
G01*
X158231000Y-81014750D02*
X158231000Y-81577250D01*
G75*
G02*
X157987250Y-81821000I-243750J0D01*
G01*
X157499750Y-81821000D01*
G75*
G02*
X157256000Y-81577250I0J243750D01*
G01*
X157256000Y-81014750D01*
G75*
G02*
X157499750Y-80771000I243750J0D01*
G01*
X157987250Y-80771000D01*
G75*
G02*
X158231000Y-81014750I0J-243750D01*
G01*
G37*
%TD*%
D14*
%TO.C,J11*%
X153781000Y-81232500D03*
X153781000Y-78692500D03*
D15*
X153781000Y-76152500D03*
%TD*%
D24*
%TO.C,J10*%
X110982000Y-93996000D03*
X105902000Y-93996000D03*
%TD*%
D20*
%TO.C,D7*%
X163442000Y-83836000D03*
X167742000Y-83836000D03*
%TD*%
D24*
%TO.C,J9*%
X154162000Y-93996000D03*
X149082000Y-93996000D03*
%TD*%
%TO.C,J8*%
X184007000Y-93996000D03*
X178927000Y-93996000D03*
%TD*%
%TO.C,J7*%
X124317000Y-93996000D03*
X119237000Y-93996000D03*
%TD*%
%TO.C,J6*%
X140827000Y-93996000D03*
X135747000Y-93996000D03*
%TD*%
%TO.C,J5*%
X170672000Y-93996000D03*
X165592000Y-93996000D03*
%TD*%
%TO.C,J4*%
X112506000Y-63516000D03*
X117586000Y-63516000D03*
%TD*%
%TO.C,J3*%
X142351000Y-63516000D03*
X147431000Y-63516000D03*
%TD*%
%TO.C,J2*%
X172196000Y-63516000D03*
X177276000Y-63516000D03*
%TD*%
%TO.C,R18*%
G36*
G01*
X110047000Y-79490750D02*
X110047000Y-80053250D01*
G75*
G02*
X109803250Y-80297000I-243750J0D01*
G01*
X109315750Y-80297000D01*
G75*
G02*
X109072000Y-80053250I0J243750D01*
G01*
X109072000Y-79490750D01*
G75*
G02*
X109315750Y-79247000I243750J0D01*
G01*
X109803250Y-79247000D01*
G75*
G02*
X110047000Y-79490750I0J-243750D01*
G01*
G37*
G36*
G01*
X111622000Y-79490750D02*
X111622000Y-80053250D01*
G75*
G02*
X111378250Y-80297000I-243750J0D01*
G01*
X110890750Y-80297000D01*
G75*
G02*
X110647000Y-80053250I0J243750D01*
G01*
X110647000Y-79490750D01*
G75*
G02*
X110890750Y-79247000I243750J0D01*
G01*
X111378250Y-79247000D01*
G75*
G02*
X111622000Y-79490750I0J-243750D01*
G01*
G37*
%TD*%
%TO.C,R15*%
G36*
G01*
X200217000Y-67806750D02*
X200217000Y-68369250D01*
G75*
G02*
X199973250Y-68613000I-243750J0D01*
G01*
X199485750Y-68613000D01*
G75*
G02*
X199242000Y-68369250I0J243750D01*
G01*
X199242000Y-67806750D01*
G75*
G02*
X199485750Y-67563000I243750J0D01*
G01*
X199973250Y-67563000D01*
G75*
G02*
X200217000Y-67806750I0J-243750D01*
G01*
G37*
G36*
G01*
X201792000Y-67806750D02*
X201792000Y-68369250D01*
G75*
G02*
X201548250Y-68613000I-243750J0D01*
G01*
X201060750Y-68613000D01*
G75*
G02*
X200817000Y-68369250I0J243750D01*
G01*
X200817000Y-67806750D01*
G75*
G02*
X201060750Y-67563000I243750J0D01*
G01*
X201548250Y-67563000D01*
G75*
G02*
X201792000Y-67806750I0J-243750D01*
G01*
G37*
%TD*%
%TO.C,R14*%
G36*
G01*
X157256000Y-76497250D02*
X157256000Y-75934750D01*
G75*
G02*
X157499750Y-75691000I243750J0D01*
G01*
X157987250Y-75691000D01*
G75*
G02*
X158231000Y-75934750I0J-243750D01*
G01*
X158231000Y-76497250D01*
G75*
G02*
X157987250Y-76741000I-243750J0D01*
G01*
X157499750Y-76741000D01*
G75*
G02*
X157256000Y-76497250I0J243750D01*
G01*
G37*
G36*
G01*
X155681000Y-76497250D02*
X155681000Y-75934750D01*
G75*
G02*
X155924750Y-75691000I243750J0D01*
G01*
X156412250Y-75691000D01*
G75*
G02*
X156656000Y-75934750I0J-243750D01*
G01*
X156656000Y-76497250D01*
G75*
G02*
X156412250Y-76741000I-243750J0D01*
G01*
X155924750Y-76741000D01*
G75*
G02*
X155681000Y-76497250I0J243750D01*
G01*
G37*
%TD*%
%TO.C,R12*%
G36*
G01*
X200217000Y-69711750D02*
X200217000Y-70274250D01*
G75*
G02*
X199973250Y-70518000I-243750J0D01*
G01*
X199485750Y-70518000D01*
G75*
G02*
X199242000Y-70274250I0J243750D01*
G01*
X199242000Y-69711750D01*
G75*
G02*
X199485750Y-69468000I243750J0D01*
G01*
X199973250Y-69468000D01*
G75*
G02*
X200217000Y-69711750I0J-243750D01*
G01*
G37*
G36*
G01*
X201792000Y-69711750D02*
X201792000Y-70274250D01*
G75*
G02*
X201548250Y-70518000I-243750J0D01*
G01*
X201060750Y-70518000D01*
G75*
G02*
X200817000Y-70274250I0J243750D01*
G01*
X200817000Y-69711750D01*
G75*
G02*
X201060750Y-69468000I243750J0D01*
G01*
X201548250Y-69468000D01*
G75*
G02*
X201792000Y-69711750I0J-243750D01*
G01*
G37*
%TD*%
%TO.C,R11*%
G36*
G01*
X200217000Y-71616750D02*
X200217000Y-72179250D01*
G75*
G02*
X199973250Y-72423000I-243750J0D01*
G01*
X199485750Y-72423000D01*
G75*
G02*
X199242000Y-72179250I0J243750D01*
G01*
X199242000Y-71616750D01*
G75*
G02*
X199485750Y-71373000I243750J0D01*
G01*
X199973250Y-71373000D01*
G75*
G02*
X200217000Y-71616750I0J-243750D01*
G01*
G37*
G36*
G01*
X201792000Y-71616750D02*
X201792000Y-72179250D01*
G75*
G02*
X201548250Y-72423000I-243750J0D01*
G01*
X201060750Y-72423000D01*
G75*
G02*
X200817000Y-72179250I0J243750D01*
G01*
X200817000Y-71616750D01*
G75*
G02*
X201060750Y-71373000I243750J0D01*
G01*
X201548250Y-71373000D01*
G75*
G02*
X201792000Y-71616750I0J-243750D01*
G01*
G37*
%TD*%
%TO.C,R10*%
G36*
G01*
X187771000Y-56630750D02*
X187771000Y-57193250D01*
G75*
G02*
X187527250Y-57437000I-243750J0D01*
G01*
X187039750Y-57437000D01*
G75*
G02*
X186796000Y-57193250I0J243750D01*
G01*
X186796000Y-56630750D01*
G75*
G02*
X187039750Y-56387000I243750J0D01*
G01*
X187527250Y-56387000D01*
G75*
G02*
X187771000Y-56630750I0J-243750D01*
G01*
G37*
G36*
G01*
X189346000Y-56630750D02*
X189346000Y-57193250D01*
G75*
G02*
X189102250Y-57437000I-243750J0D01*
G01*
X188614750Y-57437000D01*
G75*
G02*
X188371000Y-57193250I0J243750D01*
G01*
X188371000Y-56630750D01*
G75*
G02*
X188614750Y-56387000I243750J0D01*
G01*
X189102250Y-56387000D01*
G75*
G02*
X189346000Y-56630750I0J-243750D01*
G01*
G37*
%TD*%
%TO.C,R9*%
G36*
G01*
X187771000Y-63107750D02*
X187771000Y-63670250D01*
G75*
G02*
X187527250Y-63914000I-243750J0D01*
G01*
X187039750Y-63914000D01*
G75*
G02*
X186796000Y-63670250I0J243750D01*
G01*
X186796000Y-63107750D01*
G75*
G02*
X187039750Y-62864000I243750J0D01*
G01*
X187527250Y-62864000D01*
G75*
G02*
X187771000Y-63107750I0J-243750D01*
G01*
G37*
G36*
G01*
X189346000Y-63107750D02*
X189346000Y-63670250D01*
G75*
G02*
X189102250Y-63914000I-243750J0D01*
G01*
X188614750Y-63914000D01*
G75*
G02*
X188371000Y-63670250I0J243750D01*
G01*
X188371000Y-63107750D01*
G75*
G02*
X188614750Y-62864000I243750J0D01*
G01*
X189102250Y-62864000D01*
G75*
G02*
X189346000Y-63107750I0J-243750D01*
G01*
G37*
%TD*%
%TO.C,R8*%
G36*
G01*
X200217000Y-73521750D02*
X200217000Y-74084250D01*
G75*
G02*
X199973250Y-74328000I-243750J0D01*
G01*
X199485750Y-74328000D01*
G75*
G02*
X199242000Y-74084250I0J243750D01*
G01*
X199242000Y-73521750D01*
G75*
G02*
X199485750Y-73278000I243750J0D01*
G01*
X199973250Y-73278000D01*
G75*
G02*
X200217000Y-73521750I0J-243750D01*
G01*
G37*
G36*
G01*
X201792000Y-73521750D02*
X201792000Y-74084250D01*
G75*
G02*
X201548250Y-74328000I-243750J0D01*
G01*
X201060750Y-74328000D01*
G75*
G02*
X200817000Y-74084250I0J243750D01*
G01*
X200817000Y-73521750D01*
G75*
G02*
X201060750Y-73278000I243750J0D01*
G01*
X201548250Y-73278000D01*
G75*
G02*
X201792000Y-73521750I0J-243750D01*
G01*
G37*
%TD*%
D20*
%TO.C,D6*%
X163442000Y-73676000D03*
X167742000Y-73676000D03*
%TD*%
%TO.C,D5*%
X133470000Y-83836000D03*
X137770000Y-83836000D03*
%TD*%
%TO.C,D4*%
X133470000Y-73676000D03*
X137770000Y-73676000D03*
%TD*%
%TO.C,D3*%
X103625000Y-83836000D03*
X107925000Y-83836000D03*
%TD*%
%TO.C,D2*%
X103625000Y-73676000D03*
X107925000Y-73676000D03*
%TD*%
%TO.C,C17*%
G36*
G01*
X171080250Y-82774000D02*
X170517750Y-82774000D01*
G75*
G02*
X170274000Y-82530250I0J243750D01*
G01*
X170274000Y-82042750D01*
G75*
G02*
X170517750Y-81799000I243750J0D01*
G01*
X171080250Y-81799000D01*
G75*
G02*
X171324000Y-82042750I0J-243750D01*
G01*
X171324000Y-82530250D01*
G75*
G02*
X171080250Y-82774000I-243750J0D01*
G01*
G37*
G36*
G01*
X171080250Y-84349000D02*
X170517750Y-84349000D01*
G75*
G02*
X170274000Y-84105250I0J243750D01*
G01*
X170274000Y-83617750D01*
G75*
G02*
X170517750Y-83374000I243750J0D01*
G01*
X171080250Y-83374000D01*
G75*
G02*
X171324000Y-83617750I0J-243750D01*
G01*
X171324000Y-84105250D01*
G75*
G02*
X171080250Y-84349000I-243750J0D01*
G01*
G37*
%TD*%
%TO.C,C16*%
G36*
G01*
X165818750Y-63054000D02*
X166381250Y-63054000D01*
G75*
G02*
X166625000Y-63297750I0J-243750D01*
G01*
X166625000Y-63785250D01*
G75*
G02*
X166381250Y-64029000I-243750J0D01*
G01*
X165818750Y-64029000D01*
G75*
G02*
X165575000Y-63785250I0J243750D01*
G01*
X165575000Y-63297750D01*
G75*
G02*
X165818750Y-63054000I243750J0D01*
G01*
G37*
G36*
G01*
X165818750Y-61479000D02*
X166381250Y-61479000D01*
G75*
G02*
X166625000Y-61722750I0J-243750D01*
G01*
X166625000Y-62210250D01*
G75*
G02*
X166381250Y-62454000I-243750J0D01*
G01*
X165818750Y-62454000D01*
G75*
G02*
X165575000Y-62210250I0J243750D01*
G01*
X165575000Y-61722750D01*
G75*
G02*
X165818750Y-61479000I243750J0D01*
G01*
G37*
%TD*%
%TO.C,C15*%
G36*
G01*
X170517750Y-74738000D02*
X171080250Y-74738000D01*
G75*
G02*
X171324000Y-74981750I0J-243750D01*
G01*
X171324000Y-75469250D01*
G75*
G02*
X171080250Y-75713000I-243750J0D01*
G01*
X170517750Y-75713000D01*
G75*
G02*
X170274000Y-75469250I0J243750D01*
G01*
X170274000Y-74981750D01*
G75*
G02*
X170517750Y-74738000I243750J0D01*
G01*
G37*
G36*
G01*
X170517750Y-73163000D02*
X171080250Y-73163000D01*
G75*
G02*
X171324000Y-73406750I0J-243750D01*
G01*
X171324000Y-73894250D01*
G75*
G02*
X171080250Y-74138000I-243750J0D01*
G01*
X170517750Y-74138000D01*
G75*
G02*
X170274000Y-73894250I0J243750D01*
G01*
X170274000Y-73406750D01*
G75*
G02*
X170517750Y-73163000I243750J0D01*
G01*
G37*
%TD*%
%TO.C,C14*%
G36*
G01*
X141235250Y-82774000D02*
X140672750Y-82774000D01*
G75*
G02*
X140429000Y-82530250I0J243750D01*
G01*
X140429000Y-82042750D01*
G75*
G02*
X140672750Y-81799000I243750J0D01*
G01*
X141235250Y-81799000D01*
G75*
G02*
X141479000Y-82042750I0J-243750D01*
G01*
X141479000Y-82530250D01*
G75*
G02*
X141235250Y-82774000I-243750J0D01*
G01*
G37*
G36*
G01*
X141235250Y-84349000D02*
X140672750Y-84349000D01*
G75*
G02*
X140429000Y-84105250I0J243750D01*
G01*
X140429000Y-83617750D01*
G75*
G02*
X140672750Y-83374000I243750J0D01*
G01*
X141235250Y-83374000D01*
G75*
G02*
X141479000Y-83617750I0J-243750D01*
G01*
X141479000Y-84105250D01*
G75*
G02*
X141235250Y-84349000I-243750J0D01*
G01*
G37*
%TD*%
%TO.C,C13*%
G36*
G01*
X160974000Y-66663750D02*
X160974000Y-67226250D01*
G75*
G02*
X160730250Y-67470000I-243750J0D01*
G01*
X160242750Y-67470000D01*
G75*
G02*
X159999000Y-67226250I0J243750D01*
G01*
X159999000Y-66663750D01*
G75*
G02*
X160242750Y-66420000I243750J0D01*
G01*
X160730250Y-66420000D01*
G75*
G02*
X160974000Y-66663750I0J-243750D01*
G01*
G37*
G36*
G01*
X162549000Y-66663750D02*
X162549000Y-67226250D01*
G75*
G02*
X162305250Y-67470000I-243750J0D01*
G01*
X161817750Y-67470000D01*
G75*
G02*
X161574000Y-67226250I0J243750D01*
G01*
X161574000Y-66663750D01*
G75*
G02*
X161817750Y-66420000I243750J0D01*
G01*
X162305250Y-66420000D01*
G75*
G02*
X162549000Y-66663750I0J-243750D01*
G01*
G37*
%TD*%
%TO.C,C12*%
G36*
G01*
X140672750Y-74738000D02*
X141235250Y-74738000D01*
G75*
G02*
X141479000Y-74981750I0J-243750D01*
G01*
X141479000Y-75469250D01*
G75*
G02*
X141235250Y-75713000I-243750J0D01*
G01*
X140672750Y-75713000D01*
G75*
G02*
X140429000Y-75469250I0J243750D01*
G01*
X140429000Y-74981750D01*
G75*
G02*
X140672750Y-74738000I243750J0D01*
G01*
G37*
G36*
G01*
X140672750Y-73163000D02*
X141235250Y-73163000D01*
G75*
G02*
X141479000Y-73406750I0J-243750D01*
G01*
X141479000Y-73894250D01*
G75*
G02*
X141235250Y-74138000I-243750J0D01*
G01*
X140672750Y-74138000D01*
G75*
G02*
X140429000Y-73894250I0J243750D01*
G01*
X140429000Y-73406750D01*
G75*
G02*
X140672750Y-73163000I243750J0D01*
G01*
G37*
%TD*%
%TO.C,C11*%
G36*
G01*
X111390250Y-82774000D02*
X110827750Y-82774000D01*
G75*
G02*
X110584000Y-82530250I0J243750D01*
G01*
X110584000Y-82042750D01*
G75*
G02*
X110827750Y-81799000I243750J0D01*
G01*
X111390250Y-81799000D01*
G75*
G02*
X111634000Y-82042750I0J-243750D01*
G01*
X111634000Y-82530250D01*
G75*
G02*
X111390250Y-82774000I-243750J0D01*
G01*
G37*
G36*
G01*
X111390250Y-84349000D02*
X110827750Y-84349000D01*
G75*
G02*
X110584000Y-84105250I0J243750D01*
G01*
X110584000Y-83617750D01*
G75*
G02*
X110827750Y-83374000I243750J0D01*
G01*
X111390250Y-83374000D01*
G75*
G02*
X111634000Y-83617750I0J-243750D01*
G01*
X111634000Y-84105250D01*
G75*
G02*
X111390250Y-84349000I-243750J0D01*
G01*
G37*
%TD*%
%TO.C,C10*%
G36*
G01*
X156729250Y-62454000D02*
X156166750Y-62454000D01*
G75*
G02*
X155923000Y-62210250I0J243750D01*
G01*
X155923000Y-61722750D01*
G75*
G02*
X156166750Y-61479000I243750J0D01*
G01*
X156729250Y-61479000D01*
G75*
G02*
X156973000Y-61722750I0J-243750D01*
G01*
X156973000Y-62210250D01*
G75*
G02*
X156729250Y-62454000I-243750J0D01*
G01*
G37*
G36*
G01*
X156729250Y-64029000D02*
X156166750Y-64029000D01*
G75*
G02*
X155923000Y-63785250I0J243750D01*
G01*
X155923000Y-63297750D01*
G75*
G02*
X156166750Y-63054000I243750J0D01*
G01*
X156729250Y-63054000D01*
G75*
G02*
X156973000Y-63297750I0J-243750D01*
G01*
X156973000Y-63785250D01*
G75*
G02*
X156729250Y-64029000I-243750J0D01*
G01*
G37*
%TD*%
%TO.C,C9*%
G36*
G01*
X110827750Y-74738000D02*
X111390250Y-74738000D01*
G75*
G02*
X111634000Y-74981750I0J-243750D01*
G01*
X111634000Y-75469250D01*
G75*
G02*
X111390250Y-75713000I-243750J0D01*
G01*
X110827750Y-75713000D01*
G75*
G02*
X110584000Y-75469250I0J243750D01*
G01*
X110584000Y-74981750D01*
G75*
G02*
X110827750Y-74738000I243750J0D01*
G01*
G37*
G36*
G01*
X110827750Y-73163000D02*
X111390250Y-73163000D01*
G75*
G02*
X111634000Y-73406750I0J-243750D01*
G01*
X111634000Y-73894250D01*
G75*
G02*
X111390250Y-74138000I-243750J0D01*
G01*
X110827750Y-74138000D01*
G75*
G02*
X110584000Y-73894250I0J243750D01*
G01*
X110584000Y-73406750D01*
G75*
G02*
X110827750Y-73163000I243750J0D01*
G01*
G37*
%TD*%
%TO.C,C8*%
G36*
G01*
X156351200Y-59297750D02*
X156351200Y-59860250D01*
G75*
G02*
X156107450Y-60104000I-243750J0D01*
G01*
X155619950Y-60104000D01*
G75*
G02*
X155376200Y-59860250I0J243750D01*
G01*
X155376200Y-59297750D01*
G75*
G02*
X155619950Y-59054000I243750J0D01*
G01*
X156107450Y-59054000D01*
G75*
G02*
X156351200Y-59297750I0J-243750D01*
G01*
G37*
G36*
G01*
X157926200Y-59297750D02*
X157926200Y-59860250D01*
G75*
G02*
X157682450Y-60104000I-243750J0D01*
G01*
X157194950Y-60104000D01*
G75*
G02*
X156951200Y-59860250I0J243750D01*
G01*
X156951200Y-59297750D01*
G75*
G02*
X157194950Y-59054000I243750J0D01*
G01*
X157682450Y-59054000D01*
G75*
G02*
X157926200Y-59297750I0J-243750D01*
G01*
G37*
%TD*%
M02*
