%TF.GenerationSoftware,KiCad,Pcbnew,(5.1.6)-1*%
%TF.CreationDate,2020-09-09T14:21:18+02:00*%
%TF.ProjectId,TougherPowerMeter-FeatherWing,546f7567-6865-4725-906f-7765724d6574,rev?*%
%TF.SameCoordinates,Original*%
%TF.FileFunction,Copper,L1,Top*%
%TF.FilePolarity,Positive*%
%FSLAX46Y46*%
G04 Gerber Fmt 4.6, Leading zero omitted, Abs format (unit mm)*
G04 Created by KiCad (PCBNEW (5.1.6)-1) date 2020-09-09 14:21:18*
%MOMM*%
%LPD*%
G01*
G04 APERTURE LIST*
%TA.AperFunction,SMDPad,CuDef*%
%ADD10C,1.500000*%
%TD*%
%TA.AperFunction,ComponentPad*%
%ADD11O,1.600000X1.600000*%
%TD*%
%TA.AperFunction,ComponentPad*%
%ADD12R,1.600000X1.600000*%
%TD*%
%TA.AperFunction,ComponentPad*%
%ADD13O,1.700000X1.700000*%
%TD*%
%TA.AperFunction,ComponentPad*%
%ADD14R,1.700000X1.700000*%
%TD*%
%TA.AperFunction,ComponentPad*%
%ADD15C,0.800000*%
%TD*%
%TA.AperFunction,ComponentPad*%
%ADD16C,6.400000*%
%TD*%
%TA.AperFunction,ComponentPad*%
%ADD17O,3.000000X3.600000*%
%TD*%
%TA.AperFunction,ViaPad*%
%ADD18C,0.600000*%
%TD*%
%TA.AperFunction,Conductor*%
%ADD19C,1.000000*%
%TD*%
%TA.AperFunction,Conductor*%
%ADD20C,0.250000*%
%TD*%
%TA.AperFunction,Conductor*%
%ADD21C,0.500000*%
%TD*%
%TA.AperFunction,Conductor*%
%ADD22C,0.150000*%
%TD*%
%TA.AperFunction,Conductor*%
%ADD23C,0.200000*%
%TD*%
%TA.AperFunction,Conductor*%
%ADD24C,0.254000*%
%TD*%
G04 APERTURE END LIST*
D10*
%TO.P,FID3,*%
%TO.N,*%
X201000000Y-64000000D03*
%TD*%
%TO.P,FID2,*%
%TO.N,*%
X99000000Y-64000000D03*
%TD*%
%TO.P,FID1,*%
%TO.N,*%
X99000000Y-93000000D03*
%TD*%
D11*
%TO.P,U3,2*%
%TO.N,+3V3*%
X213217000Y-95266000D03*
%TO.P,U3,1*%
%TO.N,Net-(U3-Pad1)*%
X213217000Y-97806000D03*
%TO.P,U3,3*%
%TO.N,Net-(U3-Pad3)*%
X213217000Y-92726000D03*
%TO.P,U3,4*%
%TO.N,GND*%
X213217000Y-90186000D03*
%TO.P,U3,5*%
%TO.N,/CH3_DIA_EN*%
X213217000Y-87646000D03*
%TO.P,U3,6*%
%TO.N,/CH3_SNS*%
X213217000Y-85106000D03*
%TO.P,U3,7*%
%TO.N,Net-(U3-Pad7)*%
X213217000Y-82566000D03*
%TO.P,U3,8*%
%TO.N,Net-(U3-Pad8)*%
X213217000Y-80026000D03*
%TO.P,U3,9*%
%TO.N,Net-(U3-Pad9)*%
X213217000Y-77486000D03*
%TO.P,U3,10*%
%TO.N,Net-(U3-Pad10)*%
X213217000Y-74946000D03*
%TO.P,U3,11*%
%TO.N,Net-(U3-Pad11)*%
X213217000Y-72406000D03*
%TO.P,U3,12*%
%TO.N,Net-(U3-Pad12)*%
X213217000Y-69866000D03*
%TO.P,U3,13*%
%TO.N,Net-(U3-Pad13)*%
X213217000Y-67326000D03*
%TO.P,U3,14*%
%TO.N,Net-(U3-Pad14)*%
X213217000Y-64786000D03*
%TO.P,U3,15*%
%TO.N,Net-(U3-Pad15)*%
X213217000Y-62246000D03*
%TO.P,U3,16*%
%TO.N,GND*%
X213217000Y-59706000D03*
%TO.P,U3,23*%
%TO.N,/WARNING*%
X192897000Y-74946000D03*
%TO.P,U3,24*%
%TO.N,/CRITICAL*%
X192897000Y-77486000D03*
%TO.P,U3,25*%
%TO.N,/POWER_VALID*%
X192897000Y-80026000D03*
%TO.P,U3,27*%
%TO.N,Net-(U3-Pad27)*%
X192897000Y-85106000D03*
%TO.P,U3,26*%
%TO.N,+5V*%
X192897000Y-82566000D03*
%TO.P,U3,17*%
%TO.N,/SDA*%
X192897000Y-59706000D03*
%TO.P,U3,18*%
%TO.N,/SCL*%
X192897000Y-62246000D03*
%TO.P,U3,19*%
%TO.N,/CH3_SEL*%
X192897000Y-64786000D03*
%TO.P,U3,20*%
%TO.N,/CH3_LATCH*%
X192897000Y-67326000D03*
%TO.P,U3,21*%
%TO.N,/CH3_EN*%
X192897000Y-69866000D03*
%TO.P,U3,22*%
%TO.N,/TIMING_CTRL*%
X192897000Y-72406000D03*
%TO.P,U3,28*%
%TO.N,Net-(U3-Pad28)*%
X192897000Y-87646000D03*
%TD*%
%TO.P,A1,16*%
%TO.N,Net-(A1-Pad16)*%
X210677000Y-95266000D03*
%TO.P,A1,15*%
%TO.N,Net-(A1-Pad15)*%
X195437000Y-95266000D03*
%TO.P,A1,30*%
%TO.N,+5V*%
X210677000Y-59706000D03*
%TO.P,A1,14*%
%TO.N,Net-(A1-Pad14)*%
X195437000Y-92726000D03*
%TO.P,A1,29*%
%TO.N,GND*%
X210677000Y-62246000D03*
%TO.P,A1,13*%
%TO.N,Net-(A1-Pad13)*%
X195437000Y-90186000D03*
%TO.P,A1,28*%
%TO.N,Net-(A1-Pad28)*%
X210677000Y-64786000D03*
%TO.P,A1,12*%
%TO.N,Net-(A1-Pad12)*%
X195437000Y-87646000D03*
%TO.P,A1,27*%
%TO.N,Net-(A1-Pad27)*%
X210677000Y-67326000D03*
%TO.P,A1,11*%
%TO.N,/POWER_VALID*%
X195437000Y-85106000D03*
%TO.P,A1,26*%
%TO.N,Net-(A1-Pad26)*%
X210677000Y-69866000D03*
%TO.P,A1,10*%
%TO.N,/CRITICAL*%
X195437000Y-82566000D03*
%TO.P,A1,25*%
%TO.N,/SDA*%
X210677000Y-72406000D03*
%TO.P,A1,9*%
%TO.N,/WARNING*%
X195437000Y-80026000D03*
%TO.P,A1,24*%
%TO.N,/SCL*%
X210677000Y-74946000D03*
%TO.P,A1,8*%
%TO.N,/TIMING_CTRL*%
X195437000Y-77486000D03*
%TO.P,A1,23*%
%TO.N,Net-(A1-Pad23)*%
X210677000Y-77486000D03*
%TO.P,A1,7*%
%TO.N,/CH3_EN*%
X195437000Y-74946000D03*
%TO.P,A1,22*%
%TO.N,Net-(A1-Pad22)*%
X210677000Y-80026000D03*
%TO.P,A1,6*%
%TO.N,/CH3_LATCH*%
X195437000Y-72406000D03*
%TO.P,A1,21*%
%TO.N,Net-(A1-Pad21)*%
X210677000Y-82566000D03*
%TO.P,A1,5*%
%TO.N,/CH3_SEL*%
X195437000Y-69866000D03*
%TO.P,A1,20*%
%TO.N,/CH3_SNS*%
X210677000Y-85106000D03*
%TO.P,A1,4*%
%TO.N,GND*%
X195437000Y-67326000D03*
%TO.P,A1,19*%
%TO.N,/CH3_DIA_EN*%
X210677000Y-87646000D03*
%TO.P,A1,3*%
%TO.N,Net-(A1-Pad3)*%
X195437000Y-64786000D03*
%TO.P,A1,18*%
%TO.N,Net-(A1-Pad18)*%
X210677000Y-90186000D03*
%TO.P,A1,2*%
%TO.N,Net-(A1-Pad2)*%
X195437000Y-62246000D03*
%TO.P,A1,17*%
%TO.N,+3V3*%
X210677000Y-92726000D03*
D12*
%TO.P,A1,1*%
%TO.N,Net-(A1-Pad1)*%
X195437000Y-59706000D03*
%TD*%
D13*
%TO.P,J1,2*%
%TO.N,/buck/VIN*%
X180578000Y-77486000D03*
D14*
%TO.P,J1,1*%
%TO.N,/CH1_OUT*%
X180578000Y-80026000D03*
%TD*%
D15*
%TO.P,H4,1*%
%TO.N,N/C*%
X221447056Y-102947056D03*
X222150000Y-101250000D03*
X221447056Y-99552944D03*
X219750000Y-98850000D03*
X218052944Y-99552944D03*
X217350000Y-101250000D03*
X218052944Y-102947056D03*
X219750000Y-103650000D03*
D16*
X219750000Y-101250000D03*
%TD*%
D15*
%TO.P,H3,1*%
%TO.N,N/C*%
X99447056Y-102947056D03*
X100150000Y-101250000D03*
X99447056Y-99552944D03*
X97750000Y-98850000D03*
X96052944Y-99552944D03*
X95350000Y-101250000D03*
X96052944Y-102947056D03*
X97750000Y-103650000D03*
D16*
X97750000Y-101250000D03*
%TD*%
D15*
%TO.P,H2,1*%
%TO.N,N/C*%
X221447056Y-57947056D03*
X222150000Y-56250000D03*
X221447056Y-54552944D03*
X219750000Y-53850000D03*
X218052944Y-54552944D03*
X217350000Y-56250000D03*
X218052944Y-57947056D03*
X219750000Y-58650000D03*
D16*
X219750000Y-56250000D03*
%TD*%
D15*
%TO.P,H1,1*%
%TO.N,N/C*%
X99447056Y-57947056D03*
X100150000Y-56250000D03*
X99447056Y-54552944D03*
X97750000Y-53850000D03*
X96052944Y-54552944D03*
X95350000Y-56250000D03*
X96052944Y-57947056D03*
X97750000Y-58650000D03*
D16*
X97750000Y-56250000D03*
%TD*%
D13*
%TO.P,J11,3*%
%TO.N,Net-(J11-Pad3)*%
X153781000Y-81232500D03*
%TO.P,J11,2*%
%TO.N,Net-(J11-Pad2)*%
X153781000Y-78692500D03*
D14*
%TO.P,J11,1*%
%TO.N,Net-(J11-Pad1)*%
X153781000Y-76152500D03*
%TD*%
D17*
%TO.P,J10,2*%
%TO.N,GND*%
X110982000Y-93996000D03*
%TO.P,J10,1*%
%TO.N,/CH3_OUT*%
X105902000Y-93996000D03*
%TD*%
%TO.P,J9,2*%
%TO.N,GND*%
X154162000Y-93996000D03*
%TO.P,J9,1*%
%TO.N,/CH2_OUT*%
X149082000Y-93996000D03*
%TD*%
%TO.P,J8,2*%
%TO.N,GND*%
X184007000Y-93996000D03*
%TO.P,J8,1*%
%TO.N,/CH1_OUT*%
X178927000Y-93996000D03*
%TD*%
%TO.P,J7,2*%
%TO.N,GND*%
X124317000Y-93996000D03*
%TO.P,J7,1*%
%TO.N,/CH3_OUT*%
X119237000Y-93996000D03*
%TD*%
%TO.P,J6,2*%
%TO.N,GND*%
X140827000Y-93996000D03*
%TO.P,J6,1*%
%TO.N,/CH2_OUT*%
X135747000Y-93996000D03*
%TD*%
%TO.P,J5,2*%
%TO.N,GND*%
X170672000Y-93996000D03*
%TO.P,J5,1*%
%TO.N,/CH1_OUT*%
X165592000Y-93996000D03*
%TD*%
%TO.P,J4,2*%
%TO.N,GND*%
X112506000Y-63516000D03*
%TO.P,J4,1*%
%TO.N,/CH3_IN*%
X117586000Y-63516000D03*
%TD*%
%TO.P,J3,2*%
%TO.N,GND*%
X142351000Y-63516000D03*
%TO.P,J3,1*%
%TO.N,/CH2_IN*%
X147431000Y-63516000D03*
%TD*%
%TO.P,J2,2*%
%TO.N,GND*%
X172196000Y-63516000D03*
%TO.P,J2,1*%
%TO.N,/CH1_IN*%
X177276000Y-63516000D03*
%TD*%
D18*
%TO.N,GND*%
X204406500Y-90614500D03*
X204406500Y-89789000D03*
X156384500Y-56975500D03*
X200199500Y-97488500D03*
X204390500Y-91456000D03*
X204390500Y-93107000D03*
X204390500Y-92281500D03*
X204390500Y-93869000D03*
X204390500Y-94631000D03*
X200263000Y-91964000D03*
X200263000Y-92726000D03*
X200263000Y-93488000D03*
X200263000Y-94250000D03*
X200263000Y-95012000D03*
X200263000Y-95774000D03*
X200263000Y-96536000D03*
X206803500Y-85169500D03*
X208200500Y-85169500D03*
X121078500Y-63897000D03*
X160639000Y-61484000D03*
X160639000Y-62754000D03*
X161909000Y-62754000D03*
X161909000Y-61484000D03*
X161274000Y-62119000D03*
X157718000Y-77359000D03*
X121650000Y-66564000D03*
X181721000Y-88408000D03*
X181721000Y-89932000D03*
X181721000Y-87646000D03*
X181721000Y-89170000D03*
X111807500Y-83201000D03*
X110410500Y-83201000D03*
X105394000Y-82693000D03*
X105394000Y-84217000D03*
X105394000Y-83455000D03*
X105394000Y-84979000D03*
X105394000Y-73295000D03*
X105394000Y-74057000D03*
X105394000Y-72533000D03*
X105394000Y-74819000D03*
X135239000Y-74057000D03*
X135239000Y-74819000D03*
X135239000Y-72533000D03*
X135239000Y-73295000D03*
X135239000Y-84217000D03*
X135239000Y-84979000D03*
X135239000Y-82693000D03*
X135239000Y-83455000D03*
X165211000Y-82693000D03*
X165211000Y-83455000D03*
X165211000Y-84217000D03*
X165211000Y-84979000D03*
X165211000Y-72533000D03*
X165211000Y-73295000D03*
X165211000Y-74057000D03*
X165211000Y-74819000D03*
X171497500Y-74247500D03*
X170100500Y-74247500D03*
X171497500Y-83201000D03*
X170100500Y-83201000D03*
X141652500Y-74247500D03*
X140255500Y-74247500D03*
X140255500Y-83201000D03*
X141652500Y-83201000D03*
X110410500Y-74247500D03*
X111807500Y-74247500D03*
X156321000Y-58626500D03*
X158162500Y-61674500D03*
X201088500Y-96536000D03*
X201914000Y-96536000D03*
X121015000Y-75708000D03*
X119618000Y-75708000D03*
X217789000Y-82185000D03*
X217500000Y-86250000D03*
X196389500Y-99711000D03*
X195564000Y-99711000D03*
X194675000Y-99711000D03*
X193786000Y-99711000D03*
X192897000Y-99711000D03*
X191944500Y-99711000D03*
X191055500Y-99711000D03*
X190103000Y-99711000D03*
%TO.N,/CH3_IN*%
X127504700Y-68481700D03*
%TO.N,+3V3*%
X158886400Y-58690000D03*
X159305500Y-70501000D03*
X204835000Y-73803000D03*
X208137000Y-77105000D03*
X162036000Y-55515000D03*
X159305500Y-68532500D03*
X190103000Y-63389000D03*
X189976000Y-57801000D03*
X153273000Y-58817000D03*
%TO.N,/CH3_DIA_EN*%
X129524000Y-56467500D03*
X129524000Y-58880500D03*
%TO.N,/CH3_SEL*%
X128317500Y-56467500D03*
X128317500Y-58880500D03*
X200009000Y-54245000D03*
X200009000Y-58690000D03*
%TO.N,/CH3_LATCH*%
X131937000Y-56467500D03*
X131937000Y-58880500D03*
%TO.N,/CH3_EN*%
X133143500Y-56467500D03*
X133143500Y-58880500D03*
%TO.N,/TIMING_CTRL*%
X167116000Y-64532000D03*
X167878000Y-61738000D03*
X187309000Y-74565000D03*
%TO.N,/SDA*%
X190230000Y-61230000D03*
X205851000Y-58055000D03*
X203819000Y-58055000D03*
%TO.N,/SCL*%
X205851000Y-57166000D03*
X203819000Y-57166000D03*
%TO.N,Net-(J11-Pad2)*%
X145135600Y-58610500D03*
X145135600Y-56794400D03*
X148828000Y-60518800D03*
X148828000Y-58626500D03*
%TO.N,Net-(R1-Pad2)*%
X181149500Y-58690000D03*
X184515000Y-58690000D03*
%TO.N,/IN3_N*%
X151380700Y-58209940D03*
X150364700Y-57193940D03*
%TO.N,/IN2_N*%
X157654500Y-69993000D03*
X156702000Y-69040500D03*
%TO.N,/IN1_N*%
X168576500Y-66246500D03*
X167624000Y-67199000D03*
%TO.N,Net-(R10-Pad2)*%
X180324000Y-57801000D03*
X183626000Y-57801000D03*
%TO.N,Net-(R3-Pad2)*%
X130730500Y-56467500D03*
X130730500Y-58880500D03*
%TD*%
D19*
%TO.N,GND*%
X213217000Y-59706000D02*
X210677000Y-62246000D01*
D20*
%TO.N,/CH3_IN*%
X123301000Y-60849000D02*
X120526000Y-60849000D01*
X120526000Y-60849000D02*
X117636000Y-63739000D01*
X127504700Y-68481700D02*
X127504700Y-65052700D01*
X127504700Y-65052700D02*
X123301000Y-60849000D01*
%TO.N,+3V3*%
X159305500Y-70628000D02*
X159305500Y-68532500D01*
X159305500Y-68469000D02*
X159305500Y-68469000D01*
X204835000Y-73803000D02*
X204835000Y-73803000D01*
D21*
X208137000Y-77105000D02*
X204835000Y-73803000D01*
X162036000Y-55515000D02*
X162036000Y-55515000D01*
D20*
X159305500Y-68532500D02*
X159305500Y-68469000D01*
X190103000Y-63389000D02*
X189214000Y-62500000D01*
X189214000Y-62500000D02*
X189214000Y-58563000D01*
X189214000Y-58563000D02*
X189976000Y-57801000D01*
X189976000Y-57801000D02*
X189976000Y-57801000D01*
X153273000Y-58817000D02*
X153273000Y-57420000D01*
X155178000Y-55515000D02*
X162036000Y-55515000D01*
X153273000Y-57420000D02*
X155178000Y-55515000D01*
D21*
X162036000Y-55515000D02*
X162036000Y-56023000D01*
X159369000Y-58690000D02*
X158886400Y-58690000D01*
X162036000Y-56023000D02*
X159369000Y-58690000D01*
D20*
%TO.N,/CH3_DIA_EN*%
X129524000Y-56467500D02*
X129524000Y-58880500D01*
%TO.N,/CH3_SEL*%
X128317500Y-56467500D02*
X128317500Y-58880500D01*
X200009000Y-54245000D02*
X200009000Y-58690000D01*
%TO.N,/CH3_LATCH*%
X131937000Y-56467500D02*
X131937000Y-58880500D01*
%TO.N,/CH3_EN*%
X133143500Y-56467500D02*
X133143500Y-58880500D01*
%TO.N,/TIMING_CTRL*%
X189468000Y-72406000D02*
X187309000Y-74565000D01*
X192897000Y-72406000D02*
X189468000Y-72406000D01*
X167878000Y-61738000D02*
X167370000Y-61738000D01*
X167116000Y-61992000D02*
X167116000Y-64532000D01*
X167370000Y-61738000D02*
X167116000Y-61992000D01*
D22*
%TO.N,/SDA*%
X191373000Y-61230000D02*
X192897000Y-59706000D01*
X190230000Y-61230000D02*
X191373000Y-61230000D01*
X205851000Y-58055000D02*
X203819000Y-58055000D01*
X203819000Y-58055000D02*
X203819000Y-58055000D01*
%TO.N,/SCL*%
X205724000Y-57166000D02*
X203946000Y-57166000D01*
X203819000Y-57166000D02*
X203819000Y-57166000D01*
D20*
%TO.N,Net-(J11-Pad2)*%
X145135600Y-56794400D02*
X145135600Y-58470800D01*
X148828000Y-58483500D02*
X148828000Y-58626500D01*
X148828000Y-58626500D02*
X148828000Y-60518800D01*
X148812000Y-58610500D02*
X148828000Y-58626500D01*
%TO.N,Net-(R1-Pad2)*%
X181149500Y-58690000D02*
X184515000Y-58690000D01*
D23*
%TO.N,/IN3_N*%
X151317200Y-58146440D02*
X150364700Y-57193940D01*
%TO.N,/IN2_N*%
X157654500Y-69993000D02*
X156702000Y-69040500D01*
%TO.N,/IN1_N*%
X167624000Y-67199000D02*
X168576500Y-66246500D01*
D20*
%TO.N,Net-(R10-Pad2)*%
X183626000Y-57801000D02*
X180324000Y-57801000D01*
%TO.N,Net-(R3-Pad2)*%
X130730500Y-56467500D02*
X130730500Y-58880500D01*
%TD*%
D24*
%TO.N,GND*%
G36*
X217305330Y-53271161D02*
G01*
X216771161Y-53805330D01*
X216351467Y-54433446D01*
X216062377Y-55131372D01*
X215915000Y-55872285D01*
X215915000Y-56627715D01*
X216062377Y-57368628D01*
X216351467Y-58066554D01*
X216771161Y-58694670D01*
X217305330Y-59228839D01*
X217933446Y-59648533D01*
X218631372Y-59937623D01*
X219372285Y-60085000D01*
X220127715Y-60085000D01*
X220868628Y-59937623D01*
X221566554Y-59648533D01*
X222194670Y-59228839D01*
X222728839Y-58694670D01*
X223090000Y-58154155D01*
X223090001Y-99345847D01*
X222728839Y-98805330D01*
X222194670Y-98271161D01*
X221566554Y-97851467D01*
X220868628Y-97562377D01*
X220127715Y-97415000D01*
X219372285Y-97415000D01*
X218631372Y-97562377D01*
X217933446Y-97851467D01*
X217305330Y-98271161D01*
X216771161Y-98805330D01*
X216351467Y-99433446D01*
X216062377Y-100131372D01*
X215915000Y-100872285D01*
X215915000Y-101627715D01*
X216062377Y-102368628D01*
X216351467Y-103066554D01*
X216771161Y-103694670D01*
X217305330Y-104228839D01*
X217845845Y-104590000D01*
X99654155Y-104590000D01*
X100194670Y-104228839D01*
X100728839Y-103694670D01*
X101148533Y-103066554D01*
X101437623Y-102368628D01*
X101585000Y-101627715D01*
X101585000Y-100872285D01*
X101437623Y-100131372D01*
X101148533Y-99433446D01*
X100728839Y-98805330D01*
X100194670Y-98271161D01*
X99566554Y-97851467D01*
X98868628Y-97562377D01*
X98127715Y-97415000D01*
X97372285Y-97415000D01*
X96631372Y-97562377D01*
X95933446Y-97851467D01*
X95305330Y-98271161D01*
X94771161Y-98805330D01*
X94410000Y-99345845D01*
X94410000Y-90250000D01*
X96123000Y-90250000D01*
X96123000Y-95750000D01*
X96125440Y-95774776D01*
X96132667Y-95798601D01*
X96144403Y-95820557D01*
X96160197Y-95839803D01*
X96179443Y-95855597D01*
X96201399Y-95867333D01*
X96225224Y-95874560D01*
X96250000Y-95877000D01*
X101750000Y-95877000D01*
X101774776Y-95874560D01*
X101798601Y-95867333D01*
X101820557Y-95855597D01*
X101839803Y-95839803D01*
X101855597Y-95820557D01*
X101867333Y-95798601D01*
X101874560Y-95774776D01*
X101877000Y-95750000D01*
X101877000Y-93591119D01*
X103767000Y-93591119D01*
X103767000Y-94400882D01*
X103797892Y-94714533D01*
X103919974Y-95116982D01*
X104118223Y-95487881D01*
X104385024Y-95812977D01*
X104710120Y-96079777D01*
X105081019Y-96278026D01*
X105483468Y-96400108D01*
X105902000Y-96441330D01*
X106320533Y-96400108D01*
X106722982Y-96278026D01*
X107093881Y-96079777D01*
X107418977Y-95812977D01*
X107685777Y-95487881D01*
X107884026Y-95116981D01*
X108006108Y-94714532D01*
X108037000Y-94400881D01*
X108037000Y-94123000D01*
X108847000Y-94123000D01*
X108847000Y-94423000D01*
X108912800Y-94837078D01*
X109058118Y-95230362D01*
X109277370Y-95587739D01*
X109562130Y-95895475D01*
X109901454Y-96141744D01*
X110282303Y-96317083D01*
X110523167Y-96381113D01*
X110855000Y-96268165D01*
X110855000Y-94123000D01*
X111109000Y-94123000D01*
X111109000Y-96268165D01*
X111440833Y-96381113D01*
X111681697Y-96317083D01*
X112062546Y-96141744D01*
X112401870Y-95895475D01*
X112686630Y-95587739D01*
X112905882Y-95230362D01*
X113051200Y-94837078D01*
X113117000Y-94423000D01*
X113117000Y-94123000D01*
X111109000Y-94123000D01*
X110855000Y-94123000D01*
X108847000Y-94123000D01*
X108037000Y-94123000D01*
X108037000Y-93591118D01*
X108034822Y-93569000D01*
X108847000Y-93569000D01*
X108847000Y-93869000D01*
X110855000Y-93869000D01*
X110855000Y-91723835D01*
X111109000Y-91723835D01*
X111109000Y-93869000D01*
X113117000Y-93869000D01*
X113117000Y-93591119D01*
X117102000Y-93591119D01*
X117102000Y-94400882D01*
X117132892Y-94714533D01*
X117254974Y-95116982D01*
X117453223Y-95487881D01*
X117720024Y-95812977D01*
X118045120Y-96079777D01*
X118416019Y-96278026D01*
X118818468Y-96400108D01*
X119237000Y-96441330D01*
X119655533Y-96400108D01*
X120057982Y-96278026D01*
X120428881Y-96079777D01*
X120753977Y-95812977D01*
X121020777Y-95487881D01*
X121219026Y-95116981D01*
X121341108Y-94714532D01*
X121372000Y-94400881D01*
X121372000Y-94123000D01*
X122182000Y-94123000D01*
X122182000Y-94423000D01*
X122247800Y-94837078D01*
X122393118Y-95230362D01*
X122612370Y-95587739D01*
X122897130Y-95895475D01*
X123236454Y-96141744D01*
X123617303Y-96317083D01*
X123858167Y-96381113D01*
X124190000Y-96268165D01*
X124190000Y-94123000D01*
X124444000Y-94123000D01*
X124444000Y-96268165D01*
X124775833Y-96381113D01*
X125016697Y-96317083D01*
X125397546Y-96141744D01*
X125736870Y-95895475D01*
X126021630Y-95587739D01*
X126240882Y-95230362D01*
X126386200Y-94837078D01*
X126452000Y-94423000D01*
X126452000Y-94123000D01*
X124444000Y-94123000D01*
X124190000Y-94123000D01*
X122182000Y-94123000D01*
X121372000Y-94123000D01*
X121372000Y-93591118D01*
X121369822Y-93569000D01*
X122182000Y-93569000D01*
X122182000Y-93869000D01*
X124190000Y-93869000D01*
X124190000Y-91723835D01*
X124444000Y-91723835D01*
X124444000Y-93869000D01*
X126452000Y-93869000D01*
X126452000Y-93591119D01*
X133612000Y-93591119D01*
X133612000Y-94400882D01*
X133642892Y-94714533D01*
X133764974Y-95116982D01*
X133963223Y-95487881D01*
X134230024Y-95812977D01*
X134555120Y-96079777D01*
X134926019Y-96278026D01*
X135328468Y-96400108D01*
X135747000Y-96441330D01*
X136165533Y-96400108D01*
X136567982Y-96278026D01*
X136938881Y-96079777D01*
X137263977Y-95812977D01*
X137530777Y-95487881D01*
X137729026Y-95116981D01*
X137851108Y-94714532D01*
X137882000Y-94400881D01*
X137882000Y-94123000D01*
X138692000Y-94123000D01*
X138692000Y-94423000D01*
X138757800Y-94837078D01*
X138903118Y-95230362D01*
X139122370Y-95587739D01*
X139407130Y-95895475D01*
X139746454Y-96141744D01*
X140127303Y-96317083D01*
X140368167Y-96381113D01*
X140700000Y-96268165D01*
X140700000Y-94123000D01*
X140954000Y-94123000D01*
X140954000Y-96268165D01*
X141285833Y-96381113D01*
X141526697Y-96317083D01*
X141907546Y-96141744D01*
X142246870Y-95895475D01*
X142531630Y-95587739D01*
X142750882Y-95230362D01*
X142896200Y-94837078D01*
X142962000Y-94423000D01*
X142962000Y-94123000D01*
X140954000Y-94123000D01*
X140700000Y-94123000D01*
X138692000Y-94123000D01*
X137882000Y-94123000D01*
X137882000Y-93591118D01*
X137879822Y-93569000D01*
X138692000Y-93569000D01*
X138692000Y-93869000D01*
X140700000Y-93869000D01*
X140700000Y-91723835D01*
X140954000Y-91723835D01*
X140954000Y-93869000D01*
X142962000Y-93869000D01*
X142962000Y-93591119D01*
X146947000Y-93591119D01*
X146947000Y-94400882D01*
X146977892Y-94714533D01*
X147099974Y-95116982D01*
X147298223Y-95487881D01*
X147565024Y-95812977D01*
X147890120Y-96079777D01*
X148261019Y-96278026D01*
X148663468Y-96400108D01*
X149082000Y-96441330D01*
X149500533Y-96400108D01*
X149902982Y-96278026D01*
X150273881Y-96079777D01*
X150598977Y-95812977D01*
X150865777Y-95487881D01*
X151064026Y-95116981D01*
X151186108Y-94714532D01*
X151217000Y-94400881D01*
X151217000Y-94123000D01*
X152027000Y-94123000D01*
X152027000Y-94423000D01*
X152092800Y-94837078D01*
X152238118Y-95230362D01*
X152457370Y-95587739D01*
X152742130Y-95895475D01*
X153081454Y-96141744D01*
X153462303Y-96317083D01*
X153703167Y-96381113D01*
X154035000Y-96268165D01*
X154035000Y-94123000D01*
X154289000Y-94123000D01*
X154289000Y-96268165D01*
X154620833Y-96381113D01*
X154861697Y-96317083D01*
X155242546Y-96141744D01*
X155581870Y-95895475D01*
X155866630Y-95587739D01*
X156085882Y-95230362D01*
X156231200Y-94837078D01*
X156297000Y-94423000D01*
X156297000Y-94123000D01*
X154289000Y-94123000D01*
X154035000Y-94123000D01*
X152027000Y-94123000D01*
X151217000Y-94123000D01*
X151217000Y-93591118D01*
X151214822Y-93569000D01*
X152027000Y-93569000D01*
X152027000Y-93869000D01*
X154035000Y-93869000D01*
X154035000Y-91723835D01*
X154289000Y-91723835D01*
X154289000Y-93869000D01*
X156297000Y-93869000D01*
X156297000Y-93591119D01*
X163457000Y-93591119D01*
X163457000Y-94400882D01*
X163487892Y-94714533D01*
X163609974Y-95116982D01*
X163808223Y-95487881D01*
X164075024Y-95812977D01*
X164400120Y-96079777D01*
X164771019Y-96278026D01*
X165173468Y-96400108D01*
X165592000Y-96441330D01*
X166010533Y-96400108D01*
X166412982Y-96278026D01*
X166783881Y-96079777D01*
X167108977Y-95812977D01*
X167375777Y-95487881D01*
X167574026Y-95116981D01*
X167696108Y-94714532D01*
X167727000Y-94400881D01*
X167727000Y-94123000D01*
X168537000Y-94123000D01*
X168537000Y-94423000D01*
X168602800Y-94837078D01*
X168748118Y-95230362D01*
X168967370Y-95587739D01*
X169252130Y-95895475D01*
X169591454Y-96141744D01*
X169972303Y-96317083D01*
X170213167Y-96381113D01*
X170545000Y-96268165D01*
X170545000Y-94123000D01*
X170799000Y-94123000D01*
X170799000Y-96268165D01*
X171130833Y-96381113D01*
X171371697Y-96317083D01*
X171752546Y-96141744D01*
X172091870Y-95895475D01*
X172376630Y-95587739D01*
X172595882Y-95230362D01*
X172741200Y-94837078D01*
X172807000Y-94423000D01*
X172807000Y-94123000D01*
X170799000Y-94123000D01*
X170545000Y-94123000D01*
X168537000Y-94123000D01*
X167727000Y-94123000D01*
X167727000Y-93591118D01*
X167724822Y-93569000D01*
X168537000Y-93569000D01*
X168537000Y-93869000D01*
X170545000Y-93869000D01*
X170545000Y-91723835D01*
X170799000Y-91723835D01*
X170799000Y-93869000D01*
X172807000Y-93869000D01*
X172807000Y-93591119D01*
X176792000Y-93591119D01*
X176792000Y-94400882D01*
X176822892Y-94714533D01*
X176944974Y-95116982D01*
X177143223Y-95487881D01*
X177410024Y-95812977D01*
X177735120Y-96079777D01*
X178106019Y-96278026D01*
X178508468Y-96400108D01*
X178927000Y-96441330D01*
X179345533Y-96400108D01*
X179747982Y-96278026D01*
X180118881Y-96079777D01*
X180443977Y-95812977D01*
X180710777Y-95487881D01*
X180909026Y-95116981D01*
X181031108Y-94714532D01*
X181062000Y-94400881D01*
X181062000Y-94123000D01*
X181872000Y-94123000D01*
X181872000Y-94423000D01*
X181937800Y-94837078D01*
X182083118Y-95230362D01*
X182302370Y-95587739D01*
X182587130Y-95895475D01*
X182926454Y-96141744D01*
X183307303Y-96317083D01*
X183548167Y-96381113D01*
X183880000Y-96268165D01*
X183880000Y-94123000D01*
X184134000Y-94123000D01*
X184134000Y-96268165D01*
X184465833Y-96381113D01*
X184706697Y-96317083D01*
X185087546Y-96141744D01*
X185426870Y-95895475D01*
X185711630Y-95587739D01*
X185930882Y-95230362D01*
X186076200Y-94837078D01*
X186142000Y-94423000D01*
X186142000Y-94123000D01*
X184134000Y-94123000D01*
X183880000Y-94123000D01*
X181872000Y-94123000D01*
X181062000Y-94123000D01*
X181062000Y-93591118D01*
X181059822Y-93569000D01*
X181872000Y-93569000D01*
X181872000Y-93869000D01*
X183880000Y-93869000D01*
X183880000Y-91723835D01*
X184134000Y-91723835D01*
X184134000Y-93869000D01*
X186142000Y-93869000D01*
X186142000Y-93569000D01*
X186076200Y-93154922D01*
X185930882Y-92761638D01*
X185711630Y-92404261D01*
X185426870Y-92096525D01*
X185087546Y-91850256D01*
X184706697Y-91674917D01*
X184465833Y-91610887D01*
X184134000Y-91723835D01*
X183880000Y-91723835D01*
X183548167Y-91610887D01*
X183307303Y-91674917D01*
X182926454Y-91850256D01*
X182587130Y-92096525D01*
X182302370Y-92404261D01*
X182083118Y-92761638D01*
X181937800Y-93154922D01*
X181872000Y-93569000D01*
X181059822Y-93569000D01*
X181031108Y-93277467D01*
X180909026Y-92875018D01*
X180710777Y-92504119D01*
X180443977Y-92179023D01*
X180118881Y-91912223D01*
X179747981Y-91713974D01*
X179345532Y-91591892D01*
X178927000Y-91550670D01*
X178508467Y-91591892D01*
X178106018Y-91713974D01*
X177735119Y-91912223D01*
X177410023Y-92179023D01*
X177143223Y-92504119D01*
X176944974Y-92875019D01*
X176822892Y-93277468D01*
X176792000Y-93591119D01*
X172807000Y-93591119D01*
X172807000Y-93569000D01*
X172741200Y-93154922D01*
X172595882Y-92761638D01*
X172376630Y-92404261D01*
X172091870Y-92096525D01*
X171752546Y-91850256D01*
X171371697Y-91674917D01*
X171130833Y-91610887D01*
X170799000Y-91723835D01*
X170545000Y-91723835D01*
X170213167Y-91610887D01*
X169972303Y-91674917D01*
X169591454Y-91850256D01*
X169252130Y-92096525D01*
X168967370Y-92404261D01*
X168748118Y-92761638D01*
X168602800Y-93154922D01*
X168537000Y-93569000D01*
X167724822Y-93569000D01*
X167696108Y-93277467D01*
X167574026Y-92875018D01*
X167375777Y-92504119D01*
X167108977Y-92179023D01*
X166783881Y-91912223D01*
X166412981Y-91713974D01*
X166010532Y-91591892D01*
X165592000Y-91550670D01*
X165173467Y-91591892D01*
X164771018Y-91713974D01*
X164400119Y-91912223D01*
X164075023Y-92179023D01*
X163808223Y-92504119D01*
X163609974Y-92875019D01*
X163487892Y-93277468D01*
X163457000Y-93591119D01*
X156297000Y-93591119D01*
X156297000Y-93569000D01*
X156231200Y-93154922D01*
X156085882Y-92761638D01*
X155866630Y-92404261D01*
X155581870Y-92096525D01*
X155242546Y-91850256D01*
X154861697Y-91674917D01*
X154620833Y-91610887D01*
X154289000Y-91723835D01*
X154035000Y-91723835D01*
X153703167Y-91610887D01*
X153462303Y-91674917D01*
X153081454Y-91850256D01*
X152742130Y-92096525D01*
X152457370Y-92404261D01*
X152238118Y-92761638D01*
X152092800Y-93154922D01*
X152027000Y-93569000D01*
X151214822Y-93569000D01*
X151186108Y-93277467D01*
X151064026Y-92875018D01*
X150865777Y-92504119D01*
X150598977Y-92179023D01*
X150273881Y-91912223D01*
X149902981Y-91713974D01*
X149500532Y-91591892D01*
X149082000Y-91550670D01*
X148663467Y-91591892D01*
X148261018Y-91713974D01*
X147890119Y-91912223D01*
X147565023Y-92179023D01*
X147298223Y-92504119D01*
X147099974Y-92875019D01*
X146977892Y-93277468D01*
X146947000Y-93591119D01*
X142962000Y-93591119D01*
X142962000Y-93569000D01*
X142896200Y-93154922D01*
X142750882Y-92761638D01*
X142531630Y-92404261D01*
X142246870Y-92096525D01*
X141907546Y-91850256D01*
X141526697Y-91674917D01*
X141285833Y-91610887D01*
X140954000Y-91723835D01*
X140700000Y-91723835D01*
X140368167Y-91610887D01*
X140127303Y-91674917D01*
X139746454Y-91850256D01*
X139407130Y-92096525D01*
X139122370Y-92404261D01*
X138903118Y-92761638D01*
X138757800Y-93154922D01*
X138692000Y-93569000D01*
X137879822Y-93569000D01*
X137851108Y-93277467D01*
X137729026Y-92875018D01*
X137530777Y-92504119D01*
X137263977Y-92179023D01*
X136938881Y-91912223D01*
X136567981Y-91713974D01*
X136165532Y-91591892D01*
X135747000Y-91550670D01*
X135328467Y-91591892D01*
X134926018Y-91713974D01*
X134555119Y-91912223D01*
X134230023Y-92179023D01*
X133963223Y-92504119D01*
X133764974Y-92875019D01*
X133642892Y-93277468D01*
X133612000Y-93591119D01*
X126452000Y-93591119D01*
X126452000Y-93569000D01*
X126386200Y-93154922D01*
X126240882Y-92761638D01*
X126021630Y-92404261D01*
X125736870Y-92096525D01*
X125397546Y-91850256D01*
X125016697Y-91674917D01*
X124775833Y-91610887D01*
X124444000Y-91723835D01*
X124190000Y-91723835D01*
X123858167Y-91610887D01*
X123617303Y-91674917D01*
X123236454Y-91850256D01*
X122897130Y-92096525D01*
X122612370Y-92404261D01*
X122393118Y-92761638D01*
X122247800Y-93154922D01*
X122182000Y-93569000D01*
X121369822Y-93569000D01*
X121341108Y-93277467D01*
X121219026Y-92875018D01*
X121020777Y-92504119D01*
X120753977Y-92179023D01*
X120428881Y-91912223D01*
X120057981Y-91713974D01*
X119655532Y-91591892D01*
X119237000Y-91550670D01*
X118818467Y-91591892D01*
X118416018Y-91713974D01*
X118045119Y-91912223D01*
X117720023Y-92179023D01*
X117453223Y-92504119D01*
X117254974Y-92875019D01*
X117132892Y-93277468D01*
X117102000Y-93591119D01*
X113117000Y-93591119D01*
X113117000Y-93569000D01*
X113051200Y-93154922D01*
X112905882Y-92761638D01*
X112686630Y-92404261D01*
X112401870Y-92096525D01*
X112062546Y-91850256D01*
X111681697Y-91674917D01*
X111440833Y-91610887D01*
X111109000Y-91723835D01*
X110855000Y-91723835D01*
X110523167Y-91610887D01*
X110282303Y-91674917D01*
X109901454Y-91850256D01*
X109562130Y-92096525D01*
X109277370Y-92404261D01*
X109058118Y-92761638D01*
X108912800Y-93154922D01*
X108847000Y-93569000D01*
X108034822Y-93569000D01*
X108006108Y-93277467D01*
X107884026Y-92875018D01*
X107685777Y-92504119D01*
X107418977Y-92179023D01*
X107093881Y-91912223D01*
X106722981Y-91713974D01*
X106320532Y-91591892D01*
X105902000Y-91550670D01*
X105483467Y-91591892D01*
X105081018Y-91713974D01*
X104710119Y-91912223D01*
X104385023Y-92179023D01*
X104118223Y-92504119D01*
X103919974Y-92875019D01*
X103797892Y-93277468D01*
X103767000Y-93591119D01*
X101877000Y-93591119D01*
X101877000Y-90250000D01*
X101874560Y-90225224D01*
X101867333Y-90201399D01*
X101855597Y-90179443D01*
X101839803Y-90160197D01*
X101820557Y-90144403D01*
X101798601Y-90132667D01*
X101774776Y-90125440D01*
X101750000Y-90123000D01*
X96250000Y-90123000D01*
X96225224Y-90125440D01*
X96201399Y-90132667D01*
X96179443Y-90144403D01*
X96160197Y-90160197D01*
X96144403Y-90179443D01*
X96132667Y-90201399D01*
X96125440Y-90225224D01*
X96123000Y-90250000D01*
X94410000Y-90250000D01*
X94410000Y-75302500D01*
X152292928Y-75302500D01*
X152292928Y-77002500D01*
X152305188Y-77126982D01*
X152341498Y-77246680D01*
X152400463Y-77356994D01*
X152479815Y-77453685D01*
X152576506Y-77533037D01*
X152686820Y-77592002D01*
X152759380Y-77614013D01*
X152627525Y-77745868D01*
X152465010Y-77989089D01*
X152353068Y-78259342D01*
X152296000Y-78546240D01*
X152296000Y-78838760D01*
X152353068Y-79125658D01*
X152465010Y-79395911D01*
X152627525Y-79639132D01*
X152834368Y-79845975D01*
X153008760Y-79962500D01*
X152834368Y-80079025D01*
X152627525Y-80285868D01*
X152465010Y-80529089D01*
X152353068Y-80799342D01*
X152296000Y-81086240D01*
X152296000Y-81378760D01*
X152353068Y-81665658D01*
X152465010Y-81935911D01*
X152627525Y-82179132D01*
X152834368Y-82385975D01*
X153077589Y-82548490D01*
X153347842Y-82660432D01*
X153634740Y-82717500D01*
X153927260Y-82717500D01*
X154214158Y-82660432D01*
X154484411Y-82548490D01*
X154727632Y-82385975D01*
X154934475Y-82179132D01*
X155096990Y-81935911D01*
X155208932Y-81665658D01*
X155266000Y-81378760D01*
X155266000Y-81086240D01*
X155208932Y-80799342D01*
X155096990Y-80529089D01*
X154934475Y-80285868D01*
X154727632Y-80079025D01*
X154553240Y-79962500D01*
X154727632Y-79845975D01*
X154934475Y-79639132D01*
X155096990Y-79395911D01*
X155188079Y-79176000D01*
X179089928Y-79176000D01*
X179089928Y-80876000D01*
X179102188Y-81000482D01*
X179138498Y-81120180D01*
X179197463Y-81230494D01*
X179276815Y-81327185D01*
X179373506Y-81406537D01*
X179483820Y-81465502D01*
X179603518Y-81501812D01*
X179728000Y-81514072D01*
X181428000Y-81514072D01*
X181552482Y-81501812D01*
X181672180Y-81465502D01*
X181782494Y-81406537D01*
X181879185Y-81327185D01*
X181958537Y-81230494D01*
X182017502Y-81120180D01*
X182053812Y-81000482D01*
X182066072Y-80876000D01*
X182066072Y-79176000D01*
X182053812Y-79051518D01*
X182017502Y-78931820D01*
X181958537Y-78821506D01*
X181879185Y-78724815D01*
X181782494Y-78645463D01*
X181672180Y-78586498D01*
X181599620Y-78564487D01*
X181731475Y-78432632D01*
X181893990Y-78189411D01*
X182005932Y-77919158D01*
X182063000Y-77632260D01*
X182063000Y-77339740D01*
X182005932Y-77052842D01*
X181893990Y-76782589D01*
X181731475Y-76539368D01*
X181524632Y-76332525D01*
X181281411Y-76170010D01*
X181011158Y-76058068D01*
X180724260Y-76001000D01*
X180431740Y-76001000D01*
X180144842Y-76058068D01*
X179874589Y-76170010D01*
X179631368Y-76332525D01*
X179424525Y-76539368D01*
X179262010Y-76782589D01*
X179150068Y-77052842D01*
X179093000Y-77339740D01*
X179093000Y-77632260D01*
X179150068Y-77919158D01*
X179262010Y-78189411D01*
X179424525Y-78432632D01*
X179556380Y-78564487D01*
X179483820Y-78586498D01*
X179373506Y-78645463D01*
X179276815Y-78724815D01*
X179197463Y-78821506D01*
X179138498Y-78931820D01*
X179102188Y-79051518D01*
X179089928Y-79176000D01*
X155188079Y-79176000D01*
X155208932Y-79125658D01*
X155266000Y-78838760D01*
X155266000Y-78546240D01*
X155208932Y-78259342D01*
X155096990Y-77989089D01*
X154934475Y-77745868D01*
X154802620Y-77614013D01*
X154875180Y-77592002D01*
X154985494Y-77533037D01*
X155082185Y-77453685D01*
X155161537Y-77356994D01*
X155220502Y-77246680D01*
X155256812Y-77126982D01*
X155269072Y-77002500D01*
X155269072Y-75302500D01*
X155256812Y-75178018D01*
X155220502Y-75058320D01*
X155161537Y-74948006D01*
X155082185Y-74851315D01*
X154985494Y-74771963D01*
X154875180Y-74712998D01*
X154755482Y-74676688D01*
X154631000Y-74664428D01*
X152931000Y-74664428D01*
X152806518Y-74676688D01*
X152686820Y-74712998D01*
X152576506Y-74771963D01*
X152479815Y-74851315D01*
X152400463Y-74948006D01*
X152341498Y-75058320D01*
X152305188Y-75178018D01*
X152292928Y-75302500D01*
X94410000Y-75302500D01*
X94410000Y-74472911D01*
X186374000Y-74472911D01*
X186374000Y-74657089D01*
X186409932Y-74837729D01*
X186480414Y-75007889D01*
X186582738Y-75161028D01*
X186712972Y-75291262D01*
X186866111Y-75393586D01*
X187036271Y-75464068D01*
X187216911Y-75500000D01*
X187401089Y-75500000D01*
X187581729Y-75464068D01*
X187751889Y-75393586D01*
X187905028Y-75291262D01*
X188035262Y-75161028D01*
X188137586Y-75007889D01*
X188208068Y-74837729D01*
X188232153Y-74716648D01*
X189782802Y-73166000D01*
X191678957Y-73166000D01*
X191782363Y-73320759D01*
X191982241Y-73520637D01*
X192214759Y-73676000D01*
X191982241Y-73831363D01*
X191782363Y-74031241D01*
X191625320Y-74266273D01*
X191517147Y-74527426D01*
X191462000Y-74804665D01*
X191462000Y-75087335D01*
X191517147Y-75364574D01*
X191625320Y-75625727D01*
X191782363Y-75860759D01*
X191982241Y-76060637D01*
X192214759Y-76216000D01*
X191982241Y-76371363D01*
X191782363Y-76571241D01*
X191625320Y-76806273D01*
X191517147Y-77067426D01*
X191462000Y-77344665D01*
X191462000Y-77627335D01*
X191517147Y-77904574D01*
X191625320Y-78165727D01*
X191782363Y-78400759D01*
X191982241Y-78600637D01*
X192214759Y-78756000D01*
X191982241Y-78911363D01*
X191782363Y-79111241D01*
X191625320Y-79346273D01*
X191517147Y-79607426D01*
X191462000Y-79884665D01*
X191462000Y-80167335D01*
X191517147Y-80444574D01*
X191625320Y-80705727D01*
X191782363Y-80940759D01*
X191982241Y-81140637D01*
X192214759Y-81296000D01*
X191982241Y-81451363D01*
X191782363Y-81651241D01*
X191625320Y-81886273D01*
X191517147Y-82147426D01*
X191462000Y-82424665D01*
X191462000Y-82707335D01*
X191517147Y-82984574D01*
X191625320Y-83245727D01*
X191782363Y-83480759D01*
X191982241Y-83680637D01*
X192214759Y-83836000D01*
X191982241Y-83991363D01*
X191782363Y-84191241D01*
X191625320Y-84426273D01*
X191517147Y-84687426D01*
X191462000Y-84964665D01*
X191462000Y-85247335D01*
X191517147Y-85524574D01*
X191625320Y-85785727D01*
X191782363Y-86020759D01*
X191982241Y-86220637D01*
X192214759Y-86376000D01*
X191982241Y-86531363D01*
X191782363Y-86731241D01*
X191625320Y-86966273D01*
X191517147Y-87227426D01*
X191462000Y-87504665D01*
X191462000Y-87787335D01*
X191517147Y-88064574D01*
X191625320Y-88325727D01*
X191782363Y-88560759D01*
X191982241Y-88760637D01*
X192217273Y-88917680D01*
X192478426Y-89025853D01*
X192755665Y-89081000D01*
X193038335Y-89081000D01*
X193315574Y-89025853D01*
X193576727Y-88917680D01*
X193811759Y-88760637D01*
X194011637Y-88560759D01*
X194167000Y-88328241D01*
X194322363Y-88560759D01*
X194522241Y-88760637D01*
X194754759Y-88916000D01*
X194522241Y-89071363D01*
X194322363Y-89271241D01*
X194165320Y-89506273D01*
X194057147Y-89767426D01*
X194002000Y-90044665D01*
X194002000Y-90327335D01*
X194057147Y-90604574D01*
X194165320Y-90865727D01*
X194322363Y-91100759D01*
X194522241Y-91300637D01*
X194754759Y-91456000D01*
X194522241Y-91611363D01*
X194322363Y-91811241D01*
X194165320Y-92046273D01*
X194057147Y-92307426D01*
X194002000Y-92584665D01*
X194002000Y-92867335D01*
X194057147Y-93144574D01*
X194165320Y-93405727D01*
X194322363Y-93640759D01*
X194522241Y-93840637D01*
X194754759Y-93996000D01*
X194522241Y-94151363D01*
X194322363Y-94351241D01*
X194165320Y-94586273D01*
X194057147Y-94847426D01*
X194002000Y-95124665D01*
X194002000Y-95407335D01*
X194057147Y-95684574D01*
X194165320Y-95945727D01*
X194322363Y-96180759D01*
X194522241Y-96380637D01*
X194757273Y-96537680D01*
X195018426Y-96645853D01*
X195295665Y-96701000D01*
X195578335Y-96701000D01*
X195855574Y-96645853D01*
X196116727Y-96537680D01*
X196351759Y-96380637D01*
X196551637Y-96180759D01*
X196708680Y-95945727D01*
X196816853Y-95684574D01*
X196872000Y-95407335D01*
X196872000Y-95124665D01*
X196816853Y-94847426D01*
X196708680Y-94586273D01*
X196551637Y-94351241D01*
X196351759Y-94151363D01*
X196119241Y-93996000D01*
X196351759Y-93840637D01*
X196551637Y-93640759D01*
X196708680Y-93405727D01*
X196816853Y-93144574D01*
X196872000Y-92867335D01*
X196872000Y-92584665D01*
X196816853Y-92307426D01*
X196708680Y-92046273D01*
X196551637Y-91811241D01*
X196351759Y-91611363D01*
X196119241Y-91456000D01*
X196351759Y-91300637D01*
X196551637Y-91100759D01*
X196708680Y-90865727D01*
X196816853Y-90604574D01*
X196872000Y-90327335D01*
X196872000Y-90044665D01*
X196816853Y-89767426D01*
X196708680Y-89506273D01*
X196551637Y-89271241D01*
X196351759Y-89071363D01*
X196119241Y-88916000D01*
X196351759Y-88760637D01*
X196551637Y-88560759D01*
X196708680Y-88325727D01*
X196816853Y-88064574D01*
X196872000Y-87787335D01*
X196872000Y-87504665D01*
X196816853Y-87227426D01*
X196708680Y-86966273D01*
X196551637Y-86731241D01*
X196351759Y-86531363D01*
X196119241Y-86376000D01*
X196351759Y-86220637D01*
X196551637Y-86020759D01*
X196708680Y-85785727D01*
X196816853Y-85524574D01*
X196872000Y-85247335D01*
X196872000Y-84964665D01*
X196816853Y-84687426D01*
X196708680Y-84426273D01*
X196551637Y-84191241D01*
X196351759Y-83991363D01*
X196119241Y-83836000D01*
X196351759Y-83680637D01*
X196551637Y-83480759D01*
X196708680Y-83245727D01*
X196816853Y-82984574D01*
X196872000Y-82707335D01*
X196872000Y-82424665D01*
X196816853Y-82147426D01*
X196708680Y-81886273D01*
X196551637Y-81651241D01*
X196351759Y-81451363D01*
X196119241Y-81296000D01*
X196351759Y-81140637D01*
X196551637Y-80940759D01*
X196708680Y-80705727D01*
X196816853Y-80444574D01*
X196872000Y-80167335D01*
X196872000Y-79884665D01*
X196816853Y-79607426D01*
X196708680Y-79346273D01*
X196551637Y-79111241D01*
X196351759Y-78911363D01*
X196119241Y-78756000D01*
X196351759Y-78600637D01*
X196551637Y-78400759D01*
X196708680Y-78165727D01*
X196816853Y-77904574D01*
X196872000Y-77627335D01*
X196872000Y-77344665D01*
X196816853Y-77067426D01*
X196708680Y-76806273D01*
X196551637Y-76571241D01*
X196351759Y-76371363D01*
X196119241Y-76216000D01*
X196351759Y-76060637D01*
X196551637Y-75860759D01*
X196708680Y-75625727D01*
X196816853Y-75364574D01*
X196872000Y-75087335D01*
X196872000Y-74804665D01*
X196816853Y-74527426D01*
X196708680Y-74266273D01*
X196551637Y-74031241D01*
X196351759Y-73831363D01*
X196171490Y-73710911D01*
X203900000Y-73710911D01*
X203900000Y-73895089D01*
X203935932Y-74075729D01*
X204006414Y-74245889D01*
X204108738Y-74399028D01*
X204238972Y-74529262D01*
X204392111Y-74631586D01*
X204426077Y-74645655D01*
X207294346Y-77513924D01*
X207308414Y-77547889D01*
X207410738Y-77701028D01*
X207540972Y-77831262D01*
X207694111Y-77933586D01*
X207864271Y-78004068D01*
X208044911Y-78040000D01*
X208229089Y-78040000D01*
X208409729Y-78004068D01*
X208579889Y-77933586D01*
X208733028Y-77831262D01*
X208863262Y-77701028D01*
X208965586Y-77547889D01*
X209036068Y-77377729D01*
X209072000Y-77197089D01*
X209072000Y-77012911D01*
X209036068Y-76832271D01*
X208965586Y-76662111D01*
X208863262Y-76508972D01*
X208733028Y-76378738D01*
X208579889Y-76276414D01*
X208545924Y-76262346D01*
X205677655Y-73394077D01*
X205663586Y-73360111D01*
X205561262Y-73206972D01*
X205431028Y-73076738D01*
X205277889Y-72974414D01*
X205107729Y-72903932D01*
X204927089Y-72868000D01*
X204742911Y-72868000D01*
X204562271Y-72903932D01*
X204392111Y-72974414D01*
X204238972Y-73076738D01*
X204108738Y-73206972D01*
X204006414Y-73360111D01*
X203935932Y-73530271D01*
X203900000Y-73710911D01*
X196171490Y-73710911D01*
X196119241Y-73676000D01*
X196351759Y-73520637D01*
X196551637Y-73320759D01*
X196708680Y-73085727D01*
X196816853Y-72824574D01*
X196872000Y-72547335D01*
X196872000Y-72264665D01*
X196816853Y-71987426D01*
X196708680Y-71726273D01*
X196551637Y-71491241D01*
X196351759Y-71291363D01*
X196119241Y-71136000D01*
X196351759Y-70980637D01*
X196551637Y-70780759D01*
X196708680Y-70545727D01*
X196816853Y-70284574D01*
X196872000Y-70007335D01*
X196872000Y-69724665D01*
X196816853Y-69447426D01*
X196708680Y-69186273D01*
X196551637Y-68951241D01*
X196351759Y-68751363D01*
X196116727Y-68594320D01*
X196106135Y-68589933D01*
X196292131Y-68478385D01*
X196500519Y-68289414D01*
X196668037Y-68063420D01*
X196788246Y-67809087D01*
X196828904Y-67675039D01*
X196706915Y-67453000D01*
X195564000Y-67453000D01*
X195564000Y-67473000D01*
X195310000Y-67473000D01*
X195310000Y-67453000D01*
X195290000Y-67453000D01*
X195290000Y-67199000D01*
X195310000Y-67199000D01*
X195310000Y-67179000D01*
X195564000Y-67179000D01*
X195564000Y-67199000D01*
X196706915Y-67199000D01*
X196828904Y-66976961D01*
X196788246Y-66842913D01*
X196668037Y-66588580D01*
X196500519Y-66362586D01*
X196292131Y-66173615D01*
X196106135Y-66062067D01*
X196116727Y-66057680D01*
X196351759Y-65900637D01*
X196551637Y-65700759D01*
X196708680Y-65465727D01*
X196816853Y-65204574D01*
X196872000Y-64927335D01*
X196872000Y-64644665D01*
X196816853Y-64367426D01*
X196708680Y-64106273D01*
X196551637Y-63871241D01*
X196351759Y-63671363D01*
X196119241Y-63516000D01*
X196351759Y-63360637D01*
X196551637Y-63160759D01*
X196708680Y-62925727D01*
X196816853Y-62664574D01*
X196872000Y-62387335D01*
X196872000Y-62104665D01*
X196816853Y-61827426D01*
X196708680Y-61566273D01*
X196551637Y-61331241D01*
X196469054Y-61248658D01*
X198123000Y-61248658D01*
X198123000Y-66820658D01*
X198125440Y-66845434D01*
X198132667Y-66869259D01*
X198144403Y-66891215D01*
X198160197Y-66910461D01*
X198179443Y-66926255D01*
X198201399Y-66937991D01*
X198225224Y-66945218D01*
X198250000Y-66947658D01*
X203750000Y-66947658D01*
X203774776Y-66945218D01*
X203798601Y-66937991D01*
X203820557Y-66926255D01*
X203839803Y-66910461D01*
X203855597Y-66891215D01*
X203867333Y-66869259D01*
X203874560Y-66845434D01*
X203877000Y-66820658D01*
X203877000Y-61248658D01*
X203874560Y-61223882D01*
X203867333Y-61200057D01*
X203855597Y-61178101D01*
X203839803Y-61158855D01*
X203820557Y-61143061D01*
X203798601Y-61131325D01*
X203774776Y-61124098D01*
X203750000Y-61121658D01*
X198250000Y-61121658D01*
X198225224Y-61124098D01*
X198201399Y-61131325D01*
X198179443Y-61143061D01*
X198160197Y-61158855D01*
X198144403Y-61178101D01*
X198132667Y-61200057D01*
X198125440Y-61223882D01*
X198123000Y-61248658D01*
X196469054Y-61248658D01*
X196353039Y-61132643D01*
X196361482Y-61131812D01*
X196481180Y-61095502D01*
X196591494Y-61036537D01*
X196688185Y-60957185D01*
X196767537Y-60860494D01*
X196826502Y-60750180D01*
X196862812Y-60630482D01*
X196875072Y-60506000D01*
X196875072Y-58906000D01*
X196862812Y-58781518D01*
X196826502Y-58661820D01*
X196767537Y-58551506D01*
X196688185Y-58454815D01*
X196591494Y-58375463D01*
X196481180Y-58316498D01*
X196361482Y-58280188D01*
X196237000Y-58267928D01*
X194637000Y-58267928D01*
X194512518Y-58280188D01*
X194392820Y-58316498D01*
X194282506Y-58375463D01*
X194185815Y-58454815D01*
X194106463Y-58551506D01*
X194047498Y-58661820D01*
X194011188Y-58781518D01*
X194010357Y-58789961D01*
X193811759Y-58591363D01*
X193576727Y-58434320D01*
X193315574Y-58326147D01*
X193038335Y-58271000D01*
X192755665Y-58271000D01*
X192478426Y-58326147D01*
X192217273Y-58434320D01*
X191982241Y-58591363D01*
X191782363Y-58791241D01*
X191625320Y-59026273D01*
X191517147Y-59287426D01*
X191462000Y-59564665D01*
X191462000Y-59847335D01*
X191510044Y-60088865D01*
X191078909Y-60520000D01*
X190842290Y-60520000D01*
X190826028Y-60503738D01*
X190672889Y-60401414D01*
X190502729Y-60330932D01*
X190322089Y-60295000D01*
X190137911Y-60295000D01*
X189974000Y-60327604D01*
X189974000Y-58877801D01*
X190127649Y-58724153D01*
X190248729Y-58700068D01*
X190418889Y-58629586D01*
X190572028Y-58527262D01*
X190702262Y-58397028D01*
X190804586Y-58243889D01*
X190875068Y-58073729D01*
X190911000Y-57893089D01*
X190911000Y-57708911D01*
X190875068Y-57528271D01*
X190804586Y-57358111D01*
X190702262Y-57204972D01*
X190572028Y-57074738D01*
X190418889Y-56972414D01*
X190248729Y-56901932D01*
X190068089Y-56866000D01*
X189883911Y-56866000D01*
X189703271Y-56901932D01*
X189533111Y-56972414D01*
X189379972Y-57074738D01*
X189249738Y-57204972D01*
X189147414Y-57358111D01*
X189076932Y-57528271D01*
X189052847Y-57649351D01*
X188702998Y-57999201D01*
X188674000Y-58022999D01*
X188650202Y-58051997D01*
X188650201Y-58051998D01*
X188579026Y-58138724D01*
X188508454Y-58270754D01*
X188464998Y-58414015D01*
X188450324Y-58563000D01*
X188454001Y-58600332D01*
X188454000Y-62462677D01*
X188450324Y-62500000D01*
X188454000Y-62537322D01*
X188454000Y-62537332D01*
X188464997Y-62648985D01*
X188492910Y-62741002D01*
X188508454Y-62792246D01*
X188579026Y-62924276D01*
X188596946Y-62946111D01*
X188673999Y-63040001D01*
X188703002Y-63063803D01*
X189179847Y-63540649D01*
X189203932Y-63661729D01*
X189274414Y-63831889D01*
X189376738Y-63985028D01*
X189506972Y-64115262D01*
X189660111Y-64217586D01*
X189830271Y-64288068D01*
X190010911Y-64324000D01*
X190195089Y-64324000D01*
X190375729Y-64288068D01*
X190545889Y-64217586D01*
X190699028Y-64115262D01*
X190829262Y-63985028D01*
X190931586Y-63831889D01*
X191002068Y-63661729D01*
X191038000Y-63481089D01*
X191038000Y-63296911D01*
X191002068Y-63116271D01*
X190931586Y-62946111D01*
X190829262Y-62792972D01*
X190699028Y-62662738D01*
X190545889Y-62560414D01*
X190375729Y-62489932D01*
X190254649Y-62465847D01*
X189974000Y-62185199D01*
X189974000Y-62132396D01*
X190137911Y-62165000D01*
X190322089Y-62165000D01*
X190502729Y-62129068D01*
X190672889Y-62058586D01*
X190826028Y-61956262D01*
X190842290Y-61940000D01*
X191338125Y-61940000D01*
X191373000Y-61943435D01*
X191407875Y-61940000D01*
X191407877Y-61940000D01*
X191496490Y-61931273D01*
X191462000Y-62104665D01*
X191462000Y-62387335D01*
X191517147Y-62664574D01*
X191625320Y-62925727D01*
X191782363Y-63160759D01*
X191982241Y-63360637D01*
X192214759Y-63516000D01*
X191982241Y-63671363D01*
X191782363Y-63871241D01*
X191625320Y-64106273D01*
X191517147Y-64367426D01*
X191462000Y-64644665D01*
X191462000Y-64927335D01*
X191517147Y-65204574D01*
X191625320Y-65465727D01*
X191782363Y-65700759D01*
X191982241Y-65900637D01*
X192214759Y-66056000D01*
X191982241Y-66211363D01*
X191782363Y-66411241D01*
X191625320Y-66646273D01*
X191517147Y-66907426D01*
X191462000Y-67184665D01*
X191462000Y-67467335D01*
X191517147Y-67744574D01*
X191625320Y-68005727D01*
X191782363Y-68240759D01*
X191982241Y-68440637D01*
X192214759Y-68596000D01*
X191982241Y-68751363D01*
X191782363Y-68951241D01*
X191625320Y-69186273D01*
X191517147Y-69447426D01*
X191462000Y-69724665D01*
X191462000Y-70007335D01*
X191517147Y-70284574D01*
X191625320Y-70545727D01*
X191782363Y-70780759D01*
X191982241Y-70980637D01*
X192214759Y-71136000D01*
X191982241Y-71291363D01*
X191782363Y-71491241D01*
X191678957Y-71646000D01*
X189505322Y-71646000D01*
X189467999Y-71642324D01*
X189430676Y-71646000D01*
X189430667Y-71646000D01*
X189319014Y-71656997D01*
X189175753Y-71700454D01*
X189043723Y-71771026D01*
X189000591Y-71806424D01*
X188927999Y-71865999D01*
X188904201Y-71894997D01*
X187157352Y-73641847D01*
X187036271Y-73665932D01*
X186866111Y-73736414D01*
X186712972Y-73838738D01*
X186582738Y-73968972D01*
X186480414Y-74122111D01*
X186409932Y-74292271D01*
X186374000Y-74472911D01*
X94410000Y-74472911D01*
X94410000Y-69866000D01*
X131429000Y-69866000D01*
X131429000Y-70374000D01*
X131431440Y-70398776D01*
X131438667Y-70422601D01*
X131450403Y-70444557D01*
X131466197Y-70463803D01*
X131485443Y-70479597D01*
X131507399Y-70491333D01*
X131531224Y-70498560D01*
X131556000Y-70501000D01*
X138160000Y-70501000D01*
X138184776Y-70498560D01*
X138208601Y-70491333D01*
X138230557Y-70479597D01*
X138249803Y-70463803D01*
X139773803Y-68939803D01*
X139789456Y-68920768D01*
X139801235Y-68898835D01*
X139808510Y-68875025D01*
X139811000Y-68850253D01*
X139821392Y-63643000D01*
X140216000Y-63643000D01*
X140216000Y-63943000D01*
X140281800Y-64357078D01*
X140427118Y-64750362D01*
X140646370Y-65107739D01*
X140931130Y-65415475D01*
X141270454Y-65661744D01*
X141651303Y-65837083D01*
X141892167Y-65901113D01*
X142224000Y-65788165D01*
X142224000Y-63643000D01*
X142478000Y-63643000D01*
X142478000Y-65788165D01*
X142809833Y-65901113D01*
X143050697Y-65837083D01*
X143431546Y-65661744D01*
X143770870Y-65415475D01*
X144055630Y-65107739D01*
X144274882Y-64750362D01*
X144420200Y-64357078D01*
X144486000Y-63943000D01*
X144486000Y-63643000D01*
X142478000Y-63643000D01*
X142224000Y-63643000D01*
X140216000Y-63643000D01*
X139821392Y-63643000D01*
X139822497Y-63089000D01*
X140216000Y-63089000D01*
X140216000Y-63389000D01*
X142224000Y-63389000D01*
X142224000Y-61243835D01*
X142478000Y-61243835D01*
X142478000Y-63389000D01*
X144486000Y-63389000D01*
X144486000Y-63089000D01*
X144420200Y-62674922D01*
X144274882Y-62281638D01*
X144055630Y-61924261D01*
X143770870Y-61616525D01*
X143431546Y-61370256D01*
X143050697Y-61194917D01*
X142809833Y-61130887D01*
X142478000Y-61243835D01*
X142224000Y-61243835D01*
X141892167Y-61130887D01*
X141651303Y-61194917D01*
X141270454Y-61370256D01*
X140931130Y-61616525D01*
X140646370Y-61924261D01*
X140427118Y-62281638D01*
X140281800Y-62674922D01*
X140216000Y-63089000D01*
X139822497Y-63089000D01*
X139826747Y-60960000D01*
X147998714Y-60960000D01*
X147999414Y-60961689D01*
X148101738Y-61114828D01*
X148207343Y-61220433D01*
X147849533Y-61111892D01*
X147431000Y-61070670D01*
X147012468Y-61111892D01*
X146610019Y-61233974D01*
X146239120Y-61432223D01*
X145914024Y-61699023D01*
X145647223Y-62024119D01*
X145448974Y-62395018D01*
X145326892Y-62797467D01*
X145296000Y-63111118D01*
X145296000Y-63920881D01*
X145326892Y-64234532D01*
X145448974Y-64636981D01*
X145647223Y-65007881D01*
X145914023Y-65332977D01*
X146239119Y-65599777D01*
X146610018Y-65798026D01*
X147012467Y-65920108D01*
X147431000Y-65961330D01*
X147849532Y-65920108D01*
X148251981Y-65798026D01*
X148622881Y-65599777D01*
X148947977Y-65332977D01*
X149214777Y-65007881D01*
X149413026Y-64636982D01*
X149535108Y-64234533D01*
X149566000Y-63920882D01*
X149566000Y-63111119D01*
X149535108Y-62797468D01*
X149413026Y-62395019D01*
X149214777Y-62024119D01*
X148947977Y-61699023D01*
X148622881Y-61432223D01*
X148620180Y-61430779D01*
X148735911Y-61453800D01*
X148920089Y-61453800D01*
X149100729Y-61417868D01*
X149270889Y-61347386D01*
X149424028Y-61245062D01*
X149554262Y-61114828D01*
X149656586Y-60961689D01*
X149657286Y-60960000D01*
X150240822Y-60960000D01*
X150225000Y-72288223D01*
X150227440Y-72313176D01*
X150234667Y-72337001D01*
X150246403Y-72358957D01*
X150262197Y-72378203D01*
X150281443Y-72393997D01*
X150303399Y-72405733D01*
X150327224Y-72412960D01*
X150352000Y-72415400D01*
X159750000Y-72415400D01*
X159774776Y-72412960D01*
X159798601Y-72405733D01*
X159820557Y-72393997D01*
X159839803Y-72378203D01*
X159855597Y-72358957D01*
X159867333Y-72337001D01*
X159874560Y-72313176D01*
X159877000Y-72288400D01*
X159877000Y-71831200D01*
X159874560Y-71806424D01*
X159867333Y-71782599D01*
X159855597Y-71760643D01*
X159839803Y-71741397D01*
X159820557Y-71725603D01*
X159798601Y-71713867D01*
X159774776Y-71706640D01*
X159750000Y-71704200D01*
X150987000Y-71704200D01*
X150987000Y-68948411D01*
X155767000Y-68948411D01*
X155767000Y-69132589D01*
X155802932Y-69313229D01*
X155873414Y-69483389D01*
X155975738Y-69636528D01*
X156105972Y-69766762D01*
X156259111Y-69869086D01*
X156429271Y-69939568D01*
X156594485Y-69972432D01*
X156722568Y-70100515D01*
X156755432Y-70265729D01*
X156825914Y-70435889D01*
X156928238Y-70589028D01*
X157058472Y-70719262D01*
X157211611Y-70821586D01*
X157381771Y-70892068D01*
X157562411Y-70928000D01*
X157746589Y-70928000D01*
X157927229Y-70892068D01*
X158097389Y-70821586D01*
X158250528Y-70719262D01*
X158371529Y-70598261D01*
X158406432Y-70773729D01*
X158476914Y-70943889D01*
X158579238Y-71097028D01*
X158709472Y-71227262D01*
X158862611Y-71329586D01*
X159032771Y-71400068D01*
X159213411Y-71436000D01*
X159397589Y-71436000D01*
X159578229Y-71400068D01*
X159602535Y-71390000D01*
X161909000Y-71390000D01*
X161909000Y-71898000D01*
X161911440Y-71922776D01*
X161918667Y-71946601D01*
X161930403Y-71968557D01*
X161946197Y-71987803D01*
X161965443Y-72003597D01*
X161987399Y-72015333D01*
X162011224Y-72022560D01*
X162036000Y-72025000D01*
X167370000Y-72025000D01*
X167394776Y-72022560D01*
X167418601Y-72015333D01*
X167440557Y-72003597D01*
X167459803Y-71987803D01*
X169745803Y-69701803D01*
X169761597Y-69682557D01*
X169773333Y-69660601D01*
X169780560Y-69636776D01*
X169783000Y-69612000D01*
X169783000Y-63643000D01*
X170061000Y-63643000D01*
X170061000Y-63943000D01*
X170126800Y-64357078D01*
X170272118Y-64750362D01*
X170491370Y-65107739D01*
X170776130Y-65415475D01*
X171115454Y-65661744D01*
X171496303Y-65837083D01*
X171737167Y-65901113D01*
X172069000Y-65788165D01*
X172069000Y-63643000D01*
X172323000Y-63643000D01*
X172323000Y-65788165D01*
X172654833Y-65901113D01*
X172895697Y-65837083D01*
X173276546Y-65661744D01*
X173615870Y-65415475D01*
X173900630Y-65107739D01*
X174119882Y-64750362D01*
X174265200Y-64357078D01*
X174331000Y-63943000D01*
X174331000Y-63643000D01*
X172323000Y-63643000D01*
X172069000Y-63643000D01*
X170061000Y-63643000D01*
X169783000Y-63643000D01*
X169783000Y-63089000D01*
X170061000Y-63089000D01*
X170061000Y-63389000D01*
X172069000Y-63389000D01*
X172069000Y-61243835D01*
X172323000Y-61243835D01*
X172323000Y-63389000D01*
X174331000Y-63389000D01*
X174331000Y-63111118D01*
X175141000Y-63111118D01*
X175141000Y-63920881D01*
X175171892Y-64234532D01*
X175293974Y-64636981D01*
X175492223Y-65007881D01*
X175759023Y-65332977D01*
X176084119Y-65599777D01*
X176455018Y-65798026D01*
X176857467Y-65920108D01*
X177276000Y-65961330D01*
X177694532Y-65920108D01*
X178096981Y-65798026D01*
X178467881Y-65599777D01*
X178792977Y-65332977D01*
X179059777Y-65007881D01*
X179258026Y-64636982D01*
X179380108Y-64234533D01*
X179411000Y-63920882D01*
X179411000Y-63111119D01*
X179380108Y-62797468D01*
X179258026Y-62395019D01*
X179059777Y-62024119D01*
X178792977Y-61699023D01*
X178467881Y-61432223D01*
X178096982Y-61233974D01*
X177694533Y-61111892D01*
X177276000Y-61070670D01*
X176857468Y-61111892D01*
X176455019Y-61233974D01*
X176084120Y-61432223D01*
X175759024Y-61699023D01*
X175492223Y-62024119D01*
X175293974Y-62395018D01*
X175171892Y-62797467D01*
X175141000Y-63111118D01*
X174331000Y-63111118D01*
X174331000Y-63089000D01*
X174265200Y-62674922D01*
X174119882Y-62281638D01*
X173900630Y-61924261D01*
X173615870Y-61616525D01*
X173276546Y-61370256D01*
X172895697Y-61194917D01*
X172654833Y-61130887D01*
X172323000Y-61243835D01*
X172069000Y-61243835D01*
X171737167Y-61130887D01*
X171496303Y-61194917D01*
X171115454Y-61370256D01*
X170776130Y-61616525D01*
X170491370Y-61924261D01*
X170272118Y-62281638D01*
X170126800Y-62674922D01*
X170061000Y-63089000D01*
X169783000Y-63089000D01*
X169783000Y-60849000D01*
X179689000Y-60849000D01*
X179689000Y-69358000D01*
X179691440Y-69382776D01*
X179698667Y-69406601D01*
X179710403Y-69428557D01*
X179726197Y-69447803D01*
X179745443Y-69463597D01*
X179767399Y-69475333D01*
X179791224Y-69482560D01*
X179816000Y-69485000D01*
X180324000Y-69485000D01*
X180348776Y-69482560D01*
X180372601Y-69475333D01*
X180394557Y-69463597D01*
X180413803Y-69447803D01*
X180429597Y-69428557D01*
X180441333Y-69406601D01*
X180448560Y-69382776D01*
X180451000Y-69358000D01*
X180451000Y-60214000D01*
X180448560Y-60189224D01*
X180441333Y-60165399D01*
X180429597Y-60143443D01*
X180413803Y-60124197D01*
X180394557Y-60108403D01*
X180372601Y-60096667D01*
X180348776Y-60089440D01*
X180324000Y-60087000D01*
X169148000Y-60087000D01*
X169123224Y-60089440D01*
X169099399Y-60096667D01*
X169077443Y-60108403D01*
X169058197Y-60124197D01*
X169042403Y-60143443D01*
X169030667Y-60165399D01*
X169023440Y-60189224D01*
X169021000Y-60214000D01*
X169021000Y-65418990D01*
X169019389Y-65417914D01*
X168849229Y-65347432D01*
X168668589Y-65311500D01*
X168484411Y-65311500D01*
X168303771Y-65347432D01*
X168133611Y-65417914D01*
X167980472Y-65520238D01*
X167850238Y-65650472D01*
X167747914Y-65803611D01*
X167677432Y-65973771D01*
X167644568Y-66138985D01*
X167516485Y-66267068D01*
X167351271Y-66299932D01*
X167181111Y-66370414D01*
X167027972Y-66472738D01*
X166897738Y-66602972D01*
X166795414Y-66756111D01*
X166724932Y-66926271D01*
X166689000Y-67106911D01*
X166689000Y-67291089D01*
X166724932Y-67471729D01*
X166795414Y-67641889D01*
X166897738Y-67795028D01*
X167027972Y-67925262D01*
X167181111Y-68027586D01*
X167351271Y-68098068D01*
X167531911Y-68134000D01*
X167716089Y-68134000D01*
X167896729Y-68098068D01*
X168066889Y-68027586D01*
X168220028Y-67925262D01*
X168350262Y-67795028D01*
X168452586Y-67641889D01*
X168523068Y-67471729D01*
X168555932Y-67306515D01*
X168684015Y-67178432D01*
X168849229Y-67145568D01*
X169019389Y-67075086D01*
X169021000Y-67074010D01*
X169021000Y-69305394D01*
X167063394Y-71263000D01*
X162036000Y-71263000D01*
X162011224Y-71265440D01*
X161987399Y-71272667D01*
X161965443Y-71284403D01*
X161946197Y-71300197D01*
X161930403Y-71319443D01*
X161918667Y-71341399D01*
X161911440Y-71365224D01*
X161909000Y-71390000D01*
X159602535Y-71390000D01*
X159748389Y-71329586D01*
X159901528Y-71227262D01*
X160031762Y-71097028D01*
X160134086Y-70943889D01*
X160204568Y-70773729D01*
X160240500Y-70593089D01*
X160240500Y-70408911D01*
X160204568Y-70228271D01*
X160134086Y-70058111D01*
X160065500Y-69955465D01*
X160065500Y-69078035D01*
X160134086Y-68975389D01*
X160204568Y-68805229D01*
X160240500Y-68624589D01*
X160240500Y-68440411D01*
X160204568Y-68259771D01*
X160134086Y-68089611D01*
X160031762Y-67936472D01*
X159901528Y-67806238D01*
X159748389Y-67703914D01*
X159578229Y-67633432D01*
X159397589Y-67597500D01*
X159213411Y-67597500D01*
X159032771Y-67633432D01*
X158862611Y-67703914D01*
X158709472Y-67806238D01*
X158579238Y-67936472D01*
X158476914Y-68089611D01*
X158406432Y-68259771D01*
X158370500Y-68440411D01*
X158370500Y-68624589D01*
X158406432Y-68805229D01*
X158476914Y-68975389D01*
X158545501Y-69078037D01*
X158545500Y-69700794D01*
X158483086Y-69550111D01*
X158380762Y-69396972D01*
X158250528Y-69266738D01*
X158097389Y-69164414D01*
X157927229Y-69093932D01*
X157762015Y-69061068D01*
X157633932Y-68932985D01*
X157601068Y-68767771D01*
X157530586Y-68597611D01*
X157428262Y-68444472D01*
X157298028Y-68314238D01*
X157144889Y-68211914D01*
X156974729Y-68141432D01*
X156794089Y-68105500D01*
X156609911Y-68105500D01*
X156429271Y-68141432D01*
X156259111Y-68211914D01*
X156105972Y-68314238D01*
X155975738Y-68444472D01*
X155873414Y-68597611D01*
X155802932Y-68767771D01*
X155767000Y-68948411D01*
X150987000Y-68948411D01*
X150987000Y-64439911D01*
X166181000Y-64439911D01*
X166181000Y-64624089D01*
X166216932Y-64804729D01*
X166287414Y-64974889D01*
X166389738Y-65128028D01*
X166519972Y-65258262D01*
X166673111Y-65360586D01*
X166843271Y-65431068D01*
X167023911Y-65467000D01*
X167208089Y-65467000D01*
X167388729Y-65431068D01*
X167558889Y-65360586D01*
X167712028Y-65258262D01*
X167842262Y-65128028D01*
X167944586Y-64974889D01*
X168015068Y-64804729D01*
X168051000Y-64624089D01*
X168051000Y-64439911D01*
X168015068Y-64259271D01*
X167944586Y-64089111D01*
X167876000Y-63986465D01*
X167876000Y-62673000D01*
X167970089Y-62673000D01*
X168150729Y-62637068D01*
X168320889Y-62566586D01*
X168474028Y-62464262D01*
X168604262Y-62334028D01*
X168706586Y-62180889D01*
X168777068Y-62010729D01*
X168813000Y-61830089D01*
X168813000Y-61645911D01*
X168777068Y-61465271D01*
X168706586Y-61295111D01*
X168604262Y-61141972D01*
X168474028Y-61011738D01*
X168320889Y-60909414D01*
X168150729Y-60838932D01*
X167970089Y-60803000D01*
X167785911Y-60803000D01*
X167605271Y-60838932D01*
X167435111Y-60909414D01*
X167332430Y-60978023D01*
X167221014Y-60988997D01*
X167077753Y-61032454D01*
X166945724Y-61103026D01*
X166829999Y-61197999D01*
X166806196Y-61227003D01*
X166605003Y-61428196D01*
X166575999Y-61451999D01*
X166534128Y-61503020D01*
X166481026Y-61567724D01*
X166454941Y-61616525D01*
X166410454Y-61699754D01*
X166366997Y-61843015D01*
X166356000Y-61954668D01*
X166356000Y-61954678D01*
X166352324Y-61992000D01*
X166356000Y-62029323D01*
X166356001Y-63986463D01*
X166287414Y-64089111D01*
X166216932Y-64259271D01*
X166181000Y-64439911D01*
X150987000Y-64439911D01*
X150987000Y-60468000D01*
X150984560Y-60443224D01*
X150977333Y-60419399D01*
X150965597Y-60397443D01*
X150949803Y-60378197D01*
X150930557Y-60362403D01*
X150908601Y-60350667D01*
X150884776Y-60343440D01*
X150860000Y-60341000D01*
X149745951Y-60341000D01*
X149727068Y-60246071D01*
X149656586Y-60075911D01*
X149588000Y-59973265D01*
X149588000Y-59172035D01*
X149656586Y-59069389D01*
X149727068Y-58899229D01*
X149763000Y-58718589D01*
X149763000Y-58534411D01*
X149727068Y-58353771D01*
X149656586Y-58183611D01*
X149554262Y-58030472D01*
X149424028Y-57900238D01*
X149270889Y-57797914D01*
X149100729Y-57727432D01*
X148920089Y-57691500D01*
X148735911Y-57691500D01*
X148555271Y-57727432D01*
X148385111Y-57797914D01*
X148231972Y-57900238D01*
X148101738Y-58030472D01*
X147999414Y-58183611D01*
X147928932Y-58353771D01*
X147893000Y-58534411D01*
X147893000Y-58718589D01*
X147928932Y-58899229D01*
X147999414Y-59069389D01*
X148068000Y-59172036D01*
X148068001Y-59973264D01*
X147999414Y-60075911D01*
X147928932Y-60246071D01*
X147910049Y-60341000D01*
X139176000Y-60341000D01*
X139151224Y-60343440D01*
X139127399Y-60350667D01*
X139105443Y-60362403D01*
X139086197Y-60378197D01*
X139070403Y-60397443D01*
X139058667Y-60419399D01*
X139051440Y-60443224D01*
X139049000Y-60468000D01*
X139049000Y-68543394D01*
X137853394Y-69739000D01*
X131556000Y-69739000D01*
X131531224Y-69741440D01*
X131507399Y-69748667D01*
X131485443Y-69760403D01*
X131466197Y-69776197D01*
X131450403Y-69795443D01*
X131438667Y-69817399D01*
X131431440Y-69841224D01*
X131429000Y-69866000D01*
X94410000Y-69866000D01*
X94410000Y-61250000D01*
X96123000Y-61250000D01*
X96123000Y-66750000D01*
X96125440Y-66774776D01*
X96132667Y-66798601D01*
X96144403Y-66820557D01*
X96160197Y-66839803D01*
X96179443Y-66855597D01*
X96201399Y-66867333D01*
X96225224Y-66874560D01*
X96250000Y-66877000D01*
X101750000Y-66877000D01*
X101774776Y-66874560D01*
X101798601Y-66867333D01*
X101820557Y-66855597D01*
X101839803Y-66839803D01*
X101855597Y-66820557D01*
X101867333Y-66798601D01*
X101874560Y-66774776D01*
X101877000Y-66750000D01*
X101877000Y-63643000D01*
X110371000Y-63643000D01*
X110371000Y-63943000D01*
X110436800Y-64357078D01*
X110582118Y-64750362D01*
X110801370Y-65107739D01*
X111086130Y-65415475D01*
X111425454Y-65661744D01*
X111806303Y-65837083D01*
X112047167Y-65901113D01*
X112379000Y-65788165D01*
X112379000Y-63643000D01*
X112633000Y-63643000D01*
X112633000Y-65788165D01*
X112964833Y-65901113D01*
X113205697Y-65837083D01*
X113586546Y-65661744D01*
X113925870Y-65415475D01*
X114210630Y-65107739D01*
X114429882Y-64750362D01*
X114575200Y-64357078D01*
X114641000Y-63943000D01*
X114641000Y-63643000D01*
X112633000Y-63643000D01*
X112379000Y-63643000D01*
X110371000Y-63643000D01*
X101877000Y-63643000D01*
X101877000Y-63089000D01*
X110371000Y-63089000D01*
X110371000Y-63389000D01*
X112379000Y-63389000D01*
X112379000Y-61243835D01*
X112633000Y-61243835D01*
X112633000Y-63389000D01*
X114641000Y-63389000D01*
X114641000Y-63111118D01*
X115451000Y-63111118D01*
X115451000Y-63920881D01*
X115481892Y-64234532D01*
X115603974Y-64636981D01*
X115802223Y-65007881D01*
X116069023Y-65332977D01*
X116394119Y-65599777D01*
X116765018Y-65798026D01*
X117167467Y-65920108D01*
X117586000Y-65961330D01*
X118004532Y-65920108D01*
X118406981Y-65798026D01*
X118777881Y-65599777D01*
X119102977Y-65332977D01*
X119369777Y-65007881D01*
X119568026Y-64636982D01*
X119690108Y-64234533D01*
X119721000Y-63920882D01*
X119721000Y-63111119D01*
X119690108Y-62797468D01*
X119681316Y-62768485D01*
X120840802Y-61609000D01*
X122986199Y-61609000D01*
X126744701Y-65367503D01*
X126744700Y-67936164D01*
X126676114Y-68038811D01*
X126605632Y-68208971D01*
X126569700Y-68389611D01*
X126569700Y-68573789D01*
X126605632Y-68754429D01*
X126676114Y-68924589D01*
X126778438Y-69077728D01*
X126908672Y-69207962D01*
X127061811Y-69310286D01*
X127231971Y-69380768D01*
X127412611Y-69416700D01*
X127596789Y-69416700D01*
X127777429Y-69380768D01*
X127947589Y-69310286D01*
X128100728Y-69207962D01*
X128230962Y-69077728D01*
X128333286Y-68924589D01*
X128403768Y-68754429D01*
X128439700Y-68573789D01*
X128439700Y-68389611D01*
X128403768Y-68208971D01*
X128333286Y-68038811D01*
X128264700Y-67936165D01*
X128264700Y-65090033D01*
X128268377Y-65052700D01*
X128253703Y-64903714D01*
X128210246Y-64760453D01*
X128139674Y-64628424D01*
X128068499Y-64541697D01*
X128044701Y-64512699D01*
X128015703Y-64488901D01*
X123864804Y-60338003D01*
X123841001Y-60308999D01*
X123725276Y-60214026D01*
X123593247Y-60143454D01*
X123449986Y-60099997D01*
X123338333Y-60089000D01*
X123338322Y-60089000D01*
X123301000Y-60085324D01*
X123263678Y-60089000D01*
X120563322Y-60089000D01*
X120525999Y-60085324D01*
X120488676Y-60089000D01*
X120488667Y-60089000D01*
X120377014Y-60099997D01*
X120233753Y-60143454D01*
X120101724Y-60214026D01*
X119985999Y-60308999D01*
X119962201Y-60337997D01*
X118827365Y-61472833D01*
X118777881Y-61432223D01*
X118406982Y-61233974D01*
X118004533Y-61111892D01*
X117586000Y-61070670D01*
X117167468Y-61111892D01*
X116765019Y-61233974D01*
X116394120Y-61432223D01*
X116069024Y-61699023D01*
X115802223Y-62024119D01*
X115603974Y-62395018D01*
X115481892Y-62797467D01*
X115451000Y-63111118D01*
X114641000Y-63111118D01*
X114641000Y-63089000D01*
X114575200Y-62674922D01*
X114429882Y-62281638D01*
X114210630Y-61924261D01*
X113925870Y-61616525D01*
X113586546Y-61370256D01*
X113205697Y-61194917D01*
X112964833Y-61130887D01*
X112633000Y-61243835D01*
X112379000Y-61243835D01*
X112047167Y-61130887D01*
X111806303Y-61194917D01*
X111425454Y-61370256D01*
X111086130Y-61616525D01*
X110801370Y-61924261D01*
X110582118Y-62281638D01*
X110436800Y-62674922D01*
X110371000Y-63089000D01*
X101877000Y-63089000D01*
X101877000Y-61250000D01*
X101874560Y-61225224D01*
X101867333Y-61201399D01*
X101855597Y-61179443D01*
X101839803Y-61160197D01*
X101820557Y-61144403D01*
X101798601Y-61132667D01*
X101774776Y-61125440D01*
X101750000Y-61123000D01*
X96250000Y-61123000D01*
X96225224Y-61125440D01*
X96201399Y-61132667D01*
X96179443Y-61144403D01*
X96160197Y-61160197D01*
X96144403Y-61179443D01*
X96132667Y-61201399D01*
X96125440Y-61225224D01*
X96123000Y-61250000D01*
X94410000Y-61250000D01*
X94410000Y-58154155D01*
X94771161Y-58694670D01*
X95305330Y-59228839D01*
X95933446Y-59648533D01*
X96631372Y-59937623D01*
X97372285Y-60085000D01*
X98127715Y-60085000D01*
X98868628Y-59937623D01*
X99566554Y-59648533D01*
X100194670Y-59228839D01*
X100728839Y-58694670D01*
X101148533Y-58066554D01*
X101437623Y-57368628D01*
X101585000Y-56627715D01*
X101585000Y-56375411D01*
X127382500Y-56375411D01*
X127382500Y-56559589D01*
X127418432Y-56740229D01*
X127488914Y-56910389D01*
X127557500Y-57013036D01*
X127557501Y-58334963D01*
X127488914Y-58437611D01*
X127418432Y-58607771D01*
X127382500Y-58788411D01*
X127382500Y-58972589D01*
X127418432Y-59153229D01*
X127488914Y-59323389D01*
X127591238Y-59476528D01*
X127721472Y-59606762D01*
X127874611Y-59709086D01*
X128044771Y-59779568D01*
X128225411Y-59815500D01*
X128409589Y-59815500D01*
X128590229Y-59779568D01*
X128760389Y-59709086D01*
X128913528Y-59606762D01*
X128920750Y-59599540D01*
X128927972Y-59606762D01*
X129081111Y-59709086D01*
X129251271Y-59779568D01*
X129431911Y-59815500D01*
X129616089Y-59815500D01*
X129796729Y-59779568D01*
X129966889Y-59709086D01*
X130120028Y-59606762D01*
X130127250Y-59599540D01*
X130134472Y-59606762D01*
X130287611Y-59709086D01*
X130457771Y-59779568D01*
X130638411Y-59815500D01*
X130822589Y-59815500D01*
X131003229Y-59779568D01*
X131173389Y-59709086D01*
X131326528Y-59606762D01*
X131333750Y-59599540D01*
X131340972Y-59606762D01*
X131494111Y-59709086D01*
X131664271Y-59779568D01*
X131844911Y-59815500D01*
X132029089Y-59815500D01*
X132209729Y-59779568D01*
X132379889Y-59709086D01*
X132533028Y-59606762D01*
X132540250Y-59599540D01*
X132547472Y-59606762D01*
X132700611Y-59709086D01*
X132870771Y-59779568D01*
X133051411Y-59815500D01*
X133235589Y-59815500D01*
X133416229Y-59779568D01*
X133586389Y-59709086D01*
X133739528Y-59606762D01*
X133869762Y-59476528D01*
X133972086Y-59323389D01*
X134042568Y-59153229D01*
X134078500Y-58972589D01*
X134078500Y-58788411D01*
X134042568Y-58607771D01*
X133972086Y-58437611D01*
X133903500Y-58334965D01*
X133903500Y-57013035D01*
X133972086Y-56910389D01*
X134042568Y-56740229D01*
X134050110Y-56702311D01*
X144200600Y-56702311D01*
X144200600Y-56886489D01*
X144236532Y-57067129D01*
X144307014Y-57237289D01*
X144375600Y-57339936D01*
X144375601Y-58064963D01*
X144307014Y-58167611D01*
X144236532Y-58337771D01*
X144200600Y-58518411D01*
X144200600Y-58702589D01*
X144236532Y-58883229D01*
X144307014Y-59053389D01*
X144409338Y-59206528D01*
X144539572Y-59336762D01*
X144692711Y-59439086D01*
X144862871Y-59509568D01*
X145043511Y-59545500D01*
X145227689Y-59545500D01*
X145408329Y-59509568D01*
X145578489Y-59439086D01*
X145731628Y-59336762D01*
X145861862Y-59206528D01*
X145964186Y-59053389D01*
X146034668Y-58883229D01*
X146070600Y-58702589D01*
X146070600Y-58518411D01*
X146034668Y-58337771D01*
X145964186Y-58167611D01*
X145895600Y-58064965D01*
X145895600Y-57339935D01*
X145964186Y-57237289D01*
X146020285Y-57101851D01*
X149429700Y-57101851D01*
X149429700Y-57286029D01*
X149465632Y-57466669D01*
X149536114Y-57636829D01*
X149638438Y-57789968D01*
X149768672Y-57920202D01*
X149921811Y-58022526D01*
X150091971Y-58093008D01*
X150257185Y-58125872D01*
X150448768Y-58317455D01*
X150481632Y-58482669D01*
X150552114Y-58652829D01*
X150654438Y-58805968D01*
X150784672Y-58936202D01*
X150937811Y-59038526D01*
X151107971Y-59109008D01*
X151288611Y-59144940D01*
X151472789Y-59144940D01*
X151653429Y-59109008D01*
X151823589Y-59038526D01*
X151976728Y-58936202D01*
X152106962Y-58805968D01*
X152161122Y-58724911D01*
X152338000Y-58724911D01*
X152338000Y-58909089D01*
X152373932Y-59089729D01*
X152444414Y-59259889D01*
X152546738Y-59413028D01*
X152676972Y-59543262D01*
X152830111Y-59645586D01*
X153000271Y-59716068D01*
X153180911Y-59752000D01*
X153365089Y-59752000D01*
X153545729Y-59716068D01*
X153715889Y-59645586D01*
X153869028Y-59543262D01*
X153999262Y-59413028D01*
X154101586Y-59259889D01*
X154172068Y-59089729D01*
X154208000Y-58909089D01*
X154208000Y-58724911D01*
X154172068Y-58544271D01*
X154101586Y-58374111D01*
X154033000Y-58271465D01*
X154033000Y-57734801D01*
X155492802Y-56275000D01*
X160532421Y-56275000D01*
X159040155Y-57767266D01*
X158978489Y-57755000D01*
X158794311Y-57755000D01*
X158613671Y-57790932D01*
X158443511Y-57861414D01*
X158290372Y-57963738D01*
X158160138Y-58093972D01*
X158057814Y-58247111D01*
X157987332Y-58417271D01*
X157951400Y-58597911D01*
X157951400Y-58782089D01*
X157987332Y-58962729D01*
X158057814Y-59132889D01*
X158160138Y-59286028D01*
X158290372Y-59416262D01*
X158443511Y-59518586D01*
X158613671Y-59589068D01*
X158794311Y-59625000D01*
X158978489Y-59625000D01*
X159159129Y-59589068D01*
X159193092Y-59575000D01*
X159325531Y-59575000D01*
X159369000Y-59579281D01*
X159412469Y-59575000D01*
X159412477Y-59575000D01*
X159542490Y-59562195D01*
X159709313Y-59511589D01*
X159863059Y-59429411D01*
X159997817Y-59318817D01*
X160025534Y-59285044D01*
X161601667Y-57708911D01*
X179389000Y-57708911D01*
X179389000Y-57893089D01*
X179424932Y-58073729D01*
X179495414Y-58243889D01*
X179597738Y-58397028D01*
X179727972Y-58527262D01*
X179881111Y-58629586D01*
X180051271Y-58700068D01*
X180214500Y-58732537D01*
X180214500Y-58782089D01*
X180250432Y-58962729D01*
X180320914Y-59132889D01*
X180423238Y-59286028D01*
X180553472Y-59416262D01*
X180706611Y-59518586D01*
X180876771Y-59589068D01*
X181057411Y-59625000D01*
X181241589Y-59625000D01*
X181422229Y-59589068D01*
X181592389Y-59518586D01*
X181695035Y-59450000D01*
X183969465Y-59450000D01*
X184072111Y-59518586D01*
X184242271Y-59589068D01*
X184422911Y-59625000D01*
X184607089Y-59625000D01*
X184787729Y-59589068D01*
X184957889Y-59518586D01*
X185111028Y-59416262D01*
X185241262Y-59286028D01*
X185343586Y-59132889D01*
X185414068Y-58962729D01*
X185450000Y-58782089D01*
X185450000Y-58597911D01*
X185414068Y-58417271D01*
X185343586Y-58247111D01*
X185241262Y-58093972D01*
X185111028Y-57963738D01*
X184957889Y-57861414D01*
X184787729Y-57790932D01*
X184607089Y-57755000D01*
X184561000Y-57755000D01*
X184561000Y-57708911D01*
X184525068Y-57528271D01*
X184454586Y-57358111D01*
X184352262Y-57204972D01*
X184222028Y-57074738D01*
X184068889Y-56972414D01*
X183898729Y-56901932D01*
X183718089Y-56866000D01*
X183533911Y-56866000D01*
X183353271Y-56901932D01*
X183183111Y-56972414D01*
X183080465Y-57041000D01*
X180869535Y-57041000D01*
X180766889Y-56972414D01*
X180596729Y-56901932D01*
X180416089Y-56866000D01*
X180231911Y-56866000D01*
X180051271Y-56901932D01*
X179881111Y-56972414D01*
X179727972Y-57074738D01*
X179597738Y-57204972D01*
X179495414Y-57358111D01*
X179424932Y-57528271D01*
X179389000Y-57708911D01*
X161601667Y-57708911D01*
X162631049Y-56679530D01*
X162664817Y-56651817D01*
X162775411Y-56517059D01*
X162783378Y-56502153D01*
X162857589Y-56363314D01*
X162908195Y-56196490D01*
X162909268Y-56185596D01*
X162921000Y-56066477D01*
X162921000Y-56066469D01*
X162925281Y-56023000D01*
X162921000Y-55979531D01*
X162921000Y-55821692D01*
X162935068Y-55787729D01*
X162971000Y-55607089D01*
X162971000Y-55422911D01*
X162935068Y-55242271D01*
X162864586Y-55072111D01*
X162762262Y-54918972D01*
X162632028Y-54788738D01*
X162478889Y-54686414D01*
X162308729Y-54615932D01*
X162128089Y-54580000D01*
X161943911Y-54580000D01*
X161763271Y-54615932D01*
X161593111Y-54686414D01*
X161490465Y-54755000D01*
X155215323Y-54755000D01*
X155178000Y-54751324D01*
X155140677Y-54755000D01*
X155140667Y-54755000D01*
X155029014Y-54765997D01*
X154885753Y-54809454D01*
X154753724Y-54880026D01*
X154637999Y-54974999D01*
X154614201Y-55003997D01*
X152761998Y-56856201D01*
X152733000Y-56879999D01*
X152709202Y-56908997D01*
X152709201Y-56908998D01*
X152638026Y-56995724D01*
X152567454Y-57127754D01*
X152547378Y-57193940D01*
X152523998Y-57271014D01*
X152522519Y-57286029D01*
X152509324Y-57420000D01*
X152513001Y-57457332D01*
X152513000Y-58271464D01*
X152444414Y-58374111D01*
X152373932Y-58544271D01*
X152338000Y-58724911D01*
X152161122Y-58724911D01*
X152209286Y-58652829D01*
X152279768Y-58482669D01*
X152315700Y-58302029D01*
X152315700Y-58117851D01*
X152279768Y-57937211D01*
X152209286Y-57767051D01*
X152106962Y-57613912D01*
X151976728Y-57483678D01*
X151823589Y-57381354D01*
X151653429Y-57310872D01*
X151488215Y-57278008D01*
X151296632Y-57086425D01*
X151263768Y-56921211D01*
X151193286Y-56751051D01*
X151090962Y-56597912D01*
X150960728Y-56467678D01*
X150807589Y-56365354D01*
X150637429Y-56294872D01*
X150456789Y-56258940D01*
X150272611Y-56258940D01*
X150091971Y-56294872D01*
X149921811Y-56365354D01*
X149768672Y-56467678D01*
X149638438Y-56597912D01*
X149536114Y-56751051D01*
X149465632Y-56921211D01*
X149429700Y-57101851D01*
X146020285Y-57101851D01*
X146034668Y-57067129D01*
X146070600Y-56886489D01*
X146070600Y-56702311D01*
X146034668Y-56521671D01*
X145964186Y-56351511D01*
X145861862Y-56198372D01*
X145731628Y-56068138D01*
X145578489Y-55965814D01*
X145408329Y-55895332D01*
X145227689Y-55859400D01*
X145043511Y-55859400D01*
X144862871Y-55895332D01*
X144692711Y-55965814D01*
X144539572Y-56068138D01*
X144409338Y-56198372D01*
X144307014Y-56351511D01*
X144236532Y-56521671D01*
X144200600Y-56702311D01*
X134050110Y-56702311D01*
X134078500Y-56559589D01*
X134078500Y-56375411D01*
X134042568Y-56194771D01*
X133972086Y-56024611D01*
X133869762Y-55871472D01*
X133739528Y-55741238D01*
X133586389Y-55638914D01*
X133416229Y-55568432D01*
X133235589Y-55532500D01*
X133051411Y-55532500D01*
X132870771Y-55568432D01*
X132700611Y-55638914D01*
X132547472Y-55741238D01*
X132540250Y-55748460D01*
X132533028Y-55741238D01*
X132379889Y-55638914D01*
X132209729Y-55568432D01*
X132029089Y-55532500D01*
X131844911Y-55532500D01*
X131664271Y-55568432D01*
X131494111Y-55638914D01*
X131340972Y-55741238D01*
X131333750Y-55748460D01*
X131326528Y-55741238D01*
X131173389Y-55638914D01*
X131003229Y-55568432D01*
X130822589Y-55532500D01*
X130638411Y-55532500D01*
X130457771Y-55568432D01*
X130287611Y-55638914D01*
X130134472Y-55741238D01*
X130127250Y-55748460D01*
X130120028Y-55741238D01*
X129966889Y-55638914D01*
X129796729Y-55568432D01*
X129616089Y-55532500D01*
X129431911Y-55532500D01*
X129251271Y-55568432D01*
X129081111Y-55638914D01*
X128927972Y-55741238D01*
X128920750Y-55748460D01*
X128913528Y-55741238D01*
X128760389Y-55638914D01*
X128590229Y-55568432D01*
X128409589Y-55532500D01*
X128225411Y-55532500D01*
X128044771Y-55568432D01*
X127874611Y-55638914D01*
X127721472Y-55741238D01*
X127591238Y-55871472D01*
X127488914Y-56024611D01*
X127418432Y-56194771D01*
X127382500Y-56375411D01*
X101585000Y-56375411D01*
X101585000Y-55872285D01*
X101437623Y-55131372D01*
X101148533Y-54433446D01*
X100961086Y-54152911D01*
X199074000Y-54152911D01*
X199074000Y-54337089D01*
X199109932Y-54517729D01*
X199180414Y-54687889D01*
X199249000Y-54790536D01*
X199249001Y-58144463D01*
X199180414Y-58247111D01*
X199109932Y-58417271D01*
X199074000Y-58597911D01*
X199074000Y-58782089D01*
X199109932Y-58962729D01*
X199180414Y-59132889D01*
X199282738Y-59286028D01*
X199412972Y-59416262D01*
X199566111Y-59518586D01*
X199736271Y-59589068D01*
X199916911Y-59625000D01*
X200101089Y-59625000D01*
X200281729Y-59589068D01*
X200340643Y-59564665D01*
X209242000Y-59564665D01*
X209242000Y-59847335D01*
X209297147Y-60124574D01*
X209405320Y-60385727D01*
X209562363Y-60620759D01*
X209762241Y-60820637D01*
X209997273Y-60977680D01*
X210007865Y-60982067D01*
X209821869Y-61093615D01*
X209613481Y-61282586D01*
X209445963Y-61508580D01*
X209325754Y-61762913D01*
X209285096Y-61896961D01*
X209407085Y-62119000D01*
X210550000Y-62119000D01*
X210550000Y-62099000D01*
X210804000Y-62099000D01*
X210804000Y-62119000D01*
X210824000Y-62119000D01*
X210824000Y-62373000D01*
X210804000Y-62373000D01*
X210804000Y-62393000D01*
X210550000Y-62393000D01*
X210550000Y-62373000D01*
X209407085Y-62373000D01*
X209285096Y-62595039D01*
X209325754Y-62729087D01*
X209445963Y-62983420D01*
X209613481Y-63209414D01*
X209821869Y-63398385D01*
X210007865Y-63509933D01*
X209997273Y-63514320D01*
X209762241Y-63671363D01*
X209562363Y-63871241D01*
X209405320Y-64106273D01*
X209297147Y-64367426D01*
X209242000Y-64644665D01*
X209242000Y-64927335D01*
X209297147Y-65204574D01*
X209405320Y-65465727D01*
X209562363Y-65700759D01*
X209762241Y-65900637D01*
X209994759Y-66056000D01*
X209762241Y-66211363D01*
X209562363Y-66411241D01*
X209405320Y-66646273D01*
X209297147Y-66907426D01*
X209242000Y-67184665D01*
X209242000Y-67467335D01*
X209297147Y-67744574D01*
X209405320Y-68005727D01*
X209562363Y-68240759D01*
X209762241Y-68440637D01*
X209994759Y-68596000D01*
X209762241Y-68751363D01*
X209562363Y-68951241D01*
X209405320Y-69186273D01*
X209297147Y-69447426D01*
X209242000Y-69724665D01*
X209242000Y-70007335D01*
X209297147Y-70284574D01*
X209405320Y-70545727D01*
X209562363Y-70780759D01*
X209762241Y-70980637D01*
X209994759Y-71136000D01*
X209762241Y-71291363D01*
X209562363Y-71491241D01*
X209405320Y-71726273D01*
X209297147Y-71987426D01*
X209242000Y-72264665D01*
X209242000Y-72547335D01*
X209297147Y-72824574D01*
X209405320Y-73085727D01*
X209562363Y-73320759D01*
X209762241Y-73520637D01*
X209994759Y-73676000D01*
X209762241Y-73831363D01*
X209562363Y-74031241D01*
X209405320Y-74266273D01*
X209297147Y-74527426D01*
X209242000Y-74804665D01*
X209242000Y-75087335D01*
X209297147Y-75364574D01*
X209405320Y-75625727D01*
X209562363Y-75860759D01*
X209762241Y-76060637D01*
X209994759Y-76216000D01*
X209762241Y-76371363D01*
X209562363Y-76571241D01*
X209405320Y-76806273D01*
X209297147Y-77067426D01*
X209242000Y-77344665D01*
X209242000Y-77627335D01*
X209297147Y-77904574D01*
X209405320Y-78165727D01*
X209562363Y-78400759D01*
X209762241Y-78600637D01*
X209994759Y-78756000D01*
X209762241Y-78911363D01*
X209562363Y-79111241D01*
X209405320Y-79346273D01*
X209297147Y-79607426D01*
X209242000Y-79884665D01*
X209242000Y-80167335D01*
X209297147Y-80444574D01*
X209405320Y-80705727D01*
X209562363Y-80940759D01*
X209762241Y-81140637D01*
X209994759Y-81296000D01*
X209762241Y-81451363D01*
X209562363Y-81651241D01*
X209405320Y-81886273D01*
X209297147Y-82147426D01*
X209242000Y-82424665D01*
X209242000Y-82707335D01*
X209297147Y-82984574D01*
X209405320Y-83245727D01*
X209562363Y-83480759D01*
X209762241Y-83680637D01*
X209994759Y-83836000D01*
X209762241Y-83991363D01*
X209562363Y-84191241D01*
X209405320Y-84426273D01*
X209297147Y-84687426D01*
X209242000Y-84964665D01*
X209242000Y-85247335D01*
X209297147Y-85524574D01*
X209405320Y-85785727D01*
X209562363Y-86020759D01*
X209762241Y-86220637D01*
X209994759Y-86376000D01*
X209762241Y-86531363D01*
X209562363Y-86731241D01*
X209405320Y-86966273D01*
X209297147Y-87227426D01*
X209242000Y-87504665D01*
X209242000Y-87787335D01*
X209297147Y-88064574D01*
X209405320Y-88325727D01*
X209562363Y-88560759D01*
X209762241Y-88760637D01*
X209994759Y-88916000D01*
X209762241Y-89071363D01*
X209562363Y-89271241D01*
X209405320Y-89506273D01*
X209297147Y-89767426D01*
X209242000Y-90044665D01*
X209242000Y-90327335D01*
X209297147Y-90604574D01*
X209405320Y-90865727D01*
X209562363Y-91100759D01*
X209762241Y-91300637D01*
X209994759Y-91456000D01*
X209762241Y-91611363D01*
X209562363Y-91811241D01*
X209405320Y-92046273D01*
X209297147Y-92307426D01*
X209242000Y-92584665D01*
X209242000Y-92867335D01*
X209297147Y-93144574D01*
X209405320Y-93405727D01*
X209562363Y-93640759D01*
X209762241Y-93840637D01*
X209994759Y-93996000D01*
X209762241Y-94151363D01*
X209562363Y-94351241D01*
X209405320Y-94586273D01*
X209297147Y-94847426D01*
X209242000Y-95124665D01*
X209242000Y-95407335D01*
X209297147Y-95684574D01*
X209405320Y-95945727D01*
X209562363Y-96180759D01*
X209762241Y-96380637D01*
X209997273Y-96537680D01*
X210258426Y-96645853D01*
X210535665Y-96701000D01*
X210818335Y-96701000D01*
X211095574Y-96645853D01*
X211356727Y-96537680D01*
X211591759Y-96380637D01*
X211791637Y-96180759D01*
X211947000Y-95948241D01*
X212102363Y-96180759D01*
X212302241Y-96380637D01*
X212534759Y-96536000D01*
X212302241Y-96691363D01*
X212102363Y-96891241D01*
X211945320Y-97126273D01*
X211837147Y-97387426D01*
X211782000Y-97664665D01*
X211782000Y-97947335D01*
X211837147Y-98224574D01*
X211945320Y-98485727D01*
X212102363Y-98720759D01*
X212302241Y-98920637D01*
X212537273Y-99077680D01*
X212798426Y-99185853D01*
X213075665Y-99241000D01*
X213358335Y-99241000D01*
X213635574Y-99185853D01*
X213896727Y-99077680D01*
X214131759Y-98920637D01*
X214331637Y-98720759D01*
X214488680Y-98485727D01*
X214596853Y-98224574D01*
X214652000Y-97947335D01*
X214652000Y-97664665D01*
X214596853Y-97387426D01*
X214488680Y-97126273D01*
X214331637Y-96891241D01*
X214131759Y-96691363D01*
X213899241Y-96536000D01*
X214131759Y-96380637D01*
X214331637Y-96180759D01*
X214488680Y-95945727D01*
X214596853Y-95684574D01*
X214652000Y-95407335D01*
X214652000Y-95124665D01*
X214596853Y-94847426D01*
X214488680Y-94586273D01*
X214331637Y-94351241D01*
X214131759Y-94151363D01*
X213899241Y-93996000D01*
X214131759Y-93840637D01*
X214331637Y-93640759D01*
X214488680Y-93405727D01*
X214596853Y-93144574D01*
X214652000Y-92867335D01*
X214652000Y-92584665D01*
X214596853Y-92307426D01*
X214488680Y-92046273D01*
X214331637Y-91811241D01*
X214131759Y-91611363D01*
X213896727Y-91454320D01*
X213886135Y-91449933D01*
X214072131Y-91338385D01*
X214280519Y-91149414D01*
X214448037Y-90923420D01*
X214568246Y-90669087D01*
X214608904Y-90535039D01*
X214486915Y-90313000D01*
X213344000Y-90313000D01*
X213344000Y-90333000D01*
X213090000Y-90333000D01*
X213090000Y-90313000D01*
X213070000Y-90313000D01*
X213070000Y-90059000D01*
X213090000Y-90059000D01*
X213090000Y-90039000D01*
X213344000Y-90039000D01*
X213344000Y-90059000D01*
X214486915Y-90059000D01*
X214608904Y-89836961D01*
X214568246Y-89702913D01*
X214448037Y-89448580D01*
X214280519Y-89222586D01*
X214072131Y-89033615D01*
X213886135Y-88922067D01*
X213896727Y-88917680D01*
X214131759Y-88760637D01*
X214331637Y-88560759D01*
X214488680Y-88325727D01*
X214596853Y-88064574D01*
X214652000Y-87787335D01*
X214652000Y-87504665D01*
X214596853Y-87227426D01*
X214488680Y-86966273D01*
X214331637Y-86731241D01*
X214131759Y-86531363D01*
X213899241Y-86376000D01*
X214131759Y-86220637D01*
X214331637Y-86020759D01*
X214488680Y-85785727D01*
X214596853Y-85524574D01*
X214652000Y-85247335D01*
X214652000Y-84964665D01*
X214596853Y-84687426D01*
X214488680Y-84426273D01*
X214331637Y-84191241D01*
X214131759Y-83991363D01*
X213899241Y-83836000D01*
X214131759Y-83680637D01*
X214331637Y-83480759D01*
X214488680Y-83245727D01*
X214596853Y-82984574D01*
X214652000Y-82707335D01*
X214652000Y-82424665D01*
X214596853Y-82147426D01*
X214488680Y-81886273D01*
X214331637Y-81651241D01*
X214131759Y-81451363D01*
X213899241Y-81296000D01*
X214131759Y-81140637D01*
X214331637Y-80940759D01*
X214488680Y-80705727D01*
X214596853Y-80444574D01*
X214652000Y-80167335D01*
X214652000Y-79884665D01*
X214596853Y-79607426D01*
X214488680Y-79346273D01*
X214331637Y-79111241D01*
X214131759Y-78911363D01*
X213899241Y-78756000D01*
X214131759Y-78600637D01*
X214331637Y-78400759D01*
X214488680Y-78165727D01*
X214596853Y-77904574D01*
X214652000Y-77627335D01*
X214652000Y-77344665D01*
X214596853Y-77067426D01*
X214488680Y-76806273D01*
X214331637Y-76571241D01*
X214131759Y-76371363D01*
X213899241Y-76216000D01*
X214131759Y-76060637D01*
X214331637Y-75860759D01*
X214488680Y-75625727D01*
X214596853Y-75364574D01*
X214652000Y-75087335D01*
X214652000Y-74804665D01*
X214596853Y-74527426D01*
X214488680Y-74266273D01*
X214331637Y-74031241D01*
X214131759Y-73831363D01*
X213899241Y-73676000D01*
X214131759Y-73520637D01*
X214331637Y-73320759D01*
X214488680Y-73085727D01*
X214596853Y-72824574D01*
X214652000Y-72547335D01*
X214652000Y-72264665D01*
X214596853Y-71987426D01*
X214488680Y-71726273D01*
X214331637Y-71491241D01*
X214131759Y-71291363D01*
X213899241Y-71136000D01*
X214131759Y-70980637D01*
X214331637Y-70780759D01*
X214488680Y-70545727D01*
X214596853Y-70284574D01*
X214652000Y-70007335D01*
X214652000Y-69724665D01*
X214596853Y-69447426D01*
X214488680Y-69186273D01*
X214331637Y-68951241D01*
X214131759Y-68751363D01*
X213899241Y-68596000D01*
X214131759Y-68440637D01*
X214331637Y-68240759D01*
X214488680Y-68005727D01*
X214596853Y-67744574D01*
X214652000Y-67467335D01*
X214652000Y-67184665D01*
X214596853Y-66907426D01*
X214488680Y-66646273D01*
X214331637Y-66411241D01*
X214131759Y-66211363D01*
X213899241Y-66056000D01*
X214131759Y-65900637D01*
X214331637Y-65700759D01*
X214488680Y-65465727D01*
X214596853Y-65204574D01*
X214652000Y-64927335D01*
X214652000Y-64644665D01*
X214596853Y-64367426D01*
X214488680Y-64106273D01*
X214331637Y-63871241D01*
X214131759Y-63671363D01*
X213899241Y-63516000D01*
X214131759Y-63360637D01*
X214331637Y-63160759D01*
X214488680Y-62925727D01*
X214596853Y-62664574D01*
X214652000Y-62387335D01*
X214652000Y-62104665D01*
X214596853Y-61827426D01*
X214488680Y-61566273D01*
X214331637Y-61331241D01*
X214131759Y-61131363D01*
X213896727Y-60974320D01*
X213886135Y-60969933D01*
X214072131Y-60858385D01*
X214280519Y-60669414D01*
X214448037Y-60443420D01*
X214568246Y-60189087D01*
X214608904Y-60055039D01*
X214486915Y-59833000D01*
X213344000Y-59833000D01*
X213344000Y-59853000D01*
X213090000Y-59853000D01*
X213090000Y-59833000D01*
X213070000Y-59833000D01*
X213070000Y-59579000D01*
X213090000Y-59579000D01*
X213090000Y-58435376D01*
X213344000Y-58435376D01*
X213344000Y-59579000D01*
X214486915Y-59579000D01*
X214608904Y-59356961D01*
X214568246Y-59222913D01*
X214448037Y-58968580D01*
X214280519Y-58742586D01*
X214072131Y-58553615D01*
X213830881Y-58408930D01*
X213566040Y-58314091D01*
X213344000Y-58435376D01*
X213090000Y-58435376D01*
X212867960Y-58314091D01*
X212603119Y-58408930D01*
X212361869Y-58553615D01*
X212153481Y-58742586D01*
X211985963Y-58968580D01*
X211953357Y-59037565D01*
X211948680Y-59026273D01*
X211791637Y-58791241D01*
X211591759Y-58591363D01*
X211356727Y-58434320D01*
X211095574Y-58326147D01*
X210818335Y-58271000D01*
X210535665Y-58271000D01*
X210258426Y-58326147D01*
X209997273Y-58434320D01*
X209762241Y-58591363D01*
X209562363Y-58791241D01*
X209405320Y-59026273D01*
X209297147Y-59287426D01*
X209242000Y-59564665D01*
X200340643Y-59564665D01*
X200451889Y-59518586D01*
X200605028Y-59416262D01*
X200735262Y-59286028D01*
X200837586Y-59132889D01*
X200908068Y-58962729D01*
X200944000Y-58782089D01*
X200944000Y-58597911D01*
X200908068Y-58417271D01*
X200837586Y-58247111D01*
X200769000Y-58144465D01*
X200769000Y-57073911D01*
X202884000Y-57073911D01*
X202884000Y-57258089D01*
X202919932Y-57438729D01*
X202990414Y-57608889D01*
X202991490Y-57610500D01*
X202990414Y-57612111D01*
X202919932Y-57782271D01*
X202884000Y-57962911D01*
X202884000Y-58147089D01*
X202919932Y-58327729D01*
X202990414Y-58497889D01*
X203092738Y-58651028D01*
X203222972Y-58781262D01*
X203376111Y-58883586D01*
X203546271Y-58954068D01*
X203726911Y-58990000D01*
X203911089Y-58990000D01*
X204091729Y-58954068D01*
X204261889Y-58883586D01*
X204415028Y-58781262D01*
X204431290Y-58765000D01*
X205238710Y-58765000D01*
X205254972Y-58781262D01*
X205408111Y-58883586D01*
X205578271Y-58954068D01*
X205758911Y-58990000D01*
X205943089Y-58990000D01*
X206123729Y-58954068D01*
X206293889Y-58883586D01*
X206447028Y-58781262D01*
X206577262Y-58651028D01*
X206679586Y-58497889D01*
X206750068Y-58327729D01*
X206786000Y-58147089D01*
X206786000Y-57962911D01*
X206750068Y-57782271D01*
X206679586Y-57612111D01*
X206678510Y-57610500D01*
X206679586Y-57608889D01*
X206750068Y-57438729D01*
X206786000Y-57258089D01*
X206786000Y-57073911D01*
X206750068Y-56893271D01*
X206679586Y-56723111D01*
X206577262Y-56569972D01*
X206447028Y-56439738D01*
X206293889Y-56337414D01*
X206123729Y-56266932D01*
X205943089Y-56231000D01*
X205758911Y-56231000D01*
X205578271Y-56266932D01*
X205408111Y-56337414D01*
X205254972Y-56439738D01*
X205238710Y-56456000D01*
X204431290Y-56456000D01*
X204415028Y-56439738D01*
X204261889Y-56337414D01*
X204091729Y-56266932D01*
X203911089Y-56231000D01*
X203726911Y-56231000D01*
X203546271Y-56266932D01*
X203376111Y-56337414D01*
X203222972Y-56439738D01*
X203092738Y-56569972D01*
X202990414Y-56723111D01*
X202919932Y-56893271D01*
X202884000Y-57073911D01*
X200769000Y-57073911D01*
X200769000Y-54790535D01*
X200837586Y-54687889D01*
X200908068Y-54517729D01*
X200944000Y-54337089D01*
X200944000Y-54152911D01*
X200908068Y-53972271D01*
X200837586Y-53802111D01*
X200735262Y-53648972D01*
X200605028Y-53518738D01*
X200451889Y-53416414D01*
X200281729Y-53345932D01*
X200101089Y-53310000D01*
X199916911Y-53310000D01*
X199736271Y-53345932D01*
X199566111Y-53416414D01*
X199412972Y-53518738D01*
X199282738Y-53648972D01*
X199180414Y-53802111D01*
X199109932Y-53972271D01*
X199074000Y-54152911D01*
X100961086Y-54152911D01*
X100728839Y-53805330D01*
X100194670Y-53271161D01*
X99654155Y-52910000D01*
X217845845Y-52910000D01*
X217305330Y-53271161D01*
G37*
X217305330Y-53271161D02*
X216771161Y-53805330D01*
X216351467Y-54433446D01*
X216062377Y-55131372D01*
X215915000Y-55872285D01*
X215915000Y-56627715D01*
X216062377Y-57368628D01*
X216351467Y-58066554D01*
X216771161Y-58694670D01*
X217305330Y-59228839D01*
X217933446Y-59648533D01*
X218631372Y-59937623D01*
X219372285Y-60085000D01*
X220127715Y-60085000D01*
X220868628Y-59937623D01*
X221566554Y-59648533D01*
X222194670Y-59228839D01*
X222728839Y-58694670D01*
X223090000Y-58154155D01*
X223090001Y-99345847D01*
X222728839Y-98805330D01*
X222194670Y-98271161D01*
X221566554Y-97851467D01*
X220868628Y-97562377D01*
X220127715Y-97415000D01*
X219372285Y-97415000D01*
X218631372Y-97562377D01*
X217933446Y-97851467D01*
X217305330Y-98271161D01*
X216771161Y-98805330D01*
X216351467Y-99433446D01*
X216062377Y-100131372D01*
X215915000Y-100872285D01*
X215915000Y-101627715D01*
X216062377Y-102368628D01*
X216351467Y-103066554D01*
X216771161Y-103694670D01*
X217305330Y-104228839D01*
X217845845Y-104590000D01*
X99654155Y-104590000D01*
X100194670Y-104228839D01*
X100728839Y-103694670D01*
X101148533Y-103066554D01*
X101437623Y-102368628D01*
X101585000Y-101627715D01*
X101585000Y-100872285D01*
X101437623Y-100131372D01*
X101148533Y-99433446D01*
X100728839Y-98805330D01*
X100194670Y-98271161D01*
X99566554Y-97851467D01*
X98868628Y-97562377D01*
X98127715Y-97415000D01*
X97372285Y-97415000D01*
X96631372Y-97562377D01*
X95933446Y-97851467D01*
X95305330Y-98271161D01*
X94771161Y-98805330D01*
X94410000Y-99345845D01*
X94410000Y-90250000D01*
X96123000Y-90250000D01*
X96123000Y-95750000D01*
X96125440Y-95774776D01*
X96132667Y-95798601D01*
X96144403Y-95820557D01*
X96160197Y-95839803D01*
X96179443Y-95855597D01*
X96201399Y-95867333D01*
X96225224Y-95874560D01*
X96250000Y-95877000D01*
X101750000Y-95877000D01*
X101774776Y-95874560D01*
X101798601Y-95867333D01*
X101820557Y-95855597D01*
X101839803Y-95839803D01*
X101855597Y-95820557D01*
X101867333Y-95798601D01*
X101874560Y-95774776D01*
X101877000Y-95750000D01*
X101877000Y-93591119D01*
X103767000Y-93591119D01*
X103767000Y-94400882D01*
X103797892Y-94714533D01*
X103919974Y-95116982D01*
X104118223Y-95487881D01*
X104385024Y-95812977D01*
X104710120Y-96079777D01*
X105081019Y-96278026D01*
X105483468Y-96400108D01*
X105902000Y-96441330D01*
X106320533Y-96400108D01*
X106722982Y-96278026D01*
X107093881Y-96079777D01*
X107418977Y-95812977D01*
X107685777Y-95487881D01*
X107884026Y-95116981D01*
X108006108Y-94714532D01*
X108037000Y-94400881D01*
X108037000Y-94123000D01*
X108847000Y-94123000D01*
X108847000Y-94423000D01*
X108912800Y-94837078D01*
X109058118Y-95230362D01*
X109277370Y-95587739D01*
X109562130Y-95895475D01*
X109901454Y-96141744D01*
X110282303Y-96317083D01*
X110523167Y-96381113D01*
X110855000Y-96268165D01*
X110855000Y-94123000D01*
X111109000Y-94123000D01*
X111109000Y-96268165D01*
X111440833Y-96381113D01*
X111681697Y-96317083D01*
X112062546Y-96141744D01*
X112401870Y-95895475D01*
X112686630Y-95587739D01*
X112905882Y-95230362D01*
X113051200Y-94837078D01*
X113117000Y-94423000D01*
X113117000Y-94123000D01*
X111109000Y-94123000D01*
X110855000Y-94123000D01*
X108847000Y-94123000D01*
X108037000Y-94123000D01*
X108037000Y-93591118D01*
X108034822Y-93569000D01*
X108847000Y-93569000D01*
X108847000Y-93869000D01*
X110855000Y-93869000D01*
X110855000Y-91723835D01*
X111109000Y-91723835D01*
X111109000Y-93869000D01*
X113117000Y-93869000D01*
X113117000Y-93591119D01*
X117102000Y-93591119D01*
X117102000Y-94400882D01*
X117132892Y-94714533D01*
X117254974Y-95116982D01*
X117453223Y-95487881D01*
X117720024Y-95812977D01*
X118045120Y-96079777D01*
X118416019Y-96278026D01*
X118818468Y-96400108D01*
X119237000Y-96441330D01*
X119655533Y-96400108D01*
X120057982Y-96278026D01*
X120428881Y-96079777D01*
X120753977Y-95812977D01*
X121020777Y-95487881D01*
X121219026Y-95116981D01*
X121341108Y-94714532D01*
X121372000Y-94400881D01*
X121372000Y-94123000D01*
X122182000Y-94123000D01*
X122182000Y-94423000D01*
X122247800Y-94837078D01*
X122393118Y-95230362D01*
X122612370Y-95587739D01*
X122897130Y-95895475D01*
X123236454Y-96141744D01*
X123617303Y-96317083D01*
X123858167Y-96381113D01*
X124190000Y-96268165D01*
X124190000Y-94123000D01*
X124444000Y-94123000D01*
X124444000Y-96268165D01*
X124775833Y-96381113D01*
X125016697Y-96317083D01*
X125397546Y-96141744D01*
X125736870Y-95895475D01*
X126021630Y-95587739D01*
X126240882Y-95230362D01*
X126386200Y-94837078D01*
X126452000Y-94423000D01*
X126452000Y-94123000D01*
X124444000Y-94123000D01*
X124190000Y-94123000D01*
X122182000Y-94123000D01*
X121372000Y-94123000D01*
X121372000Y-93591118D01*
X121369822Y-93569000D01*
X122182000Y-93569000D01*
X122182000Y-93869000D01*
X124190000Y-93869000D01*
X124190000Y-91723835D01*
X124444000Y-91723835D01*
X124444000Y-93869000D01*
X126452000Y-93869000D01*
X126452000Y-93591119D01*
X133612000Y-93591119D01*
X133612000Y-94400882D01*
X133642892Y-94714533D01*
X133764974Y-95116982D01*
X133963223Y-95487881D01*
X134230024Y-95812977D01*
X134555120Y-96079777D01*
X134926019Y-96278026D01*
X135328468Y-96400108D01*
X135747000Y-96441330D01*
X136165533Y-96400108D01*
X136567982Y-96278026D01*
X136938881Y-96079777D01*
X137263977Y-95812977D01*
X137530777Y-95487881D01*
X137729026Y-95116981D01*
X137851108Y-94714532D01*
X137882000Y-94400881D01*
X137882000Y-94123000D01*
X138692000Y-94123000D01*
X138692000Y-94423000D01*
X138757800Y-94837078D01*
X138903118Y-95230362D01*
X139122370Y-95587739D01*
X139407130Y-95895475D01*
X139746454Y-96141744D01*
X140127303Y-96317083D01*
X140368167Y-96381113D01*
X140700000Y-96268165D01*
X140700000Y-94123000D01*
X140954000Y-94123000D01*
X140954000Y-96268165D01*
X141285833Y-96381113D01*
X141526697Y-96317083D01*
X141907546Y-96141744D01*
X142246870Y-95895475D01*
X142531630Y-95587739D01*
X142750882Y-95230362D01*
X142896200Y-94837078D01*
X142962000Y-94423000D01*
X142962000Y-94123000D01*
X140954000Y-94123000D01*
X140700000Y-94123000D01*
X138692000Y-94123000D01*
X137882000Y-94123000D01*
X137882000Y-93591118D01*
X137879822Y-93569000D01*
X138692000Y-93569000D01*
X138692000Y-93869000D01*
X140700000Y-93869000D01*
X140700000Y-91723835D01*
X140954000Y-91723835D01*
X140954000Y-93869000D01*
X142962000Y-93869000D01*
X142962000Y-93591119D01*
X146947000Y-93591119D01*
X146947000Y-94400882D01*
X146977892Y-94714533D01*
X147099974Y-95116982D01*
X147298223Y-95487881D01*
X147565024Y-95812977D01*
X147890120Y-96079777D01*
X148261019Y-96278026D01*
X148663468Y-96400108D01*
X149082000Y-96441330D01*
X149500533Y-96400108D01*
X149902982Y-96278026D01*
X150273881Y-96079777D01*
X150598977Y-95812977D01*
X150865777Y-95487881D01*
X151064026Y-95116981D01*
X151186108Y-94714532D01*
X151217000Y-94400881D01*
X151217000Y-94123000D01*
X152027000Y-94123000D01*
X152027000Y-94423000D01*
X152092800Y-94837078D01*
X152238118Y-95230362D01*
X152457370Y-95587739D01*
X152742130Y-95895475D01*
X153081454Y-96141744D01*
X153462303Y-96317083D01*
X153703167Y-96381113D01*
X154035000Y-96268165D01*
X154035000Y-94123000D01*
X154289000Y-94123000D01*
X154289000Y-96268165D01*
X154620833Y-96381113D01*
X154861697Y-96317083D01*
X155242546Y-96141744D01*
X155581870Y-95895475D01*
X155866630Y-95587739D01*
X156085882Y-95230362D01*
X156231200Y-94837078D01*
X156297000Y-94423000D01*
X156297000Y-94123000D01*
X154289000Y-94123000D01*
X154035000Y-94123000D01*
X152027000Y-94123000D01*
X151217000Y-94123000D01*
X151217000Y-93591118D01*
X151214822Y-93569000D01*
X152027000Y-93569000D01*
X152027000Y-93869000D01*
X154035000Y-93869000D01*
X154035000Y-91723835D01*
X154289000Y-91723835D01*
X154289000Y-93869000D01*
X156297000Y-93869000D01*
X156297000Y-93591119D01*
X163457000Y-93591119D01*
X163457000Y-94400882D01*
X163487892Y-94714533D01*
X163609974Y-95116982D01*
X163808223Y-95487881D01*
X164075024Y-95812977D01*
X164400120Y-96079777D01*
X164771019Y-96278026D01*
X165173468Y-96400108D01*
X165592000Y-96441330D01*
X166010533Y-96400108D01*
X166412982Y-96278026D01*
X166783881Y-96079777D01*
X167108977Y-95812977D01*
X167375777Y-95487881D01*
X167574026Y-95116981D01*
X167696108Y-94714532D01*
X167727000Y-94400881D01*
X167727000Y-94123000D01*
X168537000Y-94123000D01*
X168537000Y-94423000D01*
X168602800Y-94837078D01*
X168748118Y-95230362D01*
X168967370Y-95587739D01*
X169252130Y-95895475D01*
X169591454Y-96141744D01*
X169972303Y-96317083D01*
X170213167Y-96381113D01*
X170545000Y-96268165D01*
X170545000Y-94123000D01*
X170799000Y-94123000D01*
X170799000Y-96268165D01*
X171130833Y-96381113D01*
X171371697Y-96317083D01*
X171752546Y-96141744D01*
X172091870Y-95895475D01*
X172376630Y-95587739D01*
X172595882Y-95230362D01*
X172741200Y-94837078D01*
X172807000Y-94423000D01*
X172807000Y-94123000D01*
X170799000Y-94123000D01*
X170545000Y-94123000D01*
X168537000Y-94123000D01*
X167727000Y-94123000D01*
X167727000Y-93591118D01*
X167724822Y-93569000D01*
X168537000Y-93569000D01*
X168537000Y-93869000D01*
X170545000Y-93869000D01*
X170545000Y-91723835D01*
X170799000Y-91723835D01*
X170799000Y-93869000D01*
X172807000Y-93869000D01*
X172807000Y-93591119D01*
X176792000Y-93591119D01*
X176792000Y-94400882D01*
X176822892Y-94714533D01*
X176944974Y-95116982D01*
X177143223Y-95487881D01*
X177410024Y-95812977D01*
X177735120Y-96079777D01*
X178106019Y-96278026D01*
X178508468Y-96400108D01*
X178927000Y-96441330D01*
X179345533Y-96400108D01*
X179747982Y-96278026D01*
X180118881Y-96079777D01*
X180443977Y-95812977D01*
X180710777Y-95487881D01*
X180909026Y-95116981D01*
X181031108Y-94714532D01*
X181062000Y-94400881D01*
X181062000Y-94123000D01*
X181872000Y-94123000D01*
X181872000Y-94423000D01*
X181937800Y-94837078D01*
X182083118Y-95230362D01*
X182302370Y-95587739D01*
X182587130Y-95895475D01*
X182926454Y-96141744D01*
X183307303Y-96317083D01*
X183548167Y-96381113D01*
X183880000Y-96268165D01*
X183880000Y-94123000D01*
X184134000Y-94123000D01*
X184134000Y-96268165D01*
X184465833Y-96381113D01*
X184706697Y-96317083D01*
X185087546Y-96141744D01*
X185426870Y-95895475D01*
X185711630Y-95587739D01*
X185930882Y-95230362D01*
X186076200Y-94837078D01*
X186142000Y-94423000D01*
X186142000Y-94123000D01*
X184134000Y-94123000D01*
X183880000Y-94123000D01*
X181872000Y-94123000D01*
X181062000Y-94123000D01*
X181062000Y-93591118D01*
X181059822Y-93569000D01*
X181872000Y-93569000D01*
X181872000Y-93869000D01*
X183880000Y-93869000D01*
X183880000Y-91723835D01*
X184134000Y-91723835D01*
X184134000Y-93869000D01*
X186142000Y-93869000D01*
X186142000Y-93569000D01*
X186076200Y-93154922D01*
X185930882Y-92761638D01*
X185711630Y-92404261D01*
X185426870Y-92096525D01*
X185087546Y-91850256D01*
X184706697Y-91674917D01*
X184465833Y-91610887D01*
X184134000Y-91723835D01*
X183880000Y-91723835D01*
X183548167Y-91610887D01*
X183307303Y-91674917D01*
X182926454Y-91850256D01*
X182587130Y-92096525D01*
X182302370Y-92404261D01*
X182083118Y-92761638D01*
X181937800Y-93154922D01*
X181872000Y-93569000D01*
X181059822Y-93569000D01*
X181031108Y-93277467D01*
X180909026Y-92875018D01*
X180710777Y-92504119D01*
X180443977Y-92179023D01*
X180118881Y-91912223D01*
X179747981Y-91713974D01*
X179345532Y-91591892D01*
X178927000Y-91550670D01*
X178508467Y-91591892D01*
X178106018Y-91713974D01*
X177735119Y-91912223D01*
X177410023Y-92179023D01*
X177143223Y-92504119D01*
X176944974Y-92875019D01*
X176822892Y-93277468D01*
X176792000Y-93591119D01*
X172807000Y-93591119D01*
X172807000Y-93569000D01*
X172741200Y-93154922D01*
X172595882Y-92761638D01*
X172376630Y-92404261D01*
X172091870Y-92096525D01*
X171752546Y-91850256D01*
X171371697Y-91674917D01*
X171130833Y-91610887D01*
X170799000Y-91723835D01*
X170545000Y-91723835D01*
X170213167Y-91610887D01*
X169972303Y-91674917D01*
X169591454Y-91850256D01*
X169252130Y-92096525D01*
X168967370Y-92404261D01*
X168748118Y-92761638D01*
X168602800Y-93154922D01*
X168537000Y-93569000D01*
X167724822Y-93569000D01*
X167696108Y-93277467D01*
X167574026Y-92875018D01*
X167375777Y-92504119D01*
X167108977Y-92179023D01*
X166783881Y-91912223D01*
X166412981Y-91713974D01*
X166010532Y-91591892D01*
X165592000Y-91550670D01*
X165173467Y-91591892D01*
X164771018Y-91713974D01*
X164400119Y-91912223D01*
X164075023Y-92179023D01*
X163808223Y-92504119D01*
X163609974Y-92875019D01*
X163487892Y-93277468D01*
X163457000Y-93591119D01*
X156297000Y-93591119D01*
X156297000Y-93569000D01*
X156231200Y-93154922D01*
X156085882Y-92761638D01*
X155866630Y-92404261D01*
X155581870Y-92096525D01*
X155242546Y-91850256D01*
X154861697Y-91674917D01*
X154620833Y-91610887D01*
X154289000Y-91723835D01*
X154035000Y-91723835D01*
X153703167Y-91610887D01*
X153462303Y-91674917D01*
X153081454Y-91850256D01*
X152742130Y-92096525D01*
X152457370Y-92404261D01*
X152238118Y-92761638D01*
X152092800Y-93154922D01*
X152027000Y-93569000D01*
X151214822Y-93569000D01*
X151186108Y-93277467D01*
X151064026Y-92875018D01*
X150865777Y-92504119D01*
X150598977Y-92179023D01*
X150273881Y-91912223D01*
X149902981Y-91713974D01*
X149500532Y-91591892D01*
X149082000Y-91550670D01*
X148663467Y-91591892D01*
X148261018Y-91713974D01*
X147890119Y-91912223D01*
X147565023Y-92179023D01*
X147298223Y-92504119D01*
X147099974Y-92875019D01*
X146977892Y-93277468D01*
X146947000Y-93591119D01*
X142962000Y-93591119D01*
X142962000Y-93569000D01*
X142896200Y-93154922D01*
X142750882Y-92761638D01*
X142531630Y-92404261D01*
X142246870Y-92096525D01*
X141907546Y-91850256D01*
X141526697Y-91674917D01*
X141285833Y-91610887D01*
X140954000Y-91723835D01*
X140700000Y-91723835D01*
X140368167Y-91610887D01*
X140127303Y-91674917D01*
X139746454Y-91850256D01*
X139407130Y-92096525D01*
X139122370Y-92404261D01*
X138903118Y-92761638D01*
X138757800Y-93154922D01*
X138692000Y-93569000D01*
X137879822Y-93569000D01*
X137851108Y-93277467D01*
X137729026Y-92875018D01*
X137530777Y-92504119D01*
X137263977Y-92179023D01*
X136938881Y-91912223D01*
X136567981Y-91713974D01*
X136165532Y-91591892D01*
X135747000Y-91550670D01*
X135328467Y-91591892D01*
X134926018Y-91713974D01*
X134555119Y-91912223D01*
X134230023Y-92179023D01*
X133963223Y-92504119D01*
X133764974Y-92875019D01*
X133642892Y-93277468D01*
X133612000Y-93591119D01*
X126452000Y-93591119D01*
X126452000Y-93569000D01*
X126386200Y-93154922D01*
X126240882Y-92761638D01*
X126021630Y-92404261D01*
X125736870Y-92096525D01*
X125397546Y-91850256D01*
X125016697Y-91674917D01*
X124775833Y-91610887D01*
X124444000Y-91723835D01*
X124190000Y-91723835D01*
X123858167Y-91610887D01*
X123617303Y-91674917D01*
X123236454Y-91850256D01*
X122897130Y-92096525D01*
X122612370Y-92404261D01*
X122393118Y-92761638D01*
X122247800Y-93154922D01*
X122182000Y-93569000D01*
X121369822Y-93569000D01*
X121341108Y-93277467D01*
X121219026Y-92875018D01*
X121020777Y-92504119D01*
X120753977Y-92179023D01*
X120428881Y-91912223D01*
X120057981Y-91713974D01*
X119655532Y-91591892D01*
X119237000Y-91550670D01*
X118818467Y-91591892D01*
X118416018Y-91713974D01*
X118045119Y-91912223D01*
X117720023Y-92179023D01*
X117453223Y-92504119D01*
X117254974Y-92875019D01*
X117132892Y-93277468D01*
X117102000Y-93591119D01*
X113117000Y-93591119D01*
X113117000Y-93569000D01*
X113051200Y-93154922D01*
X112905882Y-92761638D01*
X112686630Y-92404261D01*
X112401870Y-92096525D01*
X112062546Y-91850256D01*
X111681697Y-91674917D01*
X111440833Y-91610887D01*
X111109000Y-91723835D01*
X110855000Y-91723835D01*
X110523167Y-91610887D01*
X110282303Y-91674917D01*
X109901454Y-91850256D01*
X109562130Y-92096525D01*
X109277370Y-92404261D01*
X109058118Y-92761638D01*
X108912800Y-93154922D01*
X108847000Y-93569000D01*
X108034822Y-93569000D01*
X108006108Y-93277467D01*
X107884026Y-92875018D01*
X107685777Y-92504119D01*
X107418977Y-92179023D01*
X107093881Y-91912223D01*
X106722981Y-91713974D01*
X106320532Y-91591892D01*
X105902000Y-91550670D01*
X105483467Y-91591892D01*
X105081018Y-91713974D01*
X104710119Y-91912223D01*
X104385023Y-92179023D01*
X104118223Y-92504119D01*
X103919974Y-92875019D01*
X103797892Y-93277468D01*
X103767000Y-93591119D01*
X101877000Y-93591119D01*
X101877000Y-90250000D01*
X101874560Y-90225224D01*
X101867333Y-90201399D01*
X101855597Y-90179443D01*
X101839803Y-90160197D01*
X101820557Y-90144403D01*
X101798601Y-90132667D01*
X101774776Y-90125440D01*
X101750000Y-90123000D01*
X96250000Y-90123000D01*
X96225224Y-90125440D01*
X96201399Y-90132667D01*
X96179443Y-90144403D01*
X96160197Y-90160197D01*
X96144403Y-90179443D01*
X96132667Y-90201399D01*
X96125440Y-90225224D01*
X96123000Y-90250000D01*
X94410000Y-90250000D01*
X94410000Y-75302500D01*
X152292928Y-75302500D01*
X152292928Y-77002500D01*
X152305188Y-77126982D01*
X152341498Y-77246680D01*
X152400463Y-77356994D01*
X152479815Y-77453685D01*
X152576506Y-77533037D01*
X152686820Y-77592002D01*
X152759380Y-77614013D01*
X152627525Y-77745868D01*
X152465010Y-77989089D01*
X152353068Y-78259342D01*
X152296000Y-78546240D01*
X152296000Y-78838760D01*
X152353068Y-79125658D01*
X152465010Y-79395911D01*
X152627525Y-79639132D01*
X152834368Y-79845975D01*
X153008760Y-79962500D01*
X152834368Y-80079025D01*
X152627525Y-80285868D01*
X152465010Y-80529089D01*
X152353068Y-80799342D01*
X152296000Y-81086240D01*
X152296000Y-81378760D01*
X152353068Y-81665658D01*
X152465010Y-81935911D01*
X152627525Y-82179132D01*
X152834368Y-82385975D01*
X153077589Y-82548490D01*
X153347842Y-82660432D01*
X153634740Y-82717500D01*
X153927260Y-82717500D01*
X154214158Y-82660432D01*
X154484411Y-82548490D01*
X154727632Y-82385975D01*
X154934475Y-82179132D01*
X155096990Y-81935911D01*
X155208932Y-81665658D01*
X155266000Y-81378760D01*
X155266000Y-81086240D01*
X155208932Y-80799342D01*
X155096990Y-80529089D01*
X154934475Y-80285868D01*
X154727632Y-80079025D01*
X154553240Y-79962500D01*
X154727632Y-79845975D01*
X154934475Y-79639132D01*
X155096990Y-79395911D01*
X155188079Y-79176000D01*
X179089928Y-79176000D01*
X179089928Y-80876000D01*
X179102188Y-81000482D01*
X179138498Y-81120180D01*
X179197463Y-81230494D01*
X179276815Y-81327185D01*
X179373506Y-81406537D01*
X179483820Y-81465502D01*
X179603518Y-81501812D01*
X179728000Y-81514072D01*
X181428000Y-81514072D01*
X181552482Y-81501812D01*
X181672180Y-81465502D01*
X181782494Y-81406537D01*
X181879185Y-81327185D01*
X181958537Y-81230494D01*
X182017502Y-81120180D01*
X182053812Y-81000482D01*
X182066072Y-80876000D01*
X182066072Y-79176000D01*
X182053812Y-79051518D01*
X182017502Y-78931820D01*
X181958537Y-78821506D01*
X181879185Y-78724815D01*
X181782494Y-78645463D01*
X181672180Y-78586498D01*
X181599620Y-78564487D01*
X181731475Y-78432632D01*
X181893990Y-78189411D01*
X182005932Y-77919158D01*
X182063000Y-77632260D01*
X182063000Y-77339740D01*
X182005932Y-77052842D01*
X181893990Y-76782589D01*
X181731475Y-76539368D01*
X181524632Y-76332525D01*
X181281411Y-76170010D01*
X181011158Y-76058068D01*
X180724260Y-76001000D01*
X180431740Y-76001000D01*
X180144842Y-76058068D01*
X179874589Y-76170010D01*
X179631368Y-76332525D01*
X179424525Y-76539368D01*
X179262010Y-76782589D01*
X179150068Y-77052842D01*
X179093000Y-77339740D01*
X179093000Y-77632260D01*
X179150068Y-77919158D01*
X179262010Y-78189411D01*
X179424525Y-78432632D01*
X179556380Y-78564487D01*
X179483820Y-78586498D01*
X179373506Y-78645463D01*
X179276815Y-78724815D01*
X179197463Y-78821506D01*
X179138498Y-78931820D01*
X179102188Y-79051518D01*
X179089928Y-79176000D01*
X155188079Y-79176000D01*
X155208932Y-79125658D01*
X155266000Y-78838760D01*
X155266000Y-78546240D01*
X155208932Y-78259342D01*
X155096990Y-77989089D01*
X154934475Y-77745868D01*
X154802620Y-77614013D01*
X154875180Y-77592002D01*
X154985494Y-77533037D01*
X155082185Y-77453685D01*
X155161537Y-77356994D01*
X155220502Y-77246680D01*
X155256812Y-77126982D01*
X155269072Y-77002500D01*
X155269072Y-75302500D01*
X155256812Y-75178018D01*
X155220502Y-75058320D01*
X155161537Y-74948006D01*
X155082185Y-74851315D01*
X154985494Y-74771963D01*
X154875180Y-74712998D01*
X154755482Y-74676688D01*
X154631000Y-74664428D01*
X152931000Y-74664428D01*
X152806518Y-74676688D01*
X152686820Y-74712998D01*
X152576506Y-74771963D01*
X152479815Y-74851315D01*
X152400463Y-74948006D01*
X152341498Y-75058320D01*
X152305188Y-75178018D01*
X152292928Y-75302500D01*
X94410000Y-75302500D01*
X94410000Y-74472911D01*
X186374000Y-74472911D01*
X186374000Y-74657089D01*
X186409932Y-74837729D01*
X186480414Y-75007889D01*
X186582738Y-75161028D01*
X186712972Y-75291262D01*
X186866111Y-75393586D01*
X187036271Y-75464068D01*
X187216911Y-75500000D01*
X187401089Y-75500000D01*
X187581729Y-75464068D01*
X187751889Y-75393586D01*
X187905028Y-75291262D01*
X188035262Y-75161028D01*
X188137586Y-75007889D01*
X188208068Y-74837729D01*
X188232153Y-74716648D01*
X189782802Y-73166000D01*
X191678957Y-73166000D01*
X191782363Y-73320759D01*
X191982241Y-73520637D01*
X192214759Y-73676000D01*
X191982241Y-73831363D01*
X191782363Y-74031241D01*
X191625320Y-74266273D01*
X191517147Y-74527426D01*
X191462000Y-74804665D01*
X191462000Y-75087335D01*
X191517147Y-75364574D01*
X191625320Y-75625727D01*
X191782363Y-75860759D01*
X191982241Y-76060637D01*
X192214759Y-76216000D01*
X191982241Y-76371363D01*
X191782363Y-76571241D01*
X191625320Y-76806273D01*
X191517147Y-77067426D01*
X191462000Y-77344665D01*
X191462000Y-77627335D01*
X191517147Y-77904574D01*
X191625320Y-78165727D01*
X191782363Y-78400759D01*
X191982241Y-78600637D01*
X192214759Y-78756000D01*
X191982241Y-78911363D01*
X191782363Y-79111241D01*
X191625320Y-79346273D01*
X191517147Y-79607426D01*
X191462000Y-79884665D01*
X191462000Y-80167335D01*
X191517147Y-80444574D01*
X191625320Y-80705727D01*
X191782363Y-80940759D01*
X191982241Y-81140637D01*
X192214759Y-81296000D01*
X191982241Y-81451363D01*
X191782363Y-81651241D01*
X191625320Y-81886273D01*
X191517147Y-82147426D01*
X191462000Y-82424665D01*
X191462000Y-82707335D01*
X191517147Y-82984574D01*
X191625320Y-83245727D01*
X191782363Y-83480759D01*
X191982241Y-83680637D01*
X192214759Y-83836000D01*
X191982241Y-83991363D01*
X191782363Y-84191241D01*
X191625320Y-84426273D01*
X191517147Y-84687426D01*
X191462000Y-84964665D01*
X191462000Y-85247335D01*
X191517147Y-85524574D01*
X191625320Y-85785727D01*
X191782363Y-86020759D01*
X191982241Y-86220637D01*
X192214759Y-86376000D01*
X191982241Y-86531363D01*
X191782363Y-86731241D01*
X191625320Y-86966273D01*
X191517147Y-87227426D01*
X191462000Y-87504665D01*
X191462000Y-87787335D01*
X191517147Y-88064574D01*
X191625320Y-88325727D01*
X191782363Y-88560759D01*
X191982241Y-88760637D01*
X192217273Y-88917680D01*
X192478426Y-89025853D01*
X192755665Y-89081000D01*
X193038335Y-89081000D01*
X193315574Y-89025853D01*
X193576727Y-88917680D01*
X193811759Y-88760637D01*
X194011637Y-88560759D01*
X194167000Y-88328241D01*
X194322363Y-88560759D01*
X194522241Y-88760637D01*
X194754759Y-88916000D01*
X194522241Y-89071363D01*
X194322363Y-89271241D01*
X194165320Y-89506273D01*
X194057147Y-89767426D01*
X194002000Y-90044665D01*
X194002000Y-90327335D01*
X194057147Y-90604574D01*
X194165320Y-90865727D01*
X194322363Y-91100759D01*
X194522241Y-91300637D01*
X194754759Y-91456000D01*
X194522241Y-91611363D01*
X194322363Y-91811241D01*
X194165320Y-92046273D01*
X194057147Y-92307426D01*
X194002000Y-92584665D01*
X194002000Y-92867335D01*
X194057147Y-93144574D01*
X194165320Y-93405727D01*
X194322363Y-93640759D01*
X194522241Y-93840637D01*
X194754759Y-93996000D01*
X194522241Y-94151363D01*
X194322363Y-94351241D01*
X194165320Y-94586273D01*
X194057147Y-94847426D01*
X194002000Y-95124665D01*
X194002000Y-95407335D01*
X194057147Y-95684574D01*
X194165320Y-95945727D01*
X194322363Y-96180759D01*
X194522241Y-96380637D01*
X194757273Y-96537680D01*
X195018426Y-96645853D01*
X195295665Y-96701000D01*
X195578335Y-96701000D01*
X195855574Y-96645853D01*
X196116727Y-96537680D01*
X196351759Y-96380637D01*
X196551637Y-96180759D01*
X196708680Y-95945727D01*
X196816853Y-95684574D01*
X196872000Y-95407335D01*
X196872000Y-95124665D01*
X196816853Y-94847426D01*
X196708680Y-94586273D01*
X196551637Y-94351241D01*
X196351759Y-94151363D01*
X196119241Y-93996000D01*
X196351759Y-93840637D01*
X196551637Y-93640759D01*
X196708680Y-93405727D01*
X196816853Y-93144574D01*
X196872000Y-92867335D01*
X196872000Y-92584665D01*
X196816853Y-92307426D01*
X196708680Y-92046273D01*
X196551637Y-91811241D01*
X196351759Y-91611363D01*
X196119241Y-91456000D01*
X196351759Y-91300637D01*
X196551637Y-91100759D01*
X196708680Y-90865727D01*
X196816853Y-90604574D01*
X196872000Y-90327335D01*
X196872000Y-90044665D01*
X196816853Y-89767426D01*
X196708680Y-89506273D01*
X196551637Y-89271241D01*
X196351759Y-89071363D01*
X196119241Y-88916000D01*
X196351759Y-88760637D01*
X196551637Y-88560759D01*
X196708680Y-88325727D01*
X196816853Y-88064574D01*
X196872000Y-87787335D01*
X196872000Y-87504665D01*
X196816853Y-87227426D01*
X196708680Y-86966273D01*
X196551637Y-86731241D01*
X196351759Y-86531363D01*
X196119241Y-86376000D01*
X196351759Y-86220637D01*
X196551637Y-86020759D01*
X196708680Y-85785727D01*
X196816853Y-85524574D01*
X196872000Y-85247335D01*
X196872000Y-84964665D01*
X196816853Y-84687426D01*
X196708680Y-84426273D01*
X196551637Y-84191241D01*
X196351759Y-83991363D01*
X196119241Y-83836000D01*
X196351759Y-83680637D01*
X196551637Y-83480759D01*
X196708680Y-83245727D01*
X196816853Y-82984574D01*
X196872000Y-82707335D01*
X196872000Y-82424665D01*
X196816853Y-82147426D01*
X196708680Y-81886273D01*
X196551637Y-81651241D01*
X196351759Y-81451363D01*
X196119241Y-81296000D01*
X196351759Y-81140637D01*
X196551637Y-80940759D01*
X196708680Y-80705727D01*
X196816853Y-80444574D01*
X196872000Y-80167335D01*
X196872000Y-79884665D01*
X196816853Y-79607426D01*
X196708680Y-79346273D01*
X196551637Y-79111241D01*
X196351759Y-78911363D01*
X196119241Y-78756000D01*
X196351759Y-78600637D01*
X196551637Y-78400759D01*
X196708680Y-78165727D01*
X196816853Y-77904574D01*
X196872000Y-77627335D01*
X196872000Y-77344665D01*
X196816853Y-77067426D01*
X196708680Y-76806273D01*
X196551637Y-76571241D01*
X196351759Y-76371363D01*
X196119241Y-76216000D01*
X196351759Y-76060637D01*
X196551637Y-75860759D01*
X196708680Y-75625727D01*
X196816853Y-75364574D01*
X196872000Y-75087335D01*
X196872000Y-74804665D01*
X196816853Y-74527426D01*
X196708680Y-74266273D01*
X196551637Y-74031241D01*
X196351759Y-73831363D01*
X196171490Y-73710911D01*
X203900000Y-73710911D01*
X203900000Y-73895089D01*
X203935932Y-74075729D01*
X204006414Y-74245889D01*
X204108738Y-74399028D01*
X204238972Y-74529262D01*
X204392111Y-74631586D01*
X204426077Y-74645655D01*
X207294346Y-77513924D01*
X207308414Y-77547889D01*
X207410738Y-77701028D01*
X207540972Y-77831262D01*
X207694111Y-77933586D01*
X207864271Y-78004068D01*
X208044911Y-78040000D01*
X208229089Y-78040000D01*
X208409729Y-78004068D01*
X208579889Y-77933586D01*
X208733028Y-77831262D01*
X208863262Y-77701028D01*
X208965586Y-77547889D01*
X209036068Y-77377729D01*
X209072000Y-77197089D01*
X209072000Y-77012911D01*
X209036068Y-76832271D01*
X208965586Y-76662111D01*
X208863262Y-76508972D01*
X208733028Y-76378738D01*
X208579889Y-76276414D01*
X208545924Y-76262346D01*
X205677655Y-73394077D01*
X205663586Y-73360111D01*
X205561262Y-73206972D01*
X205431028Y-73076738D01*
X205277889Y-72974414D01*
X205107729Y-72903932D01*
X204927089Y-72868000D01*
X204742911Y-72868000D01*
X204562271Y-72903932D01*
X204392111Y-72974414D01*
X204238972Y-73076738D01*
X204108738Y-73206972D01*
X204006414Y-73360111D01*
X203935932Y-73530271D01*
X203900000Y-73710911D01*
X196171490Y-73710911D01*
X196119241Y-73676000D01*
X196351759Y-73520637D01*
X196551637Y-73320759D01*
X196708680Y-73085727D01*
X196816853Y-72824574D01*
X196872000Y-72547335D01*
X196872000Y-72264665D01*
X196816853Y-71987426D01*
X196708680Y-71726273D01*
X196551637Y-71491241D01*
X196351759Y-71291363D01*
X196119241Y-71136000D01*
X196351759Y-70980637D01*
X196551637Y-70780759D01*
X196708680Y-70545727D01*
X196816853Y-70284574D01*
X196872000Y-70007335D01*
X196872000Y-69724665D01*
X196816853Y-69447426D01*
X196708680Y-69186273D01*
X196551637Y-68951241D01*
X196351759Y-68751363D01*
X196116727Y-68594320D01*
X196106135Y-68589933D01*
X196292131Y-68478385D01*
X196500519Y-68289414D01*
X196668037Y-68063420D01*
X196788246Y-67809087D01*
X196828904Y-67675039D01*
X196706915Y-67453000D01*
X195564000Y-67453000D01*
X195564000Y-67473000D01*
X195310000Y-67473000D01*
X195310000Y-67453000D01*
X195290000Y-67453000D01*
X195290000Y-67199000D01*
X195310000Y-67199000D01*
X195310000Y-67179000D01*
X195564000Y-67179000D01*
X195564000Y-67199000D01*
X196706915Y-67199000D01*
X196828904Y-66976961D01*
X196788246Y-66842913D01*
X196668037Y-66588580D01*
X196500519Y-66362586D01*
X196292131Y-66173615D01*
X196106135Y-66062067D01*
X196116727Y-66057680D01*
X196351759Y-65900637D01*
X196551637Y-65700759D01*
X196708680Y-65465727D01*
X196816853Y-65204574D01*
X196872000Y-64927335D01*
X196872000Y-64644665D01*
X196816853Y-64367426D01*
X196708680Y-64106273D01*
X196551637Y-63871241D01*
X196351759Y-63671363D01*
X196119241Y-63516000D01*
X196351759Y-63360637D01*
X196551637Y-63160759D01*
X196708680Y-62925727D01*
X196816853Y-62664574D01*
X196872000Y-62387335D01*
X196872000Y-62104665D01*
X196816853Y-61827426D01*
X196708680Y-61566273D01*
X196551637Y-61331241D01*
X196469054Y-61248658D01*
X198123000Y-61248658D01*
X198123000Y-66820658D01*
X198125440Y-66845434D01*
X198132667Y-66869259D01*
X198144403Y-66891215D01*
X198160197Y-66910461D01*
X198179443Y-66926255D01*
X198201399Y-66937991D01*
X198225224Y-66945218D01*
X198250000Y-66947658D01*
X203750000Y-66947658D01*
X203774776Y-66945218D01*
X203798601Y-66937991D01*
X203820557Y-66926255D01*
X203839803Y-66910461D01*
X203855597Y-66891215D01*
X203867333Y-66869259D01*
X203874560Y-66845434D01*
X203877000Y-66820658D01*
X203877000Y-61248658D01*
X203874560Y-61223882D01*
X203867333Y-61200057D01*
X203855597Y-61178101D01*
X203839803Y-61158855D01*
X203820557Y-61143061D01*
X203798601Y-61131325D01*
X203774776Y-61124098D01*
X203750000Y-61121658D01*
X198250000Y-61121658D01*
X198225224Y-61124098D01*
X198201399Y-61131325D01*
X198179443Y-61143061D01*
X198160197Y-61158855D01*
X198144403Y-61178101D01*
X198132667Y-61200057D01*
X198125440Y-61223882D01*
X198123000Y-61248658D01*
X196469054Y-61248658D01*
X196353039Y-61132643D01*
X196361482Y-61131812D01*
X196481180Y-61095502D01*
X196591494Y-61036537D01*
X196688185Y-60957185D01*
X196767537Y-60860494D01*
X196826502Y-60750180D01*
X196862812Y-60630482D01*
X196875072Y-60506000D01*
X196875072Y-58906000D01*
X196862812Y-58781518D01*
X196826502Y-58661820D01*
X196767537Y-58551506D01*
X196688185Y-58454815D01*
X196591494Y-58375463D01*
X196481180Y-58316498D01*
X196361482Y-58280188D01*
X196237000Y-58267928D01*
X194637000Y-58267928D01*
X194512518Y-58280188D01*
X194392820Y-58316498D01*
X194282506Y-58375463D01*
X194185815Y-58454815D01*
X194106463Y-58551506D01*
X194047498Y-58661820D01*
X194011188Y-58781518D01*
X194010357Y-58789961D01*
X193811759Y-58591363D01*
X193576727Y-58434320D01*
X193315574Y-58326147D01*
X193038335Y-58271000D01*
X192755665Y-58271000D01*
X192478426Y-58326147D01*
X192217273Y-58434320D01*
X191982241Y-58591363D01*
X191782363Y-58791241D01*
X191625320Y-59026273D01*
X191517147Y-59287426D01*
X191462000Y-59564665D01*
X191462000Y-59847335D01*
X191510044Y-60088865D01*
X191078909Y-60520000D01*
X190842290Y-60520000D01*
X190826028Y-60503738D01*
X190672889Y-60401414D01*
X190502729Y-60330932D01*
X190322089Y-60295000D01*
X190137911Y-60295000D01*
X189974000Y-60327604D01*
X189974000Y-58877801D01*
X190127649Y-58724153D01*
X190248729Y-58700068D01*
X190418889Y-58629586D01*
X190572028Y-58527262D01*
X190702262Y-58397028D01*
X190804586Y-58243889D01*
X190875068Y-58073729D01*
X190911000Y-57893089D01*
X190911000Y-57708911D01*
X190875068Y-57528271D01*
X190804586Y-57358111D01*
X190702262Y-57204972D01*
X190572028Y-57074738D01*
X190418889Y-56972414D01*
X190248729Y-56901932D01*
X190068089Y-56866000D01*
X189883911Y-56866000D01*
X189703271Y-56901932D01*
X189533111Y-56972414D01*
X189379972Y-57074738D01*
X189249738Y-57204972D01*
X189147414Y-57358111D01*
X189076932Y-57528271D01*
X189052847Y-57649351D01*
X188702998Y-57999201D01*
X188674000Y-58022999D01*
X188650202Y-58051997D01*
X188650201Y-58051998D01*
X188579026Y-58138724D01*
X188508454Y-58270754D01*
X188464998Y-58414015D01*
X188450324Y-58563000D01*
X188454001Y-58600332D01*
X188454000Y-62462677D01*
X188450324Y-62500000D01*
X188454000Y-62537322D01*
X188454000Y-62537332D01*
X188464997Y-62648985D01*
X188492910Y-62741002D01*
X188508454Y-62792246D01*
X188579026Y-62924276D01*
X188596946Y-62946111D01*
X188673999Y-63040001D01*
X188703002Y-63063803D01*
X189179847Y-63540649D01*
X189203932Y-63661729D01*
X189274414Y-63831889D01*
X189376738Y-63985028D01*
X189506972Y-64115262D01*
X189660111Y-64217586D01*
X189830271Y-64288068D01*
X190010911Y-64324000D01*
X190195089Y-64324000D01*
X190375729Y-64288068D01*
X190545889Y-64217586D01*
X190699028Y-64115262D01*
X190829262Y-63985028D01*
X190931586Y-63831889D01*
X191002068Y-63661729D01*
X191038000Y-63481089D01*
X191038000Y-63296911D01*
X191002068Y-63116271D01*
X190931586Y-62946111D01*
X190829262Y-62792972D01*
X190699028Y-62662738D01*
X190545889Y-62560414D01*
X190375729Y-62489932D01*
X190254649Y-62465847D01*
X189974000Y-62185199D01*
X189974000Y-62132396D01*
X190137911Y-62165000D01*
X190322089Y-62165000D01*
X190502729Y-62129068D01*
X190672889Y-62058586D01*
X190826028Y-61956262D01*
X190842290Y-61940000D01*
X191338125Y-61940000D01*
X191373000Y-61943435D01*
X191407875Y-61940000D01*
X191407877Y-61940000D01*
X191496490Y-61931273D01*
X191462000Y-62104665D01*
X191462000Y-62387335D01*
X191517147Y-62664574D01*
X191625320Y-62925727D01*
X191782363Y-63160759D01*
X191982241Y-63360637D01*
X192214759Y-63516000D01*
X191982241Y-63671363D01*
X191782363Y-63871241D01*
X191625320Y-64106273D01*
X191517147Y-64367426D01*
X191462000Y-64644665D01*
X191462000Y-64927335D01*
X191517147Y-65204574D01*
X191625320Y-65465727D01*
X191782363Y-65700759D01*
X191982241Y-65900637D01*
X192214759Y-66056000D01*
X191982241Y-66211363D01*
X191782363Y-66411241D01*
X191625320Y-66646273D01*
X191517147Y-66907426D01*
X191462000Y-67184665D01*
X191462000Y-67467335D01*
X191517147Y-67744574D01*
X191625320Y-68005727D01*
X191782363Y-68240759D01*
X191982241Y-68440637D01*
X192214759Y-68596000D01*
X191982241Y-68751363D01*
X191782363Y-68951241D01*
X191625320Y-69186273D01*
X191517147Y-69447426D01*
X191462000Y-69724665D01*
X191462000Y-70007335D01*
X191517147Y-70284574D01*
X191625320Y-70545727D01*
X191782363Y-70780759D01*
X191982241Y-70980637D01*
X192214759Y-71136000D01*
X191982241Y-71291363D01*
X191782363Y-71491241D01*
X191678957Y-71646000D01*
X189505322Y-71646000D01*
X189467999Y-71642324D01*
X189430676Y-71646000D01*
X189430667Y-71646000D01*
X189319014Y-71656997D01*
X189175753Y-71700454D01*
X189043723Y-71771026D01*
X189000591Y-71806424D01*
X188927999Y-71865999D01*
X188904201Y-71894997D01*
X187157352Y-73641847D01*
X187036271Y-73665932D01*
X186866111Y-73736414D01*
X186712972Y-73838738D01*
X186582738Y-73968972D01*
X186480414Y-74122111D01*
X186409932Y-74292271D01*
X186374000Y-74472911D01*
X94410000Y-74472911D01*
X94410000Y-69866000D01*
X131429000Y-69866000D01*
X131429000Y-70374000D01*
X131431440Y-70398776D01*
X131438667Y-70422601D01*
X131450403Y-70444557D01*
X131466197Y-70463803D01*
X131485443Y-70479597D01*
X131507399Y-70491333D01*
X131531224Y-70498560D01*
X131556000Y-70501000D01*
X138160000Y-70501000D01*
X138184776Y-70498560D01*
X138208601Y-70491333D01*
X138230557Y-70479597D01*
X138249803Y-70463803D01*
X139773803Y-68939803D01*
X139789456Y-68920768D01*
X139801235Y-68898835D01*
X139808510Y-68875025D01*
X139811000Y-68850253D01*
X139821392Y-63643000D01*
X140216000Y-63643000D01*
X140216000Y-63943000D01*
X140281800Y-64357078D01*
X140427118Y-64750362D01*
X140646370Y-65107739D01*
X140931130Y-65415475D01*
X141270454Y-65661744D01*
X141651303Y-65837083D01*
X141892167Y-65901113D01*
X142224000Y-65788165D01*
X142224000Y-63643000D01*
X142478000Y-63643000D01*
X142478000Y-65788165D01*
X142809833Y-65901113D01*
X143050697Y-65837083D01*
X143431546Y-65661744D01*
X143770870Y-65415475D01*
X144055630Y-65107739D01*
X144274882Y-64750362D01*
X144420200Y-64357078D01*
X144486000Y-63943000D01*
X144486000Y-63643000D01*
X142478000Y-63643000D01*
X142224000Y-63643000D01*
X140216000Y-63643000D01*
X139821392Y-63643000D01*
X139822497Y-63089000D01*
X140216000Y-63089000D01*
X140216000Y-63389000D01*
X142224000Y-63389000D01*
X142224000Y-61243835D01*
X142478000Y-61243835D01*
X142478000Y-63389000D01*
X144486000Y-63389000D01*
X144486000Y-63089000D01*
X144420200Y-62674922D01*
X144274882Y-62281638D01*
X144055630Y-61924261D01*
X143770870Y-61616525D01*
X143431546Y-61370256D01*
X143050697Y-61194917D01*
X142809833Y-61130887D01*
X142478000Y-61243835D01*
X142224000Y-61243835D01*
X141892167Y-61130887D01*
X141651303Y-61194917D01*
X141270454Y-61370256D01*
X140931130Y-61616525D01*
X140646370Y-61924261D01*
X140427118Y-62281638D01*
X140281800Y-62674922D01*
X140216000Y-63089000D01*
X139822497Y-63089000D01*
X139826747Y-60960000D01*
X147998714Y-60960000D01*
X147999414Y-60961689D01*
X148101738Y-61114828D01*
X148207343Y-61220433D01*
X147849533Y-61111892D01*
X147431000Y-61070670D01*
X147012468Y-61111892D01*
X146610019Y-61233974D01*
X146239120Y-61432223D01*
X145914024Y-61699023D01*
X145647223Y-62024119D01*
X145448974Y-62395018D01*
X145326892Y-62797467D01*
X145296000Y-63111118D01*
X145296000Y-63920881D01*
X145326892Y-64234532D01*
X145448974Y-64636981D01*
X145647223Y-65007881D01*
X145914023Y-65332977D01*
X146239119Y-65599777D01*
X146610018Y-65798026D01*
X147012467Y-65920108D01*
X147431000Y-65961330D01*
X147849532Y-65920108D01*
X148251981Y-65798026D01*
X148622881Y-65599777D01*
X148947977Y-65332977D01*
X149214777Y-65007881D01*
X149413026Y-64636982D01*
X149535108Y-64234533D01*
X149566000Y-63920882D01*
X149566000Y-63111119D01*
X149535108Y-62797468D01*
X149413026Y-62395019D01*
X149214777Y-62024119D01*
X148947977Y-61699023D01*
X148622881Y-61432223D01*
X148620180Y-61430779D01*
X148735911Y-61453800D01*
X148920089Y-61453800D01*
X149100729Y-61417868D01*
X149270889Y-61347386D01*
X149424028Y-61245062D01*
X149554262Y-61114828D01*
X149656586Y-60961689D01*
X149657286Y-60960000D01*
X150240822Y-60960000D01*
X150225000Y-72288223D01*
X150227440Y-72313176D01*
X150234667Y-72337001D01*
X150246403Y-72358957D01*
X150262197Y-72378203D01*
X150281443Y-72393997D01*
X150303399Y-72405733D01*
X150327224Y-72412960D01*
X150352000Y-72415400D01*
X159750000Y-72415400D01*
X159774776Y-72412960D01*
X159798601Y-72405733D01*
X159820557Y-72393997D01*
X159839803Y-72378203D01*
X159855597Y-72358957D01*
X159867333Y-72337001D01*
X159874560Y-72313176D01*
X159877000Y-72288400D01*
X159877000Y-71831200D01*
X159874560Y-71806424D01*
X159867333Y-71782599D01*
X159855597Y-71760643D01*
X159839803Y-71741397D01*
X159820557Y-71725603D01*
X159798601Y-71713867D01*
X159774776Y-71706640D01*
X159750000Y-71704200D01*
X150987000Y-71704200D01*
X150987000Y-68948411D01*
X155767000Y-68948411D01*
X155767000Y-69132589D01*
X155802932Y-69313229D01*
X155873414Y-69483389D01*
X155975738Y-69636528D01*
X156105972Y-69766762D01*
X156259111Y-69869086D01*
X156429271Y-69939568D01*
X156594485Y-69972432D01*
X156722568Y-70100515D01*
X156755432Y-70265729D01*
X156825914Y-70435889D01*
X156928238Y-70589028D01*
X157058472Y-70719262D01*
X157211611Y-70821586D01*
X157381771Y-70892068D01*
X157562411Y-70928000D01*
X157746589Y-70928000D01*
X157927229Y-70892068D01*
X158097389Y-70821586D01*
X158250528Y-70719262D01*
X158371529Y-70598261D01*
X158406432Y-70773729D01*
X158476914Y-70943889D01*
X158579238Y-71097028D01*
X158709472Y-71227262D01*
X158862611Y-71329586D01*
X159032771Y-71400068D01*
X159213411Y-71436000D01*
X159397589Y-71436000D01*
X159578229Y-71400068D01*
X159602535Y-71390000D01*
X161909000Y-71390000D01*
X161909000Y-71898000D01*
X161911440Y-71922776D01*
X161918667Y-71946601D01*
X161930403Y-71968557D01*
X161946197Y-71987803D01*
X161965443Y-72003597D01*
X161987399Y-72015333D01*
X162011224Y-72022560D01*
X162036000Y-72025000D01*
X167370000Y-72025000D01*
X167394776Y-72022560D01*
X167418601Y-72015333D01*
X167440557Y-72003597D01*
X167459803Y-71987803D01*
X169745803Y-69701803D01*
X169761597Y-69682557D01*
X169773333Y-69660601D01*
X169780560Y-69636776D01*
X169783000Y-69612000D01*
X169783000Y-63643000D01*
X170061000Y-63643000D01*
X170061000Y-63943000D01*
X170126800Y-64357078D01*
X170272118Y-64750362D01*
X170491370Y-65107739D01*
X170776130Y-65415475D01*
X171115454Y-65661744D01*
X171496303Y-65837083D01*
X171737167Y-65901113D01*
X172069000Y-65788165D01*
X172069000Y-63643000D01*
X172323000Y-63643000D01*
X172323000Y-65788165D01*
X172654833Y-65901113D01*
X172895697Y-65837083D01*
X173276546Y-65661744D01*
X173615870Y-65415475D01*
X173900630Y-65107739D01*
X174119882Y-64750362D01*
X174265200Y-64357078D01*
X174331000Y-63943000D01*
X174331000Y-63643000D01*
X172323000Y-63643000D01*
X172069000Y-63643000D01*
X170061000Y-63643000D01*
X169783000Y-63643000D01*
X169783000Y-63089000D01*
X170061000Y-63089000D01*
X170061000Y-63389000D01*
X172069000Y-63389000D01*
X172069000Y-61243835D01*
X172323000Y-61243835D01*
X172323000Y-63389000D01*
X174331000Y-63389000D01*
X174331000Y-63111118D01*
X175141000Y-63111118D01*
X175141000Y-63920881D01*
X175171892Y-64234532D01*
X175293974Y-64636981D01*
X175492223Y-65007881D01*
X175759023Y-65332977D01*
X176084119Y-65599777D01*
X176455018Y-65798026D01*
X176857467Y-65920108D01*
X177276000Y-65961330D01*
X177694532Y-65920108D01*
X178096981Y-65798026D01*
X178467881Y-65599777D01*
X178792977Y-65332977D01*
X179059777Y-65007881D01*
X179258026Y-64636982D01*
X179380108Y-64234533D01*
X179411000Y-63920882D01*
X179411000Y-63111119D01*
X179380108Y-62797468D01*
X179258026Y-62395019D01*
X179059777Y-62024119D01*
X178792977Y-61699023D01*
X178467881Y-61432223D01*
X178096982Y-61233974D01*
X177694533Y-61111892D01*
X177276000Y-61070670D01*
X176857468Y-61111892D01*
X176455019Y-61233974D01*
X176084120Y-61432223D01*
X175759024Y-61699023D01*
X175492223Y-62024119D01*
X175293974Y-62395018D01*
X175171892Y-62797467D01*
X175141000Y-63111118D01*
X174331000Y-63111118D01*
X174331000Y-63089000D01*
X174265200Y-62674922D01*
X174119882Y-62281638D01*
X173900630Y-61924261D01*
X173615870Y-61616525D01*
X173276546Y-61370256D01*
X172895697Y-61194917D01*
X172654833Y-61130887D01*
X172323000Y-61243835D01*
X172069000Y-61243835D01*
X171737167Y-61130887D01*
X171496303Y-61194917D01*
X171115454Y-61370256D01*
X170776130Y-61616525D01*
X170491370Y-61924261D01*
X170272118Y-62281638D01*
X170126800Y-62674922D01*
X170061000Y-63089000D01*
X169783000Y-63089000D01*
X169783000Y-60849000D01*
X179689000Y-60849000D01*
X179689000Y-69358000D01*
X179691440Y-69382776D01*
X179698667Y-69406601D01*
X179710403Y-69428557D01*
X179726197Y-69447803D01*
X179745443Y-69463597D01*
X179767399Y-69475333D01*
X179791224Y-69482560D01*
X179816000Y-69485000D01*
X180324000Y-69485000D01*
X180348776Y-69482560D01*
X180372601Y-69475333D01*
X180394557Y-69463597D01*
X180413803Y-69447803D01*
X180429597Y-69428557D01*
X180441333Y-69406601D01*
X180448560Y-69382776D01*
X180451000Y-69358000D01*
X180451000Y-60214000D01*
X180448560Y-60189224D01*
X180441333Y-60165399D01*
X180429597Y-60143443D01*
X180413803Y-60124197D01*
X180394557Y-60108403D01*
X180372601Y-60096667D01*
X180348776Y-60089440D01*
X180324000Y-60087000D01*
X169148000Y-60087000D01*
X169123224Y-60089440D01*
X169099399Y-60096667D01*
X169077443Y-60108403D01*
X169058197Y-60124197D01*
X169042403Y-60143443D01*
X169030667Y-60165399D01*
X169023440Y-60189224D01*
X169021000Y-60214000D01*
X169021000Y-65418990D01*
X169019389Y-65417914D01*
X168849229Y-65347432D01*
X168668589Y-65311500D01*
X168484411Y-65311500D01*
X168303771Y-65347432D01*
X168133611Y-65417914D01*
X167980472Y-65520238D01*
X167850238Y-65650472D01*
X167747914Y-65803611D01*
X167677432Y-65973771D01*
X167644568Y-66138985D01*
X167516485Y-66267068D01*
X167351271Y-66299932D01*
X167181111Y-66370414D01*
X167027972Y-66472738D01*
X166897738Y-66602972D01*
X166795414Y-66756111D01*
X166724932Y-66926271D01*
X166689000Y-67106911D01*
X166689000Y-67291089D01*
X166724932Y-67471729D01*
X166795414Y-67641889D01*
X166897738Y-67795028D01*
X167027972Y-67925262D01*
X167181111Y-68027586D01*
X167351271Y-68098068D01*
X167531911Y-68134000D01*
X167716089Y-68134000D01*
X167896729Y-68098068D01*
X168066889Y-68027586D01*
X168220028Y-67925262D01*
X168350262Y-67795028D01*
X168452586Y-67641889D01*
X168523068Y-67471729D01*
X168555932Y-67306515D01*
X168684015Y-67178432D01*
X168849229Y-67145568D01*
X169019389Y-67075086D01*
X169021000Y-67074010D01*
X169021000Y-69305394D01*
X167063394Y-71263000D01*
X162036000Y-71263000D01*
X162011224Y-71265440D01*
X161987399Y-71272667D01*
X161965443Y-71284403D01*
X161946197Y-71300197D01*
X161930403Y-71319443D01*
X161918667Y-71341399D01*
X161911440Y-71365224D01*
X161909000Y-71390000D01*
X159602535Y-71390000D01*
X159748389Y-71329586D01*
X159901528Y-71227262D01*
X160031762Y-71097028D01*
X160134086Y-70943889D01*
X160204568Y-70773729D01*
X160240500Y-70593089D01*
X160240500Y-70408911D01*
X160204568Y-70228271D01*
X160134086Y-70058111D01*
X160065500Y-69955465D01*
X160065500Y-69078035D01*
X160134086Y-68975389D01*
X160204568Y-68805229D01*
X160240500Y-68624589D01*
X160240500Y-68440411D01*
X160204568Y-68259771D01*
X160134086Y-68089611D01*
X160031762Y-67936472D01*
X159901528Y-67806238D01*
X159748389Y-67703914D01*
X159578229Y-67633432D01*
X159397589Y-67597500D01*
X159213411Y-67597500D01*
X159032771Y-67633432D01*
X158862611Y-67703914D01*
X158709472Y-67806238D01*
X158579238Y-67936472D01*
X158476914Y-68089611D01*
X158406432Y-68259771D01*
X158370500Y-68440411D01*
X158370500Y-68624589D01*
X158406432Y-68805229D01*
X158476914Y-68975389D01*
X158545501Y-69078037D01*
X158545500Y-69700794D01*
X158483086Y-69550111D01*
X158380762Y-69396972D01*
X158250528Y-69266738D01*
X158097389Y-69164414D01*
X157927229Y-69093932D01*
X157762015Y-69061068D01*
X157633932Y-68932985D01*
X157601068Y-68767771D01*
X157530586Y-68597611D01*
X157428262Y-68444472D01*
X157298028Y-68314238D01*
X157144889Y-68211914D01*
X156974729Y-68141432D01*
X156794089Y-68105500D01*
X156609911Y-68105500D01*
X156429271Y-68141432D01*
X156259111Y-68211914D01*
X156105972Y-68314238D01*
X155975738Y-68444472D01*
X155873414Y-68597611D01*
X155802932Y-68767771D01*
X155767000Y-68948411D01*
X150987000Y-68948411D01*
X150987000Y-64439911D01*
X166181000Y-64439911D01*
X166181000Y-64624089D01*
X166216932Y-64804729D01*
X166287414Y-64974889D01*
X166389738Y-65128028D01*
X166519972Y-65258262D01*
X166673111Y-65360586D01*
X166843271Y-65431068D01*
X167023911Y-65467000D01*
X167208089Y-65467000D01*
X167388729Y-65431068D01*
X167558889Y-65360586D01*
X167712028Y-65258262D01*
X167842262Y-65128028D01*
X167944586Y-64974889D01*
X168015068Y-64804729D01*
X168051000Y-64624089D01*
X168051000Y-64439911D01*
X168015068Y-64259271D01*
X167944586Y-64089111D01*
X167876000Y-63986465D01*
X167876000Y-62673000D01*
X167970089Y-62673000D01*
X168150729Y-62637068D01*
X168320889Y-62566586D01*
X168474028Y-62464262D01*
X168604262Y-62334028D01*
X168706586Y-62180889D01*
X168777068Y-62010729D01*
X168813000Y-61830089D01*
X168813000Y-61645911D01*
X168777068Y-61465271D01*
X168706586Y-61295111D01*
X168604262Y-61141972D01*
X168474028Y-61011738D01*
X168320889Y-60909414D01*
X168150729Y-60838932D01*
X167970089Y-60803000D01*
X167785911Y-60803000D01*
X167605271Y-60838932D01*
X167435111Y-60909414D01*
X167332430Y-60978023D01*
X167221014Y-60988997D01*
X167077753Y-61032454D01*
X166945724Y-61103026D01*
X166829999Y-61197999D01*
X166806196Y-61227003D01*
X166605003Y-61428196D01*
X166575999Y-61451999D01*
X166534128Y-61503020D01*
X166481026Y-61567724D01*
X166454941Y-61616525D01*
X166410454Y-61699754D01*
X166366997Y-61843015D01*
X166356000Y-61954668D01*
X166356000Y-61954678D01*
X166352324Y-61992000D01*
X166356000Y-62029323D01*
X166356001Y-63986463D01*
X166287414Y-64089111D01*
X166216932Y-64259271D01*
X166181000Y-64439911D01*
X150987000Y-64439911D01*
X150987000Y-60468000D01*
X150984560Y-60443224D01*
X150977333Y-60419399D01*
X150965597Y-60397443D01*
X150949803Y-60378197D01*
X150930557Y-60362403D01*
X150908601Y-60350667D01*
X150884776Y-60343440D01*
X150860000Y-60341000D01*
X149745951Y-60341000D01*
X149727068Y-60246071D01*
X149656586Y-60075911D01*
X149588000Y-59973265D01*
X149588000Y-59172035D01*
X149656586Y-59069389D01*
X149727068Y-58899229D01*
X149763000Y-58718589D01*
X149763000Y-58534411D01*
X149727068Y-58353771D01*
X149656586Y-58183611D01*
X149554262Y-58030472D01*
X149424028Y-57900238D01*
X149270889Y-57797914D01*
X149100729Y-57727432D01*
X148920089Y-57691500D01*
X148735911Y-57691500D01*
X148555271Y-57727432D01*
X148385111Y-57797914D01*
X148231972Y-57900238D01*
X148101738Y-58030472D01*
X147999414Y-58183611D01*
X147928932Y-58353771D01*
X147893000Y-58534411D01*
X147893000Y-58718589D01*
X147928932Y-58899229D01*
X147999414Y-59069389D01*
X148068000Y-59172036D01*
X148068001Y-59973264D01*
X147999414Y-60075911D01*
X147928932Y-60246071D01*
X147910049Y-60341000D01*
X139176000Y-60341000D01*
X139151224Y-60343440D01*
X139127399Y-60350667D01*
X139105443Y-60362403D01*
X139086197Y-60378197D01*
X139070403Y-60397443D01*
X139058667Y-60419399D01*
X139051440Y-60443224D01*
X139049000Y-60468000D01*
X139049000Y-68543394D01*
X137853394Y-69739000D01*
X131556000Y-69739000D01*
X131531224Y-69741440D01*
X131507399Y-69748667D01*
X131485443Y-69760403D01*
X131466197Y-69776197D01*
X131450403Y-69795443D01*
X131438667Y-69817399D01*
X131431440Y-69841224D01*
X131429000Y-69866000D01*
X94410000Y-69866000D01*
X94410000Y-61250000D01*
X96123000Y-61250000D01*
X96123000Y-66750000D01*
X96125440Y-66774776D01*
X96132667Y-66798601D01*
X96144403Y-66820557D01*
X96160197Y-66839803D01*
X96179443Y-66855597D01*
X96201399Y-66867333D01*
X96225224Y-66874560D01*
X96250000Y-66877000D01*
X101750000Y-66877000D01*
X101774776Y-66874560D01*
X101798601Y-66867333D01*
X101820557Y-66855597D01*
X101839803Y-66839803D01*
X101855597Y-66820557D01*
X101867333Y-66798601D01*
X101874560Y-66774776D01*
X101877000Y-66750000D01*
X101877000Y-63643000D01*
X110371000Y-63643000D01*
X110371000Y-63943000D01*
X110436800Y-64357078D01*
X110582118Y-64750362D01*
X110801370Y-65107739D01*
X111086130Y-65415475D01*
X111425454Y-65661744D01*
X111806303Y-65837083D01*
X112047167Y-65901113D01*
X112379000Y-65788165D01*
X112379000Y-63643000D01*
X112633000Y-63643000D01*
X112633000Y-65788165D01*
X112964833Y-65901113D01*
X113205697Y-65837083D01*
X113586546Y-65661744D01*
X113925870Y-65415475D01*
X114210630Y-65107739D01*
X114429882Y-64750362D01*
X114575200Y-64357078D01*
X114641000Y-63943000D01*
X114641000Y-63643000D01*
X112633000Y-63643000D01*
X112379000Y-63643000D01*
X110371000Y-63643000D01*
X101877000Y-63643000D01*
X101877000Y-63089000D01*
X110371000Y-63089000D01*
X110371000Y-63389000D01*
X112379000Y-63389000D01*
X112379000Y-61243835D01*
X112633000Y-61243835D01*
X112633000Y-63389000D01*
X114641000Y-63389000D01*
X114641000Y-63111118D01*
X115451000Y-63111118D01*
X115451000Y-63920881D01*
X115481892Y-64234532D01*
X115603974Y-64636981D01*
X115802223Y-65007881D01*
X116069023Y-65332977D01*
X116394119Y-65599777D01*
X116765018Y-65798026D01*
X117167467Y-65920108D01*
X117586000Y-65961330D01*
X118004532Y-65920108D01*
X118406981Y-65798026D01*
X118777881Y-65599777D01*
X119102977Y-65332977D01*
X119369777Y-65007881D01*
X119568026Y-64636982D01*
X119690108Y-64234533D01*
X119721000Y-63920882D01*
X119721000Y-63111119D01*
X119690108Y-62797468D01*
X119681316Y-62768485D01*
X120840802Y-61609000D01*
X122986199Y-61609000D01*
X126744701Y-65367503D01*
X126744700Y-67936164D01*
X126676114Y-68038811D01*
X126605632Y-68208971D01*
X126569700Y-68389611D01*
X126569700Y-68573789D01*
X126605632Y-68754429D01*
X126676114Y-68924589D01*
X126778438Y-69077728D01*
X126908672Y-69207962D01*
X127061811Y-69310286D01*
X127231971Y-69380768D01*
X127412611Y-69416700D01*
X127596789Y-69416700D01*
X127777429Y-69380768D01*
X127947589Y-69310286D01*
X128100728Y-69207962D01*
X128230962Y-69077728D01*
X128333286Y-68924589D01*
X128403768Y-68754429D01*
X128439700Y-68573789D01*
X128439700Y-68389611D01*
X128403768Y-68208971D01*
X128333286Y-68038811D01*
X128264700Y-67936165D01*
X128264700Y-65090033D01*
X128268377Y-65052700D01*
X128253703Y-64903714D01*
X128210246Y-64760453D01*
X128139674Y-64628424D01*
X128068499Y-64541697D01*
X128044701Y-64512699D01*
X128015703Y-64488901D01*
X123864804Y-60338003D01*
X123841001Y-60308999D01*
X123725276Y-60214026D01*
X123593247Y-60143454D01*
X123449986Y-60099997D01*
X123338333Y-60089000D01*
X123338322Y-60089000D01*
X123301000Y-60085324D01*
X123263678Y-60089000D01*
X120563322Y-60089000D01*
X120525999Y-60085324D01*
X120488676Y-60089000D01*
X120488667Y-60089000D01*
X120377014Y-60099997D01*
X120233753Y-60143454D01*
X120101724Y-60214026D01*
X119985999Y-60308999D01*
X119962201Y-60337997D01*
X118827365Y-61472833D01*
X118777881Y-61432223D01*
X118406982Y-61233974D01*
X118004533Y-61111892D01*
X117586000Y-61070670D01*
X117167468Y-61111892D01*
X116765019Y-61233974D01*
X116394120Y-61432223D01*
X116069024Y-61699023D01*
X115802223Y-62024119D01*
X115603974Y-62395018D01*
X115481892Y-62797467D01*
X115451000Y-63111118D01*
X114641000Y-63111118D01*
X114641000Y-63089000D01*
X114575200Y-62674922D01*
X114429882Y-62281638D01*
X114210630Y-61924261D01*
X113925870Y-61616525D01*
X113586546Y-61370256D01*
X113205697Y-61194917D01*
X112964833Y-61130887D01*
X112633000Y-61243835D01*
X112379000Y-61243835D01*
X112047167Y-61130887D01*
X111806303Y-61194917D01*
X111425454Y-61370256D01*
X111086130Y-61616525D01*
X110801370Y-61924261D01*
X110582118Y-62281638D01*
X110436800Y-62674922D01*
X110371000Y-63089000D01*
X101877000Y-63089000D01*
X101877000Y-61250000D01*
X101874560Y-61225224D01*
X101867333Y-61201399D01*
X101855597Y-61179443D01*
X101839803Y-61160197D01*
X101820557Y-61144403D01*
X101798601Y-61132667D01*
X101774776Y-61125440D01*
X101750000Y-61123000D01*
X96250000Y-61123000D01*
X96225224Y-61125440D01*
X96201399Y-61132667D01*
X96179443Y-61144403D01*
X96160197Y-61160197D01*
X96144403Y-61179443D01*
X96132667Y-61201399D01*
X96125440Y-61225224D01*
X96123000Y-61250000D01*
X94410000Y-61250000D01*
X94410000Y-58154155D01*
X94771161Y-58694670D01*
X95305330Y-59228839D01*
X95933446Y-59648533D01*
X96631372Y-59937623D01*
X97372285Y-60085000D01*
X98127715Y-60085000D01*
X98868628Y-59937623D01*
X99566554Y-59648533D01*
X100194670Y-59228839D01*
X100728839Y-58694670D01*
X101148533Y-58066554D01*
X101437623Y-57368628D01*
X101585000Y-56627715D01*
X101585000Y-56375411D01*
X127382500Y-56375411D01*
X127382500Y-56559589D01*
X127418432Y-56740229D01*
X127488914Y-56910389D01*
X127557500Y-57013036D01*
X127557501Y-58334963D01*
X127488914Y-58437611D01*
X127418432Y-58607771D01*
X127382500Y-58788411D01*
X127382500Y-58972589D01*
X127418432Y-59153229D01*
X127488914Y-59323389D01*
X127591238Y-59476528D01*
X127721472Y-59606762D01*
X127874611Y-59709086D01*
X128044771Y-59779568D01*
X128225411Y-59815500D01*
X128409589Y-59815500D01*
X128590229Y-59779568D01*
X128760389Y-59709086D01*
X128913528Y-59606762D01*
X128920750Y-59599540D01*
X128927972Y-59606762D01*
X129081111Y-59709086D01*
X129251271Y-59779568D01*
X129431911Y-59815500D01*
X129616089Y-59815500D01*
X129796729Y-59779568D01*
X129966889Y-59709086D01*
X130120028Y-59606762D01*
X130127250Y-59599540D01*
X130134472Y-59606762D01*
X130287611Y-59709086D01*
X130457771Y-59779568D01*
X130638411Y-59815500D01*
X130822589Y-59815500D01*
X131003229Y-59779568D01*
X131173389Y-59709086D01*
X131326528Y-59606762D01*
X131333750Y-59599540D01*
X131340972Y-59606762D01*
X131494111Y-59709086D01*
X131664271Y-59779568D01*
X131844911Y-59815500D01*
X132029089Y-59815500D01*
X132209729Y-59779568D01*
X132379889Y-59709086D01*
X132533028Y-59606762D01*
X132540250Y-59599540D01*
X132547472Y-59606762D01*
X132700611Y-59709086D01*
X132870771Y-59779568D01*
X133051411Y-59815500D01*
X133235589Y-59815500D01*
X133416229Y-59779568D01*
X133586389Y-59709086D01*
X133739528Y-59606762D01*
X133869762Y-59476528D01*
X133972086Y-59323389D01*
X134042568Y-59153229D01*
X134078500Y-58972589D01*
X134078500Y-58788411D01*
X134042568Y-58607771D01*
X133972086Y-58437611D01*
X133903500Y-58334965D01*
X133903500Y-57013035D01*
X133972086Y-56910389D01*
X134042568Y-56740229D01*
X134050110Y-56702311D01*
X144200600Y-56702311D01*
X144200600Y-56886489D01*
X144236532Y-57067129D01*
X144307014Y-57237289D01*
X144375600Y-57339936D01*
X144375601Y-58064963D01*
X144307014Y-58167611D01*
X144236532Y-58337771D01*
X144200600Y-58518411D01*
X144200600Y-58702589D01*
X144236532Y-58883229D01*
X144307014Y-59053389D01*
X144409338Y-59206528D01*
X144539572Y-59336762D01*
X144692711Y-59439086D01*
X144862871Y-59509568D01*
X145043511Y-59545500D01*
X145227689Y-59545500D01*
X145408329Y-59509568D01*
X145578489Y-59439086D01*
X145731628Y-59336762D01*
X145861862Y-59206528D01*
X145964186Y-59053389D01*
X146034668Y-58883229D01*
X146070600Y-58702589D01*
X146070600Y-58518411D01*
X146034668Y-58337771D01*
X145964186Y-58167611D01*
X145895600Y-58064965D01*
X145895600Y-57339935D01*
X145964186Y-57237289D01*
X146020285Y-57101851D01*
X149429700Y-57101851D01*
X149429700Y-57286029D01*
X149465632Y-57466669D01*
X149536114Y-57636829D01*
X149638438Y-57789968D01*
X149768672Y-57920202D01*
X149921811Y-58022526D01*
X150091971Y-58093008D01*
X150257185Y-58125872D01*
X150448768Y-58317455D01*
X150481632Y-58482669D01*
X150552114Y-58652829D01*
X150654438Y-58805968D01*
X150784672Y-58936202D01*
X150937811Y-59038526D01*
X151107971Y-59109008D01*
X151288611Y-59144940D01*
X151472789Y-59144940D01*
X151653429Y-59109008D01*
X151823589Y-59038526D01*
X151976728Y-58936202D01*
X152106962Y-58805968D01*
X152161122Y-58724911D01*
X152338000Y-58724911D01*
X152338000Y-58909089D01*
X152373932Y-59089729D01*
X152444414Y-59259889D01*
X152546738Y-59413028D01*
X152676972Y-59543262D01*
X152830111Y-59645586D01*
X153000271Y-59716068D01*
X153180911Y-59752000D01*
X153365089Y-59752000D01*
X153545729Y-59716068D01*
X153715889Y-59645586D01*
X153869028Y-59543262D01*
X153999262Y-59413028D01*
X154101586Y-59259889D01*
X154172068Y-59089729D01*
X154208000Y-58909089D01*
X154208000Y-58724911D01*
X154172068Y-58544271D01*
X154101586Y-58374111D01*
X154033000Y-58271465D01*
X154033000Y-57734801D01*
X155492802Y-56275000D01*
X160532421Y-56275000D01*
X159040155Y-57767266D01*
X158978489Y-57755000D01*
X158794311Y-57755000D01*
X158613671Y-57790932D01*
X158443511Y-57861414D01*
X158290372Y-57963738D01*
X158160138Y-58093972D01*
X158057814Y-58247111D01*
X157987332Y-58417271D01*
X157951400Y-58597911D01*
X157951400Y-58782089D01*
X157987332Y-58962729D01*
X158057814Y-59132889D01*
X158160138Y-59286028D01*
X158290372Y-59416262D01*
X158443511Y-59518586D01*
X158613671Y-59589068D01*
X158794311Y-59625000D01*
X158978489Y-59625000D01*
X159159129Y-59589068D01*
X159193092Y-59575000D01*
X159325531Y-59575000D01*
X159369000Y-59579281D01*
X159412469Y-59575000D01*
X159412477Y-59575000D01*
X159542490Y-59562195D01*
X159709313Y-59511589D01*
X159863059Y-59429411D01*
X159997817Y-59318817D01*
X160025534Y-59285044D01*
X161601667Y-57708911D01*
X179389000Y-57708911D01*
X179389000Y-57893089D01*
X179424932Y-58073729D01*
X179495414Y-58243889D01*
X179597738Y-58397028D01*
X179727972Y-58527262D01*
X179881111Y-58629586D01*
X180051271Y-58700068D01*
X180214500Y-58732537D01*
X180214500Y-58782089D01*
X180250432Y-58962729D01*
X180320914Y-59132889D01*
X180423238Y-59286028D01*
X180553472Y-59416262D01*
X180706611Y-59518586D01*
X180876771Y-59589068D01*
X181057411Y-59625000D01*
X181241589Y-59625000D01*
X181422229Y-59589068D01*
X181592389Y-59518586D01*
X181695035Y-59450000D01*
X183969465Y-59450000D01*
X184072111Y-59518586D01*
X184242271Y-59589068D01*
X184422911Y-59625000D01*
X184607089Y-59625000D01*
X184787729Y-59589068D01*
X184957889Y-59518586D01*
X185111028Y-59416262D01*
X185241262Y-59286028D01*
X185343586Y-59132889D01*
X185414068Y-58962729D01*
X185450000Y-58782089D01*
X185450000Y-58597911D01*
X185414068Y-58417271D01*
X185343586Y-58247111D01*
X185241262Y-58093972D01*
X185111028Y-57963738D01*
X184957889Y-57861414D01*
X184787729Y-57790932D01*
X184607089Y-57755000D01*
X184561000Y-57755000D01*
X184561000Y-57708911D01*
X184525068Y-57528271D01*
X184454586Y-57358111D01*
X184352262Y-57204972D01*
X184222028Y-57074738D01*
X184068889Y-56972414D01*
X183898729Y-56901932D01*
X183718089Y-56866000D01*
X183533911Y-56866000D01*
X183353271Y-56901932D01*
X183183111Y-56972414D01*
X183080465Y-57041000D01*
X180869535Y-57041000D01*
X180766889Y-56972414D01*
X180596729Y-56901932D01*
X180416089Y-56866000D01*
X180231911Y-56866000D01*
X180051271Y-56901932D01*
X179881111Y-56972414D01*
X179727972Y-57074738D01*
X179597738Y-57204972D01*
X179495414Y-57358111D01*
X179424932Y-57528271D01*
X179389000Y-57708911D01*
X161601667Y-57708911D01*
X162631049Y-56679530D01*
X162664817Y-56651817D01*
X162775411Y-56517059D01*
X162783378Y-56502153D01*
X162857589Y-56363314D01*
X162908195Y-56196490D01*
X162909268Y-56185596D01*
X162921000Y-56066477D01*
X162921000Y-56066469D01*
X162925281Y-56023000D01*
X162921000Y-55979531D01*
X162921000Y-55821692D01*
X162935068Y-55787729D01*
X162971000Y-55607089D01*
X162971000Y-55422911D01*
X162935068Y-55242271D01*
X162864586Y-55072111D01*
X162762262Y-54918972D01*
X162632028Y-54788738D01*
X162478889Y-54686414D01*
X162308729Y-54615932D01*
X162128089Y-54580000D01*
X161943911Y-54580000D01*
X161763271Y-54615932D01*
X161593111Y-54686414D01*
X161490465Y-54755000D01*
X155215323Y-54755000D01*
X155178000Y-54751324D01*
X155140677Y-54755000D01*
X155140667Y-54755000D01*
X155029014Y-54765997D01*
X154885753Y-54809454D01*
X154753724Y-54880026D01*
X154637999Y-54974999D01*
X154614201Y-55003997D01*
X152761998Y-56856201D01*
X152733000Y-56879999D01*
X152709202Y-56908997D01*
X152709201Y-56908998D01*
X152638026Y-56995724D01*
X152567454Y-57127754D01*
X152547378Y-57193940D01*
X152523998Y-57271014D01*
X152522519Y-57286029D01*
X152509324Y-57420000D01*
X152513001Y-57457332D01*
X152513000Y-58271464D01*
X152444414Y-58374111D01*
X152373932Y-58544271D01*
X152338000Y-58724911D01*
X152161122Y-58724911D01*
X152209286Y-58652829D01*
X152279768Y-58482669D01*
X152315700Y-58302029D01*
X152315700Y-58117851D01*
X152279768Y-57937211D01*
X152209286Y-57767051D01*
X152106962Y-57613912D01*
X151976728Y-57483678D01*
X151823589Y-57381354D01*
X151653429Y-57310872D01*
X151488215Y-57278008D01*
X151296632Y-57086425D01*
X151263768Y-56921211D01*
X151193286Y-56751051D01*
X151090962Y-56597912D01*
X150960728Y-56467678D01*
X150807589Y-56365354D01*
X150637429Y-56294872D01*
X150456789Y-56258940D01*
X150272611Y-56258940D01*
X150091971Y-56294872D01*
X149921811Y-56365354D01*
X149768672Y-56467678D01*
X149638438Y-56597912D01*
X149536114Y-56751051D01*
X149465632Y-56921211D01*
X149429700Y-57101851D01*
X146020285Y-57101851D01*
X146034668Y-57067129D01*
X146070600Y-56886489D01*
X146070600Y-56702311D01*
X146034668Y-56521671D01*
X145964186Y-56351511D01*
X145861862Y-56198372D01*
X145731628Y-56068138D01*
X145578489Y-55965814D01*
X145408329Y-55895332D01*
X145227689Y-55859400D01*
X145043511Y-55859400D01*
X144862871Y-55895332D01*
X144692711Y-55965814D01*
X144539572Y-56068138D01*
X144409338Y-56198372D01*
X144307014Y-56351511D01*
X144236532Y-56521671D01*
X144200600Y-56702311D01*
X134050110Y-56702311D01*
X134078500Y-56559589D01*
X134078500Y-56375411D01*
X134042568Y-56194771D01*
X133972086Y-56024611D01*
X133869762Y-55871472D01*
X133739528Y-55741238D01*
X133586389Y-55638914D01*
X133416229Y-55568432D01*
X133235589Y-55532500D01*
X133051411Y-55532500D01*
X132870771Y-55568432D01*
X132700611Y-55638914D01*
X132547472Y-55741238D01*
X132540250Y-55748460D01*
X132533028Y-55741238D01*
X132379889Y-55638914D01*
X132209729Y-55568432D01*
X132029089Y-55532500D01*
X131844911Y-55532500D01*
X131664271Y-55568432D01*
X131494111Y-55638914D01*
X131340972Y-55741238D01*
X131333750Y-55748460D01*
X131326528Y-55741238D01*
X131173389Y-55638914D01*
X131003229Y-55568432D01*
X130822589Y-55532500D01*
X130638411Y-55532500D01*
X130457771Y-55568432D01*
X130287611Y-55638914D01*
X130134472Y-55741238D01*
X130127250Y-55748460D01*
X130120028Y-55741238D01*
X129966889Y-55638914D01*
X129796729Y-55568432D01*
X129616089Y-55532500D01*
X129431911Y-55532500D01*
X129251271Y-55568432D01*
X129081111Y-55638914D01*
X128927972Y-55741238D01*
X128920750Y-55748460D01*
X128913528Y-55741238D01*
X128760389Y-55638914D01*
X128590229Y-55568432D01*
X128409589Y-55532500D01*
X128225411Y-55532500D01*
X128044771Y-55568432D01*
X127874611Y-55638914D01*
X127721472Y-55741238D01*
X127591238Y-55871472D01*
X127488914Y-56024611D01*
X127418432Y-56194771D01*
X127382500Y-56375411D01*
X101585000Y-56375411D01*
X101585000Y-55872285D01*
X101437623Y-55131372D01*
X101148533Y-54433446D01*
X100961086Y-54152911D01*
X199074000Y-54152911D01*
X199074000Y-54337089D01*
X199109932Y-54517729D01*
X199180414Y-54687889D01*
X199249000Y-54790536D01*
X199249001Y-58144463D01*
X199180414Y-58247111D01*
X199109932Y-58417271D01*
X199074000Y-58597911D01*
X199074000Y-58782089D01*
X199109932Y-58962729D01*
X199180414Y-59132889D01*
X199282738Y-59286028D01*
X199412972Y-59416262D01*
X199566111Y-59518586D01*
X199736271Y-59589068D01*
X199916911Y-59625000D01*
X200101089Y-59625000D01*
X200281729Y-59589068D01*
X200340643Y-59564665D01*
X209242000Y-59564665D01*
X209242000Y-59847335D01*
X209297147Y-60124574D01*
X209405320Y-60385727D01*
X209562363Y-60620759D01*
X209762241Y-60820637D01*
X209997273Y-60977680D01*
X210007865Y-60982067D01*
X209821869Y-61093615D01*
X209613481Y-61282586D01*
X209445963Y-61508580D01*
X209325754Y-61762913D01*
X209285096Y-61896961D01*
X209407085Y-62119000D01*
X210550000Y-62119000D01*
X210550000Y-62099000D01*
X210804000Y-62099000D01*
X210804000Y-62119000D01*
X210824000Y-62119000D01*
X210824000Y-62373000D01*
X210804000Y-62373000D01*
X210804000Y-62393000D01*
X210550000Y-62393000D01*
X210550000Y-62373000D01*
X209407085Y-62373000D01*
X209285096Y-62595039D01*
X209325754Y-62729087D01*
X209445963Y-62983420D01*
X209613481Y-63209414D01*
X209821869Y-63398385D01*
X210007865Y-63509933D01*
X209997273Y-63514320D01*
X209762241Y-63671363D01*
X209562363Y-63871241D01*
X209405320Y-64106273D01*
X209297147Y-64367426D01*
X209242000Y-64644665D01*
X209242000Y-64927335D01*
X209297147Y-65204574D01*
X209405320Y-65465727D01*
X209562363Y-65700759D01*
X209762241Y-65900637D01*
X209994759Y-66056000D01*
X209762241Y-66211363D01*
X209562363Y-66411241D01*
X209405320Y-66646273D01*
X209297147Y-66907426D01*
X209242000Y-67184665D01*
X209242000Y-67467335D01*
X209297147Y-67744574D01*
X209405320Y-68005727D01*
X209562363Y-68240759D01*
X209762241Y-68440637D01*
X209994759Y-68596000D01*
X209762241Y-68751363D01*
X209562363Y-68951241D01*
X209405320Y-69186273D01*
X209297147Y-69447426D01*
X209242000Y-69724665D01*
X209242000Y-70007335D01*
X209297147Y-70284574D01*
X209405320Y-70545727D01*
X209562363Y-70780759D01*
X209762241Y-70980637D01*
X209994759Y-71136000D01*
X209762241Y-71291363D01*
X209562363Y-71491241D01*
X209405320Y-71726273D01*
X209297147Y-71987426D01*
X209242000Y-72264665D01*
X209242000Y-72547335D01*
X209297147Y-72824574D01*
X209405320Y-73085727D01*
X209562363Y-73320759D01*
X209762241Y-73520637D01*
X209994759Y-73676000D01*
X209762241Y-73831363D01*
X209562363Y-74031241D01*
X209405320Y-74266273D01*
X209297147Y-74527426D01*
X209242000Y-74804665D01*
X209242000Y-75087335D01*
X209297147Y-75364574D01*
X209405320Y-75625727D01*
X209562363Y-75860759D01*
X209762241Y-76060637D01*
X209994759Y-76216000D01*
X209762241Y-76371363D01*
X209562363Y-76571241D01*
X209405320Y-76806273D01*
X209297147Y-77067426D01*
X209242000Y-77344665D01*
X209242000Y-77627335D01*
X209297147Y-77904574D01*
X209405320Y-78165727D01*
X209562363Y-78400759D01*
X209762241Y-78600637D01*
X209994759Y-78756000D01*
X209762241Y-78911363D01*
X209562363Y-79111241D01*
X209405320Y-79346273D01*
X209297147Y-79607426D01*
X209242000Y-79884665D01*
X209242000Y-80167335D01*
X209297147Y-80444574D01*
X209405320Y-80705727D01*
X209562363Y-80940759D01*
X209762241Y-81140637D01*
X209994759Y-81296000D01*
X209762241Y-81451363D01*
X209562363Y-81651241D01*
X209405320Y-81886273D01*
X209297147Y-82147426D01*
X209242000Y-82424665D01*
X209242000Y-82707335D01*
X209297147Y-82984574D01*
X209405320Y-83245727D01*
X209562363Y-83480759D01*
X209762241Y-83680637D01*
X209994759Y-83836000D01*
X209762241Y-83991363D01*
X209562363Y-84191241D01*
X209405320Y-84426273D01*
X209297147Y-84687426D01*
X209242000Y-84964665D01*
X209242000Y-85247335D01*
X209297147Y-85524574D01*
X209405320Y-85785727D01*
X209562363Y-86020759D01*
X209762241Y-86220637D01*
X209994759Y-86376000D01*
X209762241Y-86531363D01*
X209562363Y-86731241D01*
X209405320Y-86966273D01*
X209297147Y-87227426D01*
X209242000Y-87504665D01*
X209242000Y-87787335D01*
X209297147Y-88064574D01*
X209405320Y-88325727D01*
X209562363Y-88560759D01*
X209762241Y-88760637D01*
X209994759Y-88916000D01*
X209762241Y-89071363D01*
X209562363Y-89271241D01*
X209405320Y-89506273D01*
X209297147Y-89767426D01*
X209242000Y-90044665D01*
X209242000Y-90327335D01*
X209297147Y-90604574D01*
X209405320Y-90865727D01*
X209562363Y-91100759D01*
X209762241Y-91300637D01*
X209994759Y-91456000D01*
X209762241Y-91611363D01*
X209562363Y-91811241D01*
X209405320Y-92046273D01*
X209297147Y-92307426D01*
X209242000Y-92584665D01*
X209242000Y-92867335D01*
X209297147Y-93144574D01*
X209405320Y-93405727D01*
X209562363Y-93640759D01*
X209762241Y-93840637D01*
X209994759Y-93996000D01*
X209762241Y-94151363D01*
X209562363Y-94351241D01*
X209405320Y-94586273D01*
X209297147Y-94847426D01*
X209242000Y-95124665D01*
X209242000Y-95407335D01*
X209297147Y-95684574D01*
X209405320Y-95945727D01*
X209562363Y-96180759D01*
X209762241Y-96380637D01*
X209997273Y-96537680D01*
X210258426Y-96645853D01*
X210535665Y-96701000D01*
X210818335Y-96701000D01*
X211095574Y-96645853D01*
X211356727Y-96537680D01*
X211591759Y-96380637D01*
X211791637Y-96180759D01*
X211947000Y-95948241D01*
X212102363Y-96180759D01*
X212302241Y-96380637D01*
X212534759Y-96536000D01*
X212302241Y-96691363D01*
X212102363Y-96891241D01*
X211945320Y-97126273D01*
X211837147Y-97387426D01*
X211782000Y-97664665D01*
X211782000Y-97947335D01*
X211837147Y-98224574D01*
X211945320Y-98485727D01*
X212102363Y-98720759D01*
X212302241Y-98920637D01*
X212537273Y-99077680D01*
X212798426Y-99185853D01*
X213075665Y-99241000D01*
X213358335Y-99241000D01*
X213635574Y-99185853D01*
X213896727Y-99077680D01*
X214131759Y-98920637D01*
X214331637Y-98720759D01*
X214488680Y-98485727D01*
X214596853Y-98224574D01*
X214652000Y-97947335D01*
X214652000Y-97664665D01*
X214596853Y-97387426D01*
X214488680Y-97126273D01*
X214331637Y-96891241D01*
X214131759Y-96691363D01*
X213899241Y-96536000D01*
X214131759Y-96380637D01*
X214331637Y-96180759D01*
X214488680Y-95945727D01*
X214596853Y-95684574D01*
X214652000Y-95407335D01*
X214652000Y-95124665D01*
X214596853Y-94847426D01*
X214488680Y-94586273D01*
X214331637Y-94351241D01*
X214131759Y-94151363D01*
X213899241Y-93996000D01*
X214131759Y-93840637D01*
X214331637Y-93640759D01*
X214488680Y-93405727D01*
X214596853Y-93144574D01*
X214652000Y-92867335D01*
X214652000Y-92584665D01*
X214596853Y-92307426D01*
X214488680Y-92046273D01*
X214331637Y-91811241D01*
X214131759Y-91611363D01*
X213896727Y-91454320D01*
X213886135Y-91449933D01*
X214072131Y-91338385D01*
X214280519Y-91149414D01*
X214448037Y-90923420D01*
X214568246Y-90669087D01*
X214608904Y-90535039D01*
X214486915Y-90313000D01*
X213344000Y-90313000D01*
X213344000Y-90333000D01*
X213090000Y-90333000D01*
X213090000Y-90313000D01*
X213070000Y-90313000D01*
X213070000Y-90059000D01*
X213090000Y-90059000D01*
X213090000Y-90039000D01*
X213344000Y-90039000D01*
X213344000Y-90059000D01*
X214486915Y-90059000D01*
X214608904Y-89836961D01*
X214568246Y-89702913D01*
X214448037Y-89448580D01*
X214280519Y-89222586D01*
X214072131Y-89033615D01*
X213886135Y-88922067D01*
X213896727Y-88917680D01*
X214131759Y-88760637D01*
X214331637Y-88560759D01*
X214488680Y-88325727D01*
X214596853Y-88064574D01*
X214652000Y-87787335D01*
X214652000Y-87504665D01*
X214596853Y-87227426D01*
X214488680Y-86966273D01*
X214331637Y-86731241D01*
X214131759Y-86531363D01*
X213899241Y-86376000D01*
X214131759Y-86220637D01*
X214331637Y-86020759D01*
X214488680Y-85785727D01*
X214596853Y-85524574D01*
X214652000Y-85247335D01*
X214652000Y-84964665D01*
X214596853Y-84687426D01*
X214488680Y-84426273D01*
X214331637Y-84191241D01*
X214131759Y-83991363D01*
X213899241Y-83836000D01*
X214131759Y-83680637D01*
X214331637Y-83480759D01*
X214488680Y-83245727D01*
X214596853Y-82984574D01*
X214652000Y-82707335D01*
X214652000Y-82424665D01*
X214596853Y-82147426D01*
X214488680Y-81886273D01*
X214331637Y-81651241D01*
X214131759Y-81451363D01*
X213899241Y-81296000D01*
X214131759Y-81140637D01*
X214331637Y-80940759D01*
X214488680Y-80705727D01*
X214596853Y-80444574D01*
X214652000Y-80167335D01*
X214652000Y-79884665D01*
X214596853Y-79607426D01*
X214488680Y-79346273D01*
X214331637Y-79111241D01*
X214131759Y-78911363D01*
X213899241Y-78756000D01*
X214131759Y-78600637D01*
X214331637Y-78400759D01*
X214488680Y-78165727D01*
X214596853Y-77904574D01*
X214652000Y-77627335D01*
X214652000Y-77344665D01*
X214596853Y-77067426D01*
X214488680Y-76806273D01*
X214331637Y-76571241D01*
X214131759Y-76371363D01*
X213899241Y-76216000D01*
X214131759Y-76060637D01*
X214331637Y-75860759D01*
X214488680Y-75625727D01*
X214596853Y-75364574D01*
X214652000Y-75087335D01*
X214652000Y-74804665D01*
X214596853Y-74527426D01*
X214488680Y-74266273D01*
X214331637Y-74031241D01*
X214131759Y-73831363D01*
X213899241Y-73676000D01*
X214131759Y-73520637D01*
X214331637Y-73320759D01*
X214488680Y-73085727D01*
X214596853Y-72824574D01*
X214652000Y-72547335D01*
X214652000Y-72264665D01*
X214596853Y-71987426D01*
X214488680Y-71726273D01*
X214331637Y-71491241D01*
X214131759Y-71291363D01*
X213899241Y-71136000D01*
X214131759Y-70980637D01*
X214331637Y-70780759D01*
X214488680Y-70545727D01*
X214596853Y-70284574D01*
X214652000Y-70007335D01*
X214652000Y-69724665D01*
X214596853Y-69447426D01*
X214488680Y-69186273D01*
X214331637Y-68951241D01*
X214131759Y-68751363D01*
X213899241Y-68596000D01*
X214131759Y-68440637D01*
X214331637Y-68240759D01*
X214488680Y-68005727D01*
X214596853Y-67744574D01*
X214652000Y-67467335D01*
X214652000Y-67184665D01*
X214596853Y-66907426D01*
X214488680Y-66646273D01*
X214331637Y-66411241D01*
X214131759Y-66211363D01*
X213899241Y-66056000D01*
X214131759Y-65900637D01*
X214331637Y-65700759D01*
X214488680Y-65465727D01*
X214596853Y-65204574D01*
X214652000Y-64927335D01*
X214652000Y-64644665D01*
X214596853Y-64367426D01*
X214488680Y-64106273D01*
X214331637Y-63871241D01*
X214131759Y-63671363D01*
X213899241Y-63516000D01*
X214131759Y-63360637D01*
X214331637Y-63160759D01*
X214488680Y-62925727D01*
X214596853Y-62664574D01*
X214652000Y-62387335D01*
X214652000Y-62104665D01*
X214596853Y-61827426D01*
X214488680Y-61566273D01*
X214331637Y-61331241D01*
X214131759Y-61131363D01*
X213896727Y-60974320D01*
X213886135Y-60969933D01*
X214072131Y-60858385D01*
X214280519Y-60669414D01*
X214448037Y-60443420D01*
X214568246Y-60189087D01*
X214608904Y-60055039D01*
X214486915Y-59833000D01*
X213344000Y-59833000D01*
X213344000Y-59853000D01*
X213090000Y-59853000D01*
X213090000Y-59833000D01*
X213070000Y-59833000D01*
X213070000Y-59579000D01*
X213090000Y-59579000D01*
X213090000Y-58435376D01*
X213344000Y-58435376D01*
X213344000Y-59579000D01*
X214486915Y-59579000D01*
X214608904Y-59356961D01*
X214568246Y-59222913D01*
X214448037Y-58968580D01*
X214280519Y-58742586D01*
X214072131Y-58553615D01*
X213830881Y-58408930D01*
X213566040Y-58314091D01*
X213344000Y-58435376D01*
X213090000Y-58435376D01*
X212867960Y-58314091D01*
X212603119Y-58408930D01*
X212361869Y-58553615D01*
X212153481Y-58742586D01*
X211985963Y-58968580D01*
X211953357Y-59037565D01*
X211948680Y-59026273D01*
X211791637Y-58791241D01*
X211591759Y-58591363D01*
X211356727Y-58434320D01*
X211095574Y-58326147D01*
X210818335Y-58271000D01*
X210535665Y-58271000D01*
X210258426Y-58326147D01*
X209997273Y-58434320D01*
X209762241Y-58591363D01*
X209562363Y-58791241D01*
X209405320Y-59026273D01*
X209297147Y-59287426D01*
X209242000Y-59564665D01*
X200340643Y-59564665D01*
X200451889Y-59518586D01*
X200605028Y-59416262D01*
X200735262Y-59286028D01*
X200837586Y-59132889D01*
X200908068Y-58962729D01*
X200944000Y-58782089D01*
X200944000Y-58597911D01*
X200908068Y-58417271D01*
X200837586Y-58247111D01*
X200769000Y-58144465D01*
X200769000Y-57073911D01*
X202884000Y-57073911D01*
X202884000Y-57258089D01*
X202919932Y-57438729D01*
X202990414Y-57608889D01*
X202991490Y-57610500D01*
X202990414Y-57612111D01*
X202919932Y-57782271D01*
X202884000Y-57962911D01*
X202884000Y-58147089D01*
X202919932Y-58327729D01*
X202990414Y-58497889D01*
X203092738Y-58651028D01*
X203222972Y-58781262D01*
X203376111Y-58883586D01*
X203546271Y-58954068D01*
X203726911Y-58990000D01*
X203911089Y-58990000D01*
X204091729Y-58954068D01*
X204261889Y-58883586D01*
X204415028Y-58781262D01*
X204431290Y-58765000D01*
X205238710Y-58765000D01*
X205254972Y-58781262D01*
X205408111Y-58883586D01*
X205578271Y-58954068D01*
X205758911Y-58990000D01*
X205943089Y-58990000D01*
X206123729Y-58954068D01*
X206293889Y-58883586D01*
X206447028Y-58781262D01*
X206577262Y-58651028D01*
X206679586Y-58497889D01*
X206750068Y-58327729D01*
X206786000Y-58147089D01*
X206786000Y-57962911D01*
X206750068Y-57782271D01*
X206679586Y-57612111D01*
X206678510Y-57610500D01*
X206679586Y-57608889D01*
X206750068Y-57438729D01*
X206786000Y-57258089D01*
X206786000Y-57073911D01*
X206750068Y-56893271D01*
X206679586Y-56723111D01*
X206577262Y-56569972D01*
X206447028Y-56439738D01*
X206293889Y-56337414D01*
X206123729Y-56266932D01*
X205943089Y-56231000D01*
X205758911Y-56231000D01*
X205578271Y-56266932D01*
X205408111Y-56337414D01*
X205254972Y-56439738D01*
X205238710Y-56456000D01*
X204431290Y-56456000D01*
X204415028Y-56439738D01*
X204261889Y-56337414D01*
X204091729Y-56266932D01*
X203911089Y-56231000D01*
X203726911Y-56231000D01*
X203546271Y-56266932D01*
X203376111Y-56337414D01*
X203222972Y-56439738D01*
X203092738Y-56569972D01*
X202990414Y-56723111D01*
X202919932Y-56893271D01*
X202884000Y-57073911D01*
X200769000Y-57073911D01*
X200769000Y-54790535D01*
X200837586Y-54687889D01*
X200908068Y-54517729D01*
X200944000Y-54337089D01*
X200944000Y-54152911D01*
X200908068Y-53972271D01*
X200837586Y-53802111D01*
X200735262Y-53648972D01*
X200605028Y-53518738D01*
X200451889Y-53416414D01*
X200281729Y-53345932D01*
X200101089Y-53310000D01*
X199916911Y-53310000D01*
X199736271Y-53345932D01*
X199566111Y-53416414D01*
X199412972Y-53518738D01*
X199282738Y-53648972D01*
X199180414Y-53802111D01*
X199109932Y-53972271D01*
X199074000Y-54152911D01*
X100961086Y-54152911D01*
X100728839Y-53805330D01*
X100194670Y-53271161D01*
X99654155Y-52910000D01*
X217845845Y-52910000D01*
X217305330Y-53271161D01*
%TD*%
M02*
